<?xml version="1.0" encoding="UTF-8"?>
<svg id="Capa_1" xmlns="http://www.w3.org/2000/svg" version="1.1" viewBox="0 0 412.83 461.77">
  <!-- Generator: Adobe Illustrator 30.2.1, SVG Export Plug-In . SVG Version: 2.1.1 Build 1)  -->
  <ellipse cx="208.31" cy="429.11" rx="184.02" ry="18.07" fill="#dbeafe"/>
  <path d="M198.3,15.07c5.08-.6,2.96.64,7.34,1.81,1.15-.35,2.69-.91,3.86-1,3.52-.29,3.92,5.01,7.48,3.84.31-.1,1.44-.29,1.77-.26,3.51.29,3.88,3.29,4.05,6.14.08.86,4.32.94,5.46,2.62.49.73,1.29,1.2,1,3.03-.73,4.64,2.34,3.98,2.8,7.4.31,2.31-.86,3.2-1.87,4.92-.92,1.56.21,3.77.28,5.12.06,1.09-2.04,3.51-2.81,4.44,2.33,4.95-.8,4.07-1.21,6.52-1.17,6.82-.48,8.56-8.74,10.45-.32.28-3.34,7.74-4.42,9.53-.06,4.12-.07,8.24-.03,12.36,14.2,3.44,29.49,7.54,39.5,19,23.19,26.55,26.04,94.65,23.8,128.11-.2,2.97.1,8.96-2.19,10.91-.41.35-1.02.76-1.1,1.35-.25,1.88.51,4.28.85,6.14,1.22,6.75,2.3,14.6-1.2,20.85-1.59,2.84-5.66,8.6-8.94,9.31-1.02.22-2.2-.16-2.97-.81-2.89-2.43-1.51-13.95-1.76-18.02-.93,1.56-1.92,3.72-3.63,4.22-5.53-1.39,1.99-16.88,3.03-20.47l.12-.41c-1.11-.2-2.46-.38-3.47-.89-2.55-1.3-4.6-15.26-5.72-18.65l-.16-.48c-.31,5.35.48,17.35.71,23.04l1.43,39.83,2.84,111.44-3.83.76.77,6.13c2.64,3.16,5.96,6.68,6.86,10.83.72,3.29-2.94,4.23-5.55,4.55-4.28.53-15.96,1.45-17.46-4-.33-1.2-.24-6.38-.27-7.98-.04-2.94-.24-5.88-.61-8.8l-4.93-.42c-3.34-11.35-6.36-23.82-9.19-35.32-3.98-15.64-7.74-31.33-11.27-47.08-2.43-9.78-4.28-19.85-6.54-29.67-.69-2.99-2.04-10.28-3-12.81-1.23,9.11-1.84,21.38-2.68,30.8l-4.67,51.85c-1.16,13.54-2.23,28.37-3.84,41.82-1.54.18-3.44.2-5.02.26-.04,4.9,2.24,11.6.96,15.87-.32.31-.61.52-1.04.69-3.4,1.3-33.42,2.55-35.55,1.12-.69-.46-.81-1-.84-1.79-.16-5.83,17.06-9.19,20.62-13.63.65-.81.83-1.71.68-2.72-1.13-.68-4.44-1.01-5.99-1.25-2.86-32.83-6.19-65.35-8.66-98.31-1.63-24.47-2.94-48.95-3.93-73.45l-2.36-1.45c-1.55-14.16-.27-33.88.7-48.12,1.12-17.75,2.62-35.47,4.5-53.15-19.18-14.94-72.11-53.88-43.41-80.72,13.04-12.2,50.08-14,67.57-12.61-.07-.49-.12-.99-.16-1.48-.33-4,.5-3.61,2.95-5.83,1.03-1.01-.14-2.86-.13-4.03.03-5.03,3.39-4.46,6.63-4.87,4.72-9.26,6.33-2.99,9.49-3.75,1.23-1.33,1.62-1.72,3.08-2.78Z" fill="#030203"/>
  <path d="M171.11,38.6c2.09-.02,4.25-.15,6.35-.25-1.17,2.17-1.4,2.76-2.11,5.12.53,2.27,2.68,5.88,1.76,7.5-2.26,4-2.24,6.71.56,10.65-5.33,1.27-37.8,9.37-39.6,12.06,2.5-.29,7.47-1.98,10.04-2.77,10.75,8.54,19.26,15.18,32.39,19.47,1.72,7.16,4.15,12.65,8.13,18.94,2.22-1.67,5.63-5.17,7.73-7.2,2.92,2.89,5.23,6.02,8.43,9.11,5.91-5.35,10.87-9.63,14.86-16.63,17.66,3.77,34.01,13.88,41.17,31.13,13.7,32.89,15.85,71.14,14.94,106.37-.1,3.9-.45,14.21-1.69,16.73-1.16,2.37-15.56,3.13-18.02,1.56-1.24-.79-1.6-2.09-1.87-3.23-2.34-9.99-4.24-20.35-6.11-30.41-3.15-17.7-6.73-35.31-10.74-52.83-.73-3.49-2.06-9.1-3.02-12.46l-.23.15c-.54,2.72,4.69,23.31,5.54,27.44,3.55,17.99,7,36,10.36,54.03-20.78,5.13-46.48,10.13-67.95,8-10.71-1.06-24.04-5.12-33.98-9.31-1.07-14.87-.27-28.75.69-43.56.89-13.8,1.96-27.59,3.23-41.36l1.88-20.03c.24-2.48.99-8.77.74-10.98l-.39-.18c-.87,1.87-1.56,11.58-1.8,14.31-7.04-6.61-16.69-12.8-24.03-20.01-10.57-10.38-26.24-24.89-26.7-40.62-.22-6.14,2.07-12.11,6.34-16.53,13.5-13.93,44.71-13.99,63.09-14.21Z" fill="#f3f2f2"/>
  <path d="M192.69,33.18c.38.1.38.26.68.66,4.58,6,7.96,3.52,13.91,2.7-.13.02,2.09,1.11,2.38,1.3.92.61,3.22-.42,4.46-.86,1.21,3.36.89,2.9,3.57,5.17-.37,4.53-3.44,3.59-.04,9.15l.24.39c-2.19,4.89-3.64,21.27-10.52,21.44-5.45-8.01-16.69-9.71-24.55-4.47-3.39-5.3-2.48-9.45-1.66-15.38,1-7.16,1.52-13.54,5.31-19.8,2.73.94,3.73.9,6.21-.3Z" fill="#f3f2f2"/>
  <path d="M204.55,44.81c1.51.43,6.74,3.76,7.77,5.3.65.97.3,1.41.03,2.48-2.47-.7-7.2-3.52-8.39-5.82-.03-1.36-.18-.71.59-1.95Z" fill="#030203"/>
  <path d="M191.47,43.17c1.57-.22,1.63-.02,2.56,1.08.22,2.66-4.98,2.67-7.02,2.87-1.22.05-1.48.14-2.57-.45l-.08-.64c1.33-1.9,4.98-2.45,7.12-2.87Z" fill="#030203"/>
  <path d="M196.39,51.01c1.84,3.24-4.84,9.26-1.69,12.64,1.89.94,2.17-.59,4.01.37-10.3,4.09-4.5-9.11-2.32-13.02Z" fill="#030203"/>
  <path d="M205.03,52.6c3.15.91,2.57,2.87,1.1,4.98l-1.12-.3c-1.67-1.7-1.24-2.87.02-4.68Z" fill="#030203"/>
  <path d="M188.75,49.9c3.04,1.16,2.02,3.36.63,5.35-2.86-1.15-1.52-3.29-.63-5.35Z" fill="#030203"/>
  <path d="M178.07,62.53l.41.1c.66,1.09-.02,9.71.64,12.25,1.42,5.5,3.66,7.21,8.21,10.07l-.46,5.53c-7.07-.97-13.85-3.45-19.87-7.29-6.11-3.84-12.06-8.36-17.76-12.78,9.71-2.84,19.29-5.15,28.83-7.89Z" fill="#f3f2f2"/>
  <path d="M271.34,251.4h.34s.4.38.4.38c1.66,8.07,3.54,19.2-.21,26.82.28-1.84,1.55-7.77.17-8.59-1.48,1.84-.68,10.88-4.01,12.94-.62-.72,1.85-7.91,1.41-11.38l-.4-.22c-1.7,2.06-1.1,13.28-5.13,15l-.44-.21c-.19-1.21.58-3.48.92-4.77.29-1.63,1.58-8.18.45-9.37-1.17,2.41-1.34,10.77-3.23,13.09l-.4-.13c-.91-2.01-.78-4.31-.68-6.47.22-4.67.01-8.88-.85-13.47-1.05,1.87-2.58,5.73-4.46,6.37l-.42-.52c-.31-5.11,3.49-13.2,5.09-18.62,4.85.11,6.74.08,11.44-.87Z" fill="#f3f2f2"/>
  <path d="M211.96,80.85c.64.87.05,10.6-.02,12.35-4.25,3.46-9.48,6.3-14.78,7.74-2.21-1.26-3.41-2.1-5.46-3.63-1.67-1.37-2.62-2.75-3.79-4.5,0-1.46.01-1.83.26-3.27,1.09-.08,2.08.15,3.05.1,8.8-.45,14.62-2.98,20.74-8.79Z" fill="#f3f2f2"/>
  <path d="M213.48,93.16l4.92,1.28c-1.68,3.68-9.94,12.8-13.42,14.98l-.56-.22c-2.21-2.22-4.63-5.09-6.72-7.47,6.25-1.56,11.16-4.07,15.78-8.56Z" fill="#f3f2f2"/>
  <path d="M190.83,69.58c2.15-.14,3.87-.28,5.94.48,4.54,1.66,8.59,7.16,1.37,8.78-3.3-.53-11.1-1.63-11.24-5.45.62-1.67,2.38-3.05,3.93-3.81Z" fill="#f3f2f2"/>
  <path d="M190.76,71.2c2.06-.03,6.67-.11,6.08,2.93-2.24.04-5.45-.5-6.08-2.93Z" fill="#030203"/>
  <path d="M181.6,90.68l4.4,1.05c2.89,4.99,4.91,6.74,9.65,9.88l-2.92,2.63c-1.36,1.07-2.79,2.32-4.13,3.44-2.86-6.51-5.06-10-7-17Z" fill="#f3f2f2"/>
  <path d="M221.43,57.09c6.16,2.21,3.42,8.75-1,11.57-.98.31-1.93.73-2.84.33-.39-2,2.4-10.06,3.84-11.9Z" fill="#f3f2f2"/>
  <path d="M248.05,407.53c.73-.16.34-.16,1.16.07.72,1.49.76,3.3.94,4.98-.64-.3-1.29-.58-1.95-.83-3.64-1.39-6.57-1.06-10.01.5l-1.2.9-.6-.23c-.69-1.13-.69-3.45-.8-4.87,4.37.08,8.11-.2,12.45-.52Z" fill="#f3f2f2"/>
  <path d="M168.9,406.73c3.65.46,9.25.49,13,.58.19,1.61.23,3.19.3,4.81-3.82-.32-8.67-.95-12.08-2.86-1.07-.6-.96-1.32-1.23-2.53Z" fill="#f3f2f2"/>
  <path d="M179.03,50.65c1.59,1.06.38,8.23-.22,9.94l-.67.29c-1.95-3.52-2.52-7.53.89-10.23Z" fill="#f3f2f2"/>
</svg>
