<?xml version="1.0" encoding="UTF-8"?>
<svg id="Capa_1" xmlns="http://www.w3.org/2000/svg" xmlns:xlink="http://www.w3.org/1999/xlink" version="1.1" viewBox="0 0 280.62 366.31">
  <!-- Generator: Adobe Illustrator 30.2.1, SVG Export Plug-In . SVG Version: 2.1.1 Build 1)  -->
  <defs>
    <linearGradient id="Degradado_sin_nombre" data-name="Degradado sin nombre" x1="-130.13" y1="1182.64" x2="-137.91" y2="1183.45" gradientTransform="translate(136.26 633.96) scale(.5 -.5)" gradientUnits="userSpaceOnUse">
      <stop offset="0" stop-color="#030205"/>
      <stop offset="1" stop-color="#2d2722"/>
    </linearGradient>
  </defs>
  <path d="M154.21,182.7c-.41.99-.3,4.46-.28,5.73l.19,13.86c.03,2.66.18,5.53-.12,8.16-.44,3.87-1.85,6.19-5.76,6.97-10.27,2.05-20.55,3.91-30.83,5.84l-50.04,9.55-28.96,5.4c-3.69.69-10.39,2.23-13.71,2.45-2.58.17-10.68-.31-12.37-2.4-1.42-1.77-2.13-3.12-2.15-5.48-.06-5.03-.04-10.06-.04-15.08v-28.67s.03-87.28.03-87.28l-.02-58.03-.03-18.68c0-2.95-.14-7.47.09-10.31.16-1.81.94-3.51,2.21-4.81,4.58-4.7,27.3-.33,33.88.65l27.44,3.96,52.16,7.38c7.05,1.02,14.16,1.98,21.21,3.03,1.08.16,3.72.75,4.44,1.49,1.19,1.18,2.29,2.82,2.37,4.55.2,4.11.08,8.32.07,12.43v27.08s-.05,85.52-.05,85.52l-.45-.31c-1.33-.77-2.68-1.53-4.03-2.26l-.59-.37c-2.61-1.38-4.12-2.84-7.02-2.04-2.19-2.38-2.95-6.08-6.53-9.38l-.25-.22c-2.73-1.99-5.2-2.98-8.33-4.18-2.13-.71-3.54-1-5.75-1.26-1.37-1.93-6.29-9.66-8.73-8.83l-.23.52c.2,2.51,3.52,6.59,5.05,8.75,1.09,1.44,2.16,2.89,3.21,4.35l1.67,2.13c-1.14,2.49-.44,1.81-.39,4.16.07,3.62-1.16,6.37,2.84,8.42,1.36.69,3.14,2.01,4.6,2.8,2.06.76,3.88,1.29,5.97,1.9-.18.79-.49,1.97-.61,2.74,2.25,3.43,11.37,13.77,14.7,15.47l.35.43c1.2.99,3.02,2.56,4.26,3.38l.54.5Z" fill="#fff"/>
  <path d="M154.21,182.7c-.41.99-.3,4.46-.28,5.73l.19,13.86c.03,2.66.18,5.53-.12,8.16-.44,3.87-1.85,6.19-5.76,6.97-10.27,2.05-20.55,3.91-30.83,5.84l-50.04,9.55-28.96,5.4c-3.69.69-10.39,2.23-13.71,2.45-2.58.17-10.68-.31-12.37-2.4-1.42-1.77-2.13-3.12-2.15-5.48-.06-5.03-.04-10.06-.04-15.08v-28.67s.03-87.28.03-87.28l-.02-58.03-.03-18.68c0-2.95-.14-7.47.09-10.31.16-1.81.94-3.51,2.21-4.81,4.58-4.7,27.3-.33,33.88.65l27.44,3.96,52.16,7.38c7.05,1.02,14.16,1.98,21.21,3.03,1.08.16,3.72.75,4.44,1.49,1.19,1.18,2.29,2.82,2.37,4.55.2,4.11.08,8.32.07,12.43v27.08s-.05,85.52-.05,85.52l-.45-.31c-1.33-.77-2.68-1.53-4.03-2.26l-.59-.37c.68-2.04.18-33.96.17-38.35l-.02-59.02c-.02-6.41.01-12.84,0-19.24,0-2.13-.33-4.91-2.8-5.36-4.04-.74-8.37-1.2-12.43-1.73l-27.13-3.6-52.7-7.09c-8.07-1.09-16.17-2.35-24.26-3.35-1.43-.08-2.82-.47-4.08.42-.89.63-1.52,1.81-1.58,2.9-.28,5.31,0,10.84.02,16.15l.04,38.79v113.41s-.03,28.59-.03,28.59c0,3.46-.33,12.5.32,15.29,2.62,3.09,3.28,2.15,7.01,1.51,2.27-.39,4.58-.85,6.85-1.26l25.69-4.66,79.34-14.28c1.25-.24,3.47-.65,4.48-1.44,2.67-2.08.3-27.25,1.3-32.36l.35.43c1.2.99,3.02,2.56,4.26,3.38l.54.5Z" fill="#fff"/>
  <path d="M154.21,182.7c-.41.99-.3,4.46-.28,5.73l.19,13.86c.03,2.66.18,5.53-.12,8.16-.44,3.87-1.85,6.19-5.76,6.97-10.27,2.05-20.55,3.91-30.83,5.84l-50.04,9.55-28.96,5.4c-3.69.69-10.39,2.23-13.71,2.45-2.58.17-10.68-.31-12.37-2.4-1.42-1.77-2.13-3.12-2.15-5.48-.06-5.03-.04-10.06-.04-15.08v-28.67s.03-87.28.03-87.28l-.02-58.03-.03-18.68c0-2.95-.14-7.47.09-10.31.16-1.81.94-3.51,2.21-4.81,4.58-4.7,27.3-.33,33.88.65l27.44,3.96,52.16,7.38c7.05,1.02,14.16,1.98,21.21,3.03,1.08.16,3.72.75,4.44,1.49,1.19,1.18,2.29,2.82,2.37,4.55.2,4.11.08,8.32.07,12.43v27.08s-.05,85.52-.05,85.52l-.45-.31c.43-1.17.1-10.52.09-12.37l-.05-35.32-.02-51c0-8.04.01-16.11.04-24.15.01-2.75-1.03-6.23-4.14-6.9-5.18-1.11-10.68-1.68-15.97-2.4l-27.31-3.88-51.64-7.31-22.19-3.13c-1.37-.19-3.24-.41-4.5-.71-3.38-.82-6.35-.12-8.42,2.84-.96,1.36-.95,4.42-1.07,6.08-.1,17.39-.01,34.79-.01,52.18l.02,98.19v44.75s-.01,12.97-.01,12.97c0,6.39-1.17,16.24,8.36,14.42,2.05-.39,4.12-.76,6.18-1.15l79.56-15.03,24.21-4.58c4.15-.79,8.34-1.56,12.47-2.45,5.36-1.16,4.55-8.6,4.54-12.84l-.06-13.58c-.01-2.32-.12-5.87.13-8.1l.54.5Z" fill="#959596"/>
  <path d="M20.86,8.45c.11.38-.7.97-1.15,1.48-1.45,1.65-2.05,4.31-2.06,6.48-.02,5.06,0,10.14,0,15.2l.02,30.2-.02,89.93.05,52.98-.03,17.39c0,3.75-.06,7.62.21,11.36.2,2.86,1.02,4.37,2.92,6.39-2.27-.24-4.02-.26-6.31-.69-2.73-1.14-3.71-3.49-3.76-6.36-.08-4.32-.03-8.65-.03-12.97v-24.16s0-78.6,0-78.6V49.43s-.03-22.1-.03-22.1c0-3.86-.05-7.8.04-11.66.05-1.81.62-3.83,1.89-5.18,2.02-2.17,5.45-1.96,8.25-2.03Z" fill="#e9e9e8"/>
  <path d="M27.47,233.73c-2.66-1.02-3.92-2.3-3.96-5.33-.07-4.42-.03-8.85-.02-13.27l.06-26.33.05-70.45-.08-65.81c-.03-11.12-.13-22.25-.06-33.37.04-6.37,7.27-4.24,11.23-3.72l13.1,1.76,36.41,4.95,41.87,5.58c6.53.86,13.06,1.67,19.58,2.59,2.41.34,3.82,2.43,3.87,4.76.16,6.93.11,13.89.11,20.82v42.29s-.02,35.6-.02,35.6c0,5.26.3,14.64-.15,19.64l-.59-.37c.68-2.04.18-33.96.17-38.35l-.02-59.02c-.02-6.41.01-12.84,0-19.24,0-2.13-.33-4.91-2.8-5.36-4.04-.74-8.37-1.2-12.43-1.73l-27.13-3.6-52.7-7.09c-8.07-1.09-16.17-2.35-24.26-3.35-1.43-.08-2.82-.47-4.08.42-.89.63-1.52,1.81-1.58,2.9-.28,5.31,0,10.84.02,16.15l.04,38.79v113.41s-.03,28.59-.03,28.59c0,3.46-.33,12.5.32,15.29,2.62,3.09,3.28,2.15,7.01,1.51,2.27-.39,4.58-.85,6.85-1.26l25.69-4.66,79.34-14.28c1.25-.24,3.47-.65,4.48-1.44,2.67-2.08.3-27.25,1.3-32.36l.35.43c-.36,4.74,1.27,28.7-.83,31.55-.76,1.04-1.83,1.52-3.05,1.84-4.52,1.19-9.36,1.76-13.97,2.57l-23.81,4.28c-26.55,4.75-53.88,9.53-80.28,14.67Z" fill="#959596"/>
  <path d="M129,158.28c2.06.76,3.88,1.29,5.97,1.9-.18.79-.49,1.97-.61,2.74-12.37.47-25.86,1.56-38.26,2.31l-37.97,2.09.06-4.76c11.92-.18,24.87-1.23,36.89-1.77l20.02-.99c4.16-.19,8.4-.37,12.56-.64.92-.06.71-.09,1.34-.88Z" fill="#e9e9e8"/>
  <path d="M117.07,136.42c1.09,1.44,2.16,2.89,3.21,4.35-2,.5-15.18.76-18.05.77-14.13.09-29.89.69-44.07,1.21l.02-4.69c13.56.11,29.03-.74,42.8-.96,2.66-.09,14.76.15,16.09-.69Z" fill="#e9e9e8"/>
  <path d="M126.74,137.25c1.45-.87,7.13-.79,9.22-.95.02,2.15.38,3.59-.89,5.13-2.73-1.99-5.2-2.98-8.33-4.18Z" fill="#e9e9e8"/>
  <path d="M135.43,181.38c.56-.03.31-.11.76.24.28,1.18.16,2.66.13,3.9-5.97.71-12.83,1.12-18.89,1.65l-37.91,3.23c-6.38.54-14.3.95-20.49,1.83-.59-.05-.33.05-.8-.29-.3-1.37-.14-2.94-.09-4.37,6.12-.93,15.78-1.31,22.27-1.86l55.02-4.33Z" fill="#e9e9e8"/>
  <path d="M58.27,63.36c10.16.93,20.67,1.49,30.86,2.16,15.65,1.1,31.31,2.12,46.97,3.07l-.02,4.11c-9.25.06-22.63-1.13-32.03-1.77l-45.97-2.95c-.01-1.31-.12-3.41.19-4.62Z" fill="#e9e9e8"/>
  <path d="M58.09,113.34c25.81.55,52.19.57,78.05.8v4.27c-10.48.13-20.9-.3-31.36-.23-15.55.09-31.13-.22-46.67-.05l-.02-4.78Z" fill="#e9e9e8"/>
  <path d="M58.14,88.34c8.49.09,16.9.77,25.36,1.08l52.64,1.79c.03,1.51.02,2.7-.06,4.21-11.71-.18-23.42-.52-35.12-1.05l-42.8-1.55-.03-4.48Z" fill="#e9e9e8"/>
  <path d="M102.49,192.7c.48-.08,1.81-.12,2.36-.16l.16,4.33-43.82,4.2c-.85.13-2.03.17-2.91.23-.13-1.41-.16-3.14-.22-4.57,6.06-.44,12.29-1.17,18.37-1.73l26.07-2.3Z" fill="#e9e9e8"/>
  <path d="M99.08,169.34c1.61-.17,3.8-.1,5.48-.1l.33,4.24-28.58,1.91c-2.61.15-9.73.16-11.96.6-2.06.2-4.03.31-6.09.42-.13-1.25-.13-3.18-.15-4.48,3.4-.03,8.36-.52,11.93-.74l29.05-1.85Z" fill="#e9e9e8"/>
  <path d="M97.91,146.02c2.27-.1,4.59-.15,6.87-.23l.09,4.42c-13.13.5-26.53,1.11-39.64,1.46-2.29.11-4.58.19-6.86.22l-.03-4.49c12.99-.41,26.62-.79,39.58-1.38Z" fill="#e9e9e8"/>
  <path d="M57.95,72.6c2.69.41,8.91.57,12.01.77,11.52.75,23.14,1.23,34.69,1.83v4.25c-15.07.02-31.5-1.67-46.65-2.23l-.05-4.62Z" fill="#e9e9e8"/>
  <path d="M74.11,122.64c10.12-.26,20.3,0,30.44-.14l.04,4.34c-5.47-.04-11.11.23-16.67.23-9.77.08-19.9.3-29.64.09l.03-4.4,15.79-.12Z" fill="#e9e9e8"/>
  <path d="M58.14,97.69c11.92,0,23.92.77,35.85.86,3.52.03,7.17.09,10.67.38l.07,4.12c-1.57.09-3.58.03-5.17-.01-13.76-.37-27.64-.35-41.39-.88l-.03-4.47Z" fill="#e9e9e8"/>
  <path d="M50.96,137.44c.45-.63.7-1.16,1.41-1.39.66.89-.7,2.48-1.18,3.3.4.67.22,11.56.24,13.26-4.05.07-8.03.24-12.12.28-.01-5.07,0-10.14.05-15.2,3.8,0,7.79-.17,11.61-.25Z" fill="#fff"/>
  <path d="M50.96,137.44c.45-.63.7-1.16,1.41-1.39.66.89-.7,2.48-1.18,3.3l-.18.3c-2.52,3.59-4.5,7.41-6.93,10.83-.82-1.7-2.65-5.51-2.53-7.32,1.02.41,2.22,3.51,2.73,4.65l6.35-9.88.33-.48Z"/>
  <path d="M39.35,137.7c3.8,0,7.79-.17,11.61-.25l-.33.48c-3.63,0-7.16.1-10.79.16v14.34c3.7-.16,7.41-.27,11.12-.35.06-2.05.41-10.97.05-12.42l.18-.3c.4.67.22,11.56.24,13.26-4.05.07-8.03.24-12.12.28-.01-5.07,0-10.14.05-15.2Z" fill="#959596"/>
  <path d="M50.98,87.3c.43-.66.68-1.26,1.38-1.5.66.91-.63,2.38-1.19,3.14.34,1.84.18,10.97.17,13.44-4-.07-8.01-.25-12.02-.35-.06-5.07-.06-10.13,0-15.2,3.72.15,8.07.1,11.67.46Z" fill="#fff"/>
  <path d="M50.98,87.3c.43-.66.68-1.26,1.38-1.5.66.91-.63,2.38-1.19,3.14l-.36.57c-2.27,3.15-4.15,6.64-6.38,9.62h-.32c-.85-1.1-2.98-5.84-2.67-7.11l.32.04c1.08,1.3,1.94,3.51,2.65,5.1,1.99-3.21,4.04-6.38,6.16-9.51l.41-.37Z"/>
  <path d="M39.31,86.84c3.72.15,8.07.1,11.67.46l-.41.37c-3.51-.06-7.33-.34-10.77-.33-.02,4.7.06,9.49.01,14.16,3.21.02,7.88.13,11.05.48.03-3.08.26-9.67-.04-12.47l.36-.57c.34,1.84.18,10.97.17,13.44-4-.07-8.01-.25-12.02-.35-.06-5.07-.06-10.13,0-15.2Z" fill="#959596"/>
  <path d="M51.09,112.61c.41-.76.78-1.64,1.48-2.1l.41.09.2.35c-.47,1.5-1.53,2.63-2.26,4.07.02.08.04.16.06.25l.09.38c.43,1.76.31,9.84.31,11.93-3.96.1-8.05.07-12.02.08-.21-4.69-.07-10.59.01-15.28,3.9.1,7.8.17,11.7.22Z" fill="#fff"/>
  <path d="M51.09,112.61c.41-.76.78-1.64,1.48-2.1l.41.09.2.35c-.47,1.5-1.53,2.63-2.26,4.07l-.32.53c-2.13,3.02-4.29,6.93-6.45,9.66-.87-1.68-2.63-5.47-2.55-7.32l.31.05c1.09,1.27,1.78,3.06,2.48,4.62,2.19-3.02,4.25-6.3,6.29-9.44l.4-.52Z"/>
  <path d="M39.39,112.39c3.9.1,7.8.17,11.7.22l-.4.52c-3.41-.34-7.4-.24-10.87-.23l.02,14.17h11.05c.03-1.84.33-10.5-.28-11.51l.32-.53c.02.08.04.16.06.25l.09.38c.43,1.76.31,9.84.31,11.93-3.96.1-8.05.07-12.02.08-.21-4.69-.07-10.59.01-15.28Z" fill="#959596"/>
  <path d="M47.86,162.39c1.13-.09,2.34-.11,3.48-.16.07,4.98.03,10.03.04,15.02-3.05.33-6.06.32-9.11.61l-2.9.09c-.05-5.04-.06-10.08,0-15.12,2.78-.21,5.64-.22,8.49-.44Z" fill="#959596"/>
  <path d="M48.94,162.83c.8-.11,1.02-.2,1.78.1.37,1.64.18,11.62.17,13.9-2.87.15-5.86.25-8.72.53-.8.04-1.56.2-2.2-.18-.31-1.58-.16-11.69-.15-13.92,3.23-.07,5.92-.13,9.13-.44Z" fill="#fff"/>
  <path d="M39.32,61.22c3.18.12,8.99.33,11.98.93.13,4.87.06,9.94.05,14.82-3.64,0-8.33-.44-12.04-.73v-15.02Z" fill="#959596"/>
  <path d="M39.79,61.75c3.11.16,8.13.29,11.11.83l-.03,13.89c-2.36.13-8.07-.46-11.06-.51v-14.21Z" fill="#fff"/>
  <path d="M48.29,187.44c.99-.09,2.08-.12,3.07-.17.1,4.81,0,10.06,0,14.9-3.06.39-6.24.66-9.33.95l-2.69.13c-.04-4.98-.03-9.95.03-14.93,2.69-.39,6.16-.63,8.92-.89Z" fill="#959596"/>
  <path d="M49.42,187.89c.39-.07.7-.04,1.11-.04.58.63.43,11.97.44,13.83-2.6.46-6.95.75-9.66,1.01l-1.13-.05c-.65-.8-.37-11.86-.37-13.91,2.53-.39,6.91-.61,9.61-.84Z" fill="#fff"/>
  <path d="M38.65,34.51c5.71.24,8.58,3.8,5.54,9.09-1.68,1.48-3.38,1.16-5.55,1.07.04-3.37.01-6.79.01-10.16Z"/>
  <path d="M39.81,35.41c4.37.92,5.66,3.6,3.61,7.62-1.09.7-2.07,1.11-3.24.45-.96-1.71-.45-5.78-.37-8.06Z" fill="#fff"/>
  <path d="M121.18,42.99c5.05.21,5.68,7.34,1.78,9.61-5.11-.17-5.69-7.25-1.78-9.61Z"/>
  <path d="M121.04,43.95c4.38-.37,4.02,5.23,1.96,7.62-4.27-.12-4.13-5.07-1.96-7.62Z" fill="#fff"/>
  <path d="M80.82,38.79c3.65.17,6.96,2.26,3.27,5.43.76,1.79,1.11,2.3,1.22,4.25l-.21.22c-.62-.48-.71-.98-.99-1.73-.41-1.2-.57-2.18-1.84-2.67l-.4.25c-.46,1.16-.29,2.43-.46,3.77l-.42.17-.33-.22c-.19-.65.05-8.48.16-9.47Z"/>
  <path d="M81.57,39.78c2.68.21,3.33.89,2.51,3.59-1.02.23-1.54.46-2.37-.23-.38-.93-.19-2.3-.14-3.35Z" fill="#fff"/>
  <path d="M49,35.36c1.55.63,1.82,3.96,2.32,5.49.32.95,1.37,4.26,1.11,4.88l-.46.02c-1.11-1.05-.57-2.53-1.64-3.34l-2.63.02c-.34,1.03-.56,2.62-1.7,2.72l-.18-.31c.68-2.83,2.15-6.7,3.18-9.48Z"/>
  <path d="M49.06,37.43c.46.53,1.1,2.7,1.05,3.48-.04.58.04.29-.52.79-.63-.14-.77-.1-1.27-.47-.27-1.17.36-2.58.74-3.8Z" fill="#fff"/>
  <path d="M60.95,36.65c1.41.52,3.08,8.23,3.59,9.95l-.28.25c-1.83-.17-.48-2.13-2.04-3.15-1.05-.09-1.37-.1-2.41-.02-.49.88-1.13,2.22-1.93,2.68l-.15-.56c1.11-2.18,1.85-6.51,3.22-9.16Z"/>
  <path d="M61.08,38.62c.42.72,1.27,3.06,1.12,3.95l-.49.26c-1.02-.1-1.03.08-1.63-.47-.16-1.06.59-2.6,1-3.74Z" fill="#fff"/>
  <path d="M106.97,41.17c.22.14.59.36.69.57.74,1.5,2.63,8.03,2.46,9.3l-.36.1c-.68-.69-.63-2.06-1.37-3.06-1.07-.04-1.31-.07-2.34.13-.65.76-1.03,1.48-1.52,2.34l-.04-.52.05.39.27-.61-.27-.18c.37-2.46,1.66-5.96,2.43-8.47Z"/>
  <path d="M107.09,43.67c.6.58,1.13,2.79.73,3.62-1.06-.17-.69.06-1.38-.49-.25-.91.33-2.17.65-3.13Z" fill="#fff"/>
  <path d="M126.87,43.56c1.67.44,3.68,6.37,4.39,8.03-.05-2.11-.15-5,.21-7.07h.19c.68,2.28.47,5.42.38,7.83-.03.79-.13.7-.64,1.11-.73-.9-3.24-6.69-3.86-8.05-.02,2.01.37,5.71-.19,7.43l-.31.09c-.59-1.51-.36-7.58-.16-9.38Z"/>
  <path d="M74.75,38.22c1.53.05,2.59-.05,3.94.66l-.02.32c-1,.38-1.9.17-2.99.07l.05,3.28c1.05-.03,1.78-.12,2.8.18l.2.42c-.63.5-1.6.23-2.78.35-.39.54-.32,1.62-.38,2.41v.86c1.39.8,2.86-.44,3.63,1.11l-.2.33c-1.44-.08-2.88-.16-4.31-.26.11-3.26.09-6.48.08-9.74Z"/>
  <path d="M99.94,40.88c1.43-.16,2.24-.16,3.57.54l-.08.34-.55.31c-4.49-.46-4.83,1.49-3.54,5.92.22.74,1.48,1.28,2.23,1.48.87-.09,1.37-.3,1.96.32l-.22.37c-5.08,2.18-7.68-5.7-3.37-9.28Z"/>
  <path d="M52.03,36.11l.15-.02c1.09-.16,5.06-.06,5.86.57v.52c-.77.6-.71.09-2.14.24-.48,1-.29,4.64-.27,5.95.02,1.07.2,1.87-.4,2.6l-.6-.07c-.43-1.31.46-6.94-.24-8.5-.3-.68-1.26.2-2.35-1.3Z"/>
  <path d="M89.87,39.58c1.62.31,2.28.02,3.81.78v.28c-.92.35-1.79.22-2.81.18l-.04,3.37c.81-.02,2.34-.14,2.74.67l-.14.21-.69-.02c-3.73-.03-1.12,2.13-2.08,4.3l-.48-.07c-.48-.64-.31-8.33-.31-9.71Z"/>
  <path d="M109.78,41.89c1.22-.08,4.86-.14,5.53.9l-.33.44c-.66,0-1.01-.05-1.62.21-.36,1.2-.25,4.14-.25,5.54.03,1.04.07,1.31-.13,2.31l-.32.2c-1.15-1.38.05-6.63-.6-8.3-.15-.39-1.31.22-2.28-1.3Z"/>
  <path d="M71.43,46.27c-.4.71-.25.65-.88,1.07l-.43-.16c-1.02-1.3-2.57-8.16-2.56-9.57l.29-.1c1.04.66,2.09,6.03,2.59,7.69l.27.14.72.93Z" fill="url(#Degradado_sin_nombre)"/>
  <path d="M87.26,39.24l.51.25c.51,1.22.22,8.13-.07,9.68l-.43-.25c-.54-1.09-.3-8.27,0-9.68Z"/>
  <path d="M95.59,40.2c.42.21.61.19.68.55.32,1.79.42,7.9-.23,9.4-.15-.21-.31-.43-.46-.64-.11-2.2-.02-7.45.02-9.31Z"/>
  <path d="M116.66,42.19l.54.3c.43,1.24.29,8.26-.19,9.63-.16-.14-.35-.4-.5-.58-.02-2.05-.16-7.64.15-9.36Z"/>
  <path d="M70.72,45.34c.57-2.16,1.32-5.51,2.57-7.26.62,1.48-1.99,6.7-1.85,8.19l-.72-.93Z"/>
  <path d="M173.3,87.8c1.95-3.91,2.67-2.73,5.6-2.35.4.05,1.94-2.27,2.59-2.35,3.77-2.17,4.25,1.42,6.83,2.08l1.58-.44c4.28-1.23,4.57,1.7,5.57,3.94.2.46,4.37.49,4.43,3,.24.98-.31,2.18.13,3.09,3.27,2.37,3.01,2.16,2.55,6.16-.14,1.22,2.46.6,1.33,4.81-1.34,4.99,2.72,4.42-3.84,8.71,1.99,2.94,4.44,5.55,7.24,7.73,8.99-2.38,19.38-1.23,27.47,3.44,16.93,9.78,27.46,38.29,32.15,56.26,1.01,3.88,5.83,25.1,4.21,28.08-.29.52-.93,1.14-1.09,1.69-.39,1.38-.1,6.16-.17,7.96-.14,3.19-.42,6.37-.85,9.53-1.99,15.46-5.7,31.06-7.16,46.58-.5,5.25.32,11.44.29,16.73.29,14.28,2.02,28.88,1.9,43.13-.97.4-2.21.97-3.19,1.27.28,2.62,3.05,8.99,2.09,10.76-2.88,2.37-22.26,8.95-25.34,6.08-1.22-4.2,12.5-10,12.71-14.22-1.26-1.71-3.46-.81-4.09-2.36-1.38-3.37-2.3-7.57-3.25-11.1-2.48-9.09-4.83-18.21-7.04-27.37-2.9-12.04-4.54-19.84-4.92-32.35l-.54-1.12c-1.13,3.8-2.8,9.29-3.39,13.1-.83,5.38-1.08,11.87-1.43,17.36l-1.77,27.34c-.32,4.53-.59,9.63-1.14,14.11l-3.29.2c-.09,3.23,1.01,6.72.64,9.88-.07.59-.13,1.12-.66,1.48-2.25,1.51-21.39,2.19-24.65,1.63-.79-.14-1.62-.25-2.11-.95-1.11-5.29,17.52-7.29,14.97-12-.85-.66-1.59-.65-2.68-.81-1.85-12.2-3.42-24.45-4.68-36.73-1.1-9.96-2.48-20.67-1.43-30.65,1.82-17.36,5.2-34.57,7.8-51.83-3.61-3.48-1.92-10.29-1.93-14.82,0-2.46-.15-3.56-.56-6.03-6.37-5.44-8.96-8.61-13.68-15.47-13.38,14.42-21.62,12.36-36.3,1.77l-.54-.5c-1.24-.82-3.05-2.39-4.26-3.38l-.35-.43c-3.33-1.7-12.45-12.04-14.7-15.47.12-.77.43-1.94.61-2.74-2.1-.61-3.92-1.14-5.97-1.9-1.46-.79-3.25-2.1-4.6-2.8-4-2.05-2.78-4.8-2.84-8.42-.04-2.35-.74-1.67.39-4.16l-1.67-2.13c-1.05-1.47-2.12-2.92-3.21-4.35-1.53-2.16-4.85-6.23-5.05-8.75l.23-.52c2.44-.83,7.36,6.91,8.73,8.83,2.21.26,3.61.55,5.75,1.26,3.13,1.2,5.6,2.19,8.33,4.18l.25.22c3.58,3.31,4.34,7,6.53,9.38,2.9-.81,4.41.66,7.02,2.04l.59.37c1.35.74,2.7,1.49,4.03,2.26l.45.31c4.69,2.55,9.25,5.52,13.95,8.01,3-3.87,5.7-8.04,8.36-12.15-4.5-7.04-3.9-8.45,1.38-14.4.68-.76.64-.74,1.58-1.3-1.29-6.33-2.09-7.53-5.55-13.12-1.95-3.15-4.95-10-5.67-13.61-1.42-.31-2.53-.43-3.33-1.81-.32-.55-.52-1.16-.59-1.79-1.74-.92-3.78-2.15-4.37-4.02-.55-1.76,1.44-3.33,1.91-4.79.24-.75-.27-2.45,0-3.24.38-1.18,1.29-2.07,2.48-2.3.99-.19,2.55-.07,2.93-1.13,1.34-3.68,2.23-3.58,6.27-2.55Z"/>
  <path d="M229.21,239.37c-.86-1.3-4.27-4.62-4.43-5.6,1.97,1.62,3.33,3.22,5.04,5.13.59,8.64,1.16,18.77,1.22,27.37l-.54-1.12c-.47-8.45-1.01-17.32-1.28-25.78Z" fill="#e9e9e8"/>
  <path d="M213.76,121.89c6.1-.38,14.04.8,19.56,3.9,16.62,9.35,25.26,32.24,30.96,49.66,1.78,5.45,7.7,29.55,5.81,34.97-6.64,3.9-15.13,6.28-22.54,8.16-13.2,3.35-27.85,2.88-40.46-2.29-2.97-1.22-1.48-10.87-1.52-13.55-.03-2.15-.19-3.56-.61-5.78,6.79,4.78,14.08,3.97,20.17-1.47,8.53-7.63,12.44-19.72,15.72-30.38.64-2.08,1.81-6.12,1.95-8.19l-.24-.26c-.75.62-1.36,4.07-1.65,5.17-1.68,6.52-3.92,12.89-6.65,19.03-.47.99-.95,1.97-1.45,2.95-4.65,9.11-14.29,19.93-25.13,13.88-10.37-5.79-24.03-26.67-27.47-37.84.1-.19.2-.37.3-.56,2.49-4.51,7.54-7,12.3-8.32,1.7,1.34,4.26,4.19,5.79,5.82,3.12,3.36,6.26,6.7,9.43,10.01,1.62,1.66,3.82,4,5.75,5.15l-.12-.16-.2-.27c-1.11-1.56-1.86-2.26-3.23-3.62,1.59-5.83,4.85-19.35,5.4-25l-.12-.05c-1.16,2.63-2.24,8.54-2.9,11.62-.88,4.31-1.9,8.59-3.05,12.84-3.63-4.42-11.35-11.88-15.56-16.28-.36-.37-1.99-.56-2.61-.63l-.36-.04c-.27-.66.06-3.16.02-4.12-.07-1.68-.64-10.14-1.26-11.19-.66-.23-.51-.13-1.09-.5.32-.56,2.09-1.68,2.74-2.15.25,2.42,2.47,11.92,4.94,11.96.42-.52,1.63-4.15,1.97-5.06,1.95,1.03,4.76,2.94,6.78,4.13,2.96-5.14,5.8-11.49,6.34-17.49.11-1.19.26-2.33.51-3.5.57-.57.7-.4,1.74-.52Z" fill="#fff"/>
  <path d="M143.2,151.59c4.22.17,23.09,13.56,28.46,15.26-.91-.79-2.04-1.64-3-2.4,1.86-3.13,5.85-8.63,8.02-11.94,1.43,1.73,2.58,3.06,4.13,4.67-.58.93-.98,1.83-1.45,2.82,1.78,4.52,3.89,8.9,6.3,13.12,1.06,1.85,3.44,5.25,4.23,7.07l-.4.79c-3.06,3.08-5.86,5.45-9.8,7.55-4.17,2.22-7.42,2.22-11.93,1.04-8.42-2.21-28.94-19.66-32.62-27.02,1.67-4.85,4.26-7.73,8.06-10.96Z" fill="#fff"/>
  <path d="M181.38,98.82c1.87,1.28,1.62,1.58,3.95,1.41l.34-.03c2.03,1.43-1.52,3.61,4.18,5.2,1.27,4.39,3.29,10.81.89,15-2.17,3.8-5.55,1.13-8.36,1.03-.35-.01-4.36,1.19-5,1.38l-.2-.15,1.09-.63.04-.32c-.91-.45-.78.04-2.25.13-1.52-1.35.14-7.63-1.67-9.04l-.28.51c.53,3.07.53,5.84.54,8.93,1.12.26,1.74.17,2.04,1.32l-.33.39-.6.05c-.44-.16-1.06-.41-1.28-.84-1.66-3.24-3.35-6.93-4.88-10.19,1.35-1.54,1.94-1.46,2.54-3.64l-.32-.21c-1.15.41-1.81,1.31-2.59,2.21-.99-2.84-1.02-4.44-1.07-7.45,4.17.8,5.52.16,8.16-3,2.58.5,3.47-.17,5.1-2.04Z" fill="#fff"/>
  <path d="M176.34,107.32c1.9.05,5.72-.35,6.93.74l.04.91c-1.47.13-5.54.53-6.69-.46-.35-.31-.23-.55-.28-1.19Z"/>
  <path d="M171.96,113.79c1.77.6,2.05,1.83.98,3.28-1.9-.37-1.89-1.93-.98-3.28Z"/>
  <path d="M179.09,111.5c1.14.26,1.06.25,1.67.99.26.96.17,1.13,0,2.15-1.1-.19-.99-.21-1.61-.88-.3-.98-.21-1.2-.07-2.26Z"/>
  <path d="M178.66,128.37l.84.2c2.52,1.89,4.57,12.4,7.29,13.28.65-1.3-1.32-5.55,1.93-6.39l.48.32c1.38,2.56,1.22,12.12.59,15.23-2.88,1.35-4.17,2.1-6.68,4.04l-1.77,1.68c-2.78-3.29-6.09-6.32-7.06-10.79-.19-.89-.35-2.21.15-2.99.54.23.35.19.93.26.16-1.34.08-2.56,1.21-3.5.89.14.22.81,1.18,1.77.8-.71-.62-3.59,1.19-4.23.33.22,1.75,3.08,2.2,3.8-.56-3.49-2.95-9.41-2.48-12.69Z" fill="#fff"/>
  <path d="M193.26,133.81c1.57-3.81,4.35-7.39,4.95-11.71.56-4-6.56-14.21-2.77-17.08.68-.21,1.8-.14,2.34.3,3.85,3.17,2.01,6.58-.62,9.12l.07.3c.53-.14,1.52-.55,1.81-.17,2.06,2.67,6.08,6.51,8.03,8.89-1.22,5.45-4.08,11.73-9.23,14.52-2.46-.86-3.2-2.13-4.57-4.18Z" fill="#fff"/>
  <path d="M127.4,141.2c9.76.83,9.4,3.69,14,10.86-2.88,2.94-3.94,4.19-5.96,7.7-4.35-1.82-5.84-1.31-10.05-4.5,1.06-.26,1.25-.27,2.15-.82.35-.91.12-.98.03-2.07l.85-.83.62.72c.73.86,2.42,2.58,3.64,2.14.48-1.98-4.13-8.52-5.48-10.87,1.33,1.16,2.78,1.83,4.35,2.58-.01.44,0,.89,0,1.33.06,1.5,1.48,6.28,3.43,5.92-.72-2.68-3.35-1.13-2.67-7.6l.04-.32c-2.71-.96-4.64-1.02-4.96-4.24Z" fill="#fff"/>
  <path d="M209.98,122.31c.66-.06.43-.11,1.02.17,1.29,4.05-3.99,16.17-6.18,19.89l-2.67-1.58-3.28-2.22c4.58-4.28,8.47-8.98,8.76-15.51.57-.49,1.57-.6,2.35-.76Z" fill="#fff"/>
  <path d="M115.12,129.65l.39.14c1.3,1.42,12.19,15.31,12.26,16.44l-.81.79c-2.06-.87-11.32-13.53-12.83-15.95.05-.78.23-.69.99-1.43Z" fill="#e9e9e8"/>
  <path d="M208.75,337.12c2.2.39,9.4.11,9.98.57.19.96.13,1.07-.06,2.06-2.93.91-6.55.98-9.25-.76-.72-.46-.59-1.07-.67-1.87Z" fill="#fff"/>
  <path d="M180.46,124.49c1.87-.29,3.93-.21,4.72,1.84-.06,2.24-1.68,2.35-3.46,2.81-1.24-.93-1.5-1.1-2.94-1.76,2.52-1.28,2.13.34,3.04.43l.24-1.18c-.92-1.24-3.15.53-4.24,0,.61-1.3,1.37-1.53,2.64-2.12Z" fill="#fff"/>
  <path d="M121.81,136.91c2.24,0,11.74,3.21,12.41,5.11-3.63-1.11-5.12-1.87-8.85-1.02-1.31-1.31-2.49-2.57-3.56-4.09Z" fill="#fff"/>
  <path d="M259.53,337.17c.23-.03.45.04.7.09l.27.41c-.47,3.02-6.3,2.72-8.56,2.62-.79-.02-.46.13-1.06-.3-.09-.73-.18-.87.1-1.55,3.2-.34,5.42-.57,8.56-1.27Z" fill="#fff"/>
  <path d="M196,143.61c-1.01-2.07-3.66-7.09-3.41-9.22,2.09,2.5,2.14,2.92,5.1,4.39-.02.45-1.44,4.12-1.7,4.83Z" fill="#fff"/>
  <path d="M122.32,143.57c1.4.63,4,3.76,4.78,5.07l-.33.85c-2.92-.44-5.87-2.71-4.45-5.93Z" fill="#fff"/>
  <path d="M122.37,148.3c.85.57,1.54,1,2.48,1.43.93.42,2.27.4,2.8,1.18l-.27,1c-2.15.89-5.65-.75-5.02-3.61Z" fill="#fff"/>
  <path d="M128.18,146.78c.54.52,2.68,3.69,2.97,4.56.15.44-.06.55-.34,1.11l-.56.05c-1.02-.67-1.57-1.57-2.32-2.56.03-1.23.02-1.93.25-3.16Z" fill="#fff"/>
  <path d="M122.02,151.16c1.26.59,4.42,1.8,5.17,2.58l-.03.51c-2.47.54-5.06-.13-5.14-3.09Z" fill="#fff"/>
  <path d="M187.67,134.64c-.26,1.22-1.99,2.46-1.73,4.12.05.3,0,.28-.2.53l-.42-.68c-.63-1.01-1.2-2.14-1.77-3.19,1.94-.2,2.22-.2,4.12-.78Z" fill="#fff"/>
  <path d="M127.23,327.33c.07,0,.15-.02.22-.03,3.43-.29,26.96,1.63,28.59,3.21.29.28.19.42.19.78-1.63,1.33-32.56,9.09-36.47,10.1l-31.68,8.27c-11.24,2.83-22.44,6-33.69,8.75-1.69.41-3.57.62-5.31.77-7.68.54-18.69-2.57-26.58-3.06-.96-.06-1.93-.63-2.46-1.45.04-.34,0-.72.26-.84,3.5-1.6,12.94-3.59,16.45-4.44l63.88-15.73c4.98-1.21,9.94-2.47,14.9-3.76,3.61-.93,8.04-2.23,11.69-2.57Z" fill="#e9e9e8"/>
</svg>
