<svg version="1.1" xmlns="http://www.w3.org/2000/svg" style="display: block;" viewBox="0 0 2048 2048" width="1024" height="1024" preserveAspectRatio="none">
<defs>
	<linearGradient id="Gradient1" gradientUnits="userSpaceOnUse" x1="597.413" y1="455.428" x2="581.256" y2="453.746">
		<stop class="stop0" offset="0" stop-opacity="1" stop-color="rgb(3,2,5)"/>
		<stop class="stop1" offset="1" stop-opacity="1" stop-color="rgb(45,39,34)"/>
	</linearGradient>
</defs>
<path transform="translate(0,0)" fill="rgb(255,255,255)" d="M 0 0 L 2048 0 L 2048 2048 L 0 2048 L 0 0 z"/>
<path transform="translate(0,0)" fill="rgb(255,255,255)" d="M 942.005 1037.9 C 940.307 1042.03 940.764 1056.43 940.823 1061.68 L 941.625 1119.23 C 941.754 1130.26 942.368 1142.19 941.126 1153.11 C 939.297 1169.18 933.455 1178.81 917.221 1182.05 C 874.6 1190.57 831.904 1198.3 789.223 1206.3 L 581.481 1245.96 L 461.226 1268.39 C 445.897 1271.26 418.072 1277.63 404.324 1278.55 C 393.593 1279.27 359.98 1277.28 352.985 1268.57 C 347.069 1261.21 344.153 1255.6 344.041 1245.82 C 343.799 1224.92 343.891 1204.06 343.893 1183.23 L 343.909 1064.21 L 344.015 701.845 L 343.921 460.926 L 343.782 383.356 C 343.766 371.12 343.216 352.351 344.16 340.534 C 344.827 333.019 348.062 325.963 353.323 320.555 C 372.349 301.059 466.661 319.2 493.968 323.274 L 607.886 339.696 L 824.455 370.33 C 853.74 374.563 883.242 378.548 912.511 382.899 C 916.987 383.564 927.954 386.02 930.962 389.066 C 935.896 393.958 940.452 400.767 940.805 407.951 C 941.643 425.002 941.121 442.482 941.104 459.577 L 941.045 572.02 L 940.889 927.095 L 939 925.794 C 933.463 922.585 927.881 919.454 922.256 916.401 L 919.82 914.881 C 908.976 909.157 902.705 903.077 890.668 906.429 C 881.591 896.533 878.407 881.202 863.554 867.471 L 862.534 866.543 C 851.194 858.288 840.925 854.155 827.934 849.182 C 819.085 846.235 813.25 845.02 804.079 843.958 C 798.399 835.965 777.973 803.833 767.827 807.282 L 766.87 809.431 C 767.69 819.862 781.488 836.781 787.824 845.747 C 792.349 851.705 796.788 857.727 801.141 863.812 L 808.063 872.638 C 803.334 882.982 806.246 880.171 806.424 889.911 C 806.699 904.958 801.62 916.378 818.226 924.887 C 823.855 927.771 831.25 933.224 837.328 936.497 C 845.871 939.655 853.424 941.858 862.131 944.377 C 861.373 947.673 860.086 952.536 859.603 955.742 C 868.953 969.993 906.821 1012.92 920.648 1019.99 L 922.089 1021.79 C 927.081 1025.89 934.626 1032.43 939.758 1035.83 L 942.005 1037.9 z"/>
<path transform="translate(0,0)" fill="rgb(255,255,255)" d="M 942.005 1037.9 C 940.307 1042.03 940.764 1056.43 940.823 1061.68 L 941.625 1119.23 C 941.754 1130.26 942.368 1142.19 941.126 1153.11 C 939.297 1169.18 933.455 1178.81 917.221 1182.05 C 874.6 1190.57 831.904 1198.3 789.223 1206.3 L 581.481 1245.96 L 461.226 1268.39 C 445.897 1271.26 418.072 1277.63 404.324 1278.55 C 393.593 1279.27 359.98 1277.28 352.985 1268.57 C 347.069 1261.21 344.153 1255.6 344.041 1245.82 C 343.799 1224.92 343.891 1204.06 343.893 1183.23 L 343.909 1064.21 L 344.015 701.845 L 343.921 460.926 L 343.782 383.356 C 343.766 371.12 343.216 352.351 344.16 340.534 C 344.827 333.019 348.062 325.963 353.323 320.555 C 372.349 301.059 466.661 319.2 493.968 323.274 L 607.886 339.696 L 824.455 370.33 C 853.74 374.563 883.242 378.548 912.511 382.899 C 916.987 383.564 927.954 386.02 930.962 389.066 C 935.896 393.958 940.452 400.767 940.805 407.951 C 941.643 425.002 941.121 442.482 941.104 459.577 L 941.045 572.02 L 940.889 927.095 L 939 925.794 C 933.463 922.585 927.881 919.454 922.256 916.401 L 919.82 914.881 C 922.651 906.395 920.575 773.896 920.542 755.657 L 920.458 510.63 C 920.371 483.998 920.516 457.31 920.464 430.735 C 920.447 421.897 919.095 410.333 908.853 408.467 C 892.096 405.413 874.113 403.489 857.248 401.286 L 744.607 386.332 L 525.787 356.899 C 492.267 352.355 458.65 347.161 425.071 342.983 C 419.135 342.655 413.381 341.043 408.13 344.742 C 404.439 347.343 401.801 352.275 401.566 356.763 C 400.413 378.806 401.592 401.755 401.645 423.824 L 401.806 584.893 L 401.781 1055.76 L 401.685 1174.47 C 401.658 1188.84 400.327 1226.36 403.016 1237.94 C 413.898 1250.76 416.616 1246.85 432.129 1244.2 C 441.539 1242.59 451.149 1240.68 460.553 1238.96 L 567.203 1219.62 L 896.629 1160.33 C 901.837 1159.34 911.02 1157.63 915.23 1154.35 C 926.316 1145.71 916.458 1041.22 920.648 1019.99 L 922.089 1021.79 C 927.081 1025.89 934.626 1032.43 939.758 1035.83 L 942.005 1037.9 z"/>
<path transform="translate(0,0)" fill="rgb(149,149,150)" d="M 942.005 1037.9 C 940.307 1042.03 940.764 1056.43 940.823 1061.68 L 941.625 1119.23 C 941.754 1130.26 942.368 1142.19 941.126 1153.11 C 939.297 1169.18 933.455 1178.81 917.221 1182.05 C 874.6 1190.57 831.904 1198.3 789.223 1206.3 L 581.481 1245.96 L 461.226 1268.39 C 445.897 1271.26 418.072 1277.63 404.324 1278.55 C 393.593 1279.27 359.98 1277.28 352.985 1268.57 C 347.069 1261.21 344.153 1255.6 344.041 1245.82 C 343.799 1224.92 343.891 1204.06 343.893 1183.23 L 343.909 1064.21 L 344.015 701.845 L 343.921 460.926 L 343.782 383.356 C 343.766 371.12 343.216 352.351 344.16 340.534 C 344.827 333.019 348.062 325.963 353.323 320.555 C 372.349 301.059 466.661 319.2 493.968 323.274 L 607.886 339.696 L 824.455 370.33 C 853.74 374.563 883.242 378.548 912.511 382.899 C 916.987 383.564 927.954 386.02 930.962 389.066 C 935.896 393.958 940.452 400.767 940.805 407.951 C 941.643 425.002 941.121 442.482 941.104 459.577 L 941.045 572.02 L 940.889 927.095 L 939 925.794 C 940.78 920.951 939.401 882.101 939.376 874.421 L 939.154 727.775 L 939.075 516.009 C 939.085 482.642 939.13 449.126 939.254 415.744 C 939.296 404.337 934.971 389.877 922.056 387.115 C 900.532 382.512 877.724 380.121 855.761 377.148 L 742.354 361.02 L 527.943 330.672 L 435.797 317.693 C 430.121 316.908 422.345 316.008 417.093 314.731 C 403.056 311.321 390.742 314.233 382.117 326.521 C 378.142 332.184 378.17 344.889 377.671 351.747 C 377.258 423.933 377.618 496.21 377.624 568.388 L 377.716 976.077 L 377.728 1161.86 L 377.673 1215.7 C 377.656 1242.24 372.805 1283.11 412.365 1275.55 C 420.883 1273.92 429.482 1272.41 438.009 1270.77 L 768.348 1208.36 L 868.869 1189.34 C 886.119 1186.06 903.484 1182.87 920.633 1179.16 C 942.876 1174.34 939.535 1143.46 939.472 1125.87 L 939.203 1069.48 C 939.154 1059.83 938.725 1045.1 939.758 1035.83 L 942.005 1037.9 z"/>
<path transform="translate(0,0)" fill="rgb(233,233,232)" d="M 388.353 314.448 C 388.806 316.03 385.462 318.465 383.586 320.601 C 377.556 327.47 375.076 338.498 375.045 347.496 C 374.975 368.49 375.048 389.614 375.066 410.614 L 375.162 536 L 375.099 909.394 L 375.294 1129.35 L 375.183 1201.54 C 375.173 1217.12 374.934 1233.18 376.039 1248.7 C 376.884 1260.58 380.266 1266.86 388.174 1275.23 C 378.758 1274.24 371.499 1274.15 361.982 1272.35 C 350.667 1267.61 346.567 1257.86 346.352 1245.94 C 346.03 1228.01 346.208 1210.01 346.22 1192.08 L 346.198 1091.75 L 346.224 765.425 L 346.203 484.579 L 346.112 392.811 C 346.098 376.787 345.89 360.433 346.29 344.414 C 346.478 336.914 348.881 328.513 354.12 322.889 C 362.508 313.881 376.747 314.768 388.353 314.448 z"/>
<path transform="translate(0,0)" fill="rgb(149,149,150)" d="M 415.777 1249.78 C 404.743 1245.54 399.521 1240.25 399.324 1227.66 C 399.036 1209.31 399.213 1190.92 399.232 1172.57 L 399.461 1063.25 L 399.66 770.734 L 399.336 497.483 C 399.193 451.313 398.791 405.095 399.089 358.933 C 399.26 332.497 429.291 341.348 445.722 343.505 L 500.111 350.797 L 651.283 371.368 L 825.123 394.541 C 852.221 398.123 879.36 401.476 906.421 405.293 C 916.429 406.705 922.267 415.362 922.493 425.044 C 923.165 453.826 922.933 482.7 922.959 511.501 L 922.899 687.077 L 922.895 834.864 C 922.926 856.715 924.153 895.634 922.256 916.401 L 919.82 914.881 C 922.651 906.395 920.575 773.896 920.542 755.657 L 920.458 510.63 C 920.371 483.998 920.516 457.31 920.464 430.735 C 920.447 421.897 919.095 410.333 908.853 408.467 C 892.096 405.413 874.113 403.489 857.248 401.286 L 744.607 386.332 L 525.787 356.899 C 492.267 352.355 458.65 347.161 425.071 342.983 C 419.135 342.655 413.381 341.043 408.13 344.742 C 404.439 347.343 401.801 352.275 401.566 356.763 C 400.413 378.806 401.592 401.755 401.645 423.824 L 401.806 584.893 L 401.781 1055.76 L 401.685 1174.47 C 401.658 1188.84 400.327 1226.36 403.016 1237.94 C 413.898 1250.76 416.616 1246.85 432.129 1244.2 C 441.539 1242.59 451.149 1240.68 460.553 1238.96 L 567.203 1219.62 L 896.629 1160.33 C 901.837 1159.34 911.02 1157.63 915.23 1154.35 C 926.316 1145.71 916.458 1041.22 920.648 1019.99 L 922.089 1021.79 C 920.584 1041.48 927.343 1140.94 918.644 1152.8 C 915.47 1157.13 911.039 1159.11 905.988 1160.44 C 887.206 1165.38 867.134 1167.75 847.966 1171.11 L 749.103 1188.87 C 638.885 1208.6 525.387 1228.45 415.777 1249.78 z"/>
<path transform="translate(0,0)" fill="rgb(233,233,232)" d="M 837.328 936.497 C 845.871 939.655 853.424 941.858 862.131 944.377 C 861.373 947.673 860.086 952.536 859.603 955.742 C 808.228 957.713 752.239 962.2 700.745 965.349 L 543.094 974.025 L 543.328 954.267 C 592.805 953.512 646.581 949.178 696.498 946.909 L 779.618 942.804 C 796.892 942.026 814.477 941.255 831.751 940.164 C 835.554 939.924 834.709 939.779 837.328 936.497 z"/>
<path transform="translate(0,0)" fill="rgb(233,233,232)" d="M 787.824 845.747 C 792.349 851.705 796.788 857.727 801.141 863.812 C 792.823 865.887 738.124 866.972 726.188 867.008 C 667.507 867.394 602.109 869.883 543.2 872.035 L 543.303 852.568 C 599.614 853.017 663.828 849.494 721.019 848.6 C 732.061 848.221 782.289 849.224 787.824 845.747 z"/>
<path transform="translate(0,0)" fill="rgb(233,233,232)" d="M 827.934 849.182 C 833.955 845.558 857.526 845.884 866.21 845.224 C 866.282 854.132 867.792 860.12 862.534 866.543 C 851.194 858.288 840.925 854.155 827.934 849.182 z"/>
<path transform="translate(0,0)" fill="rgb(233,233,232)" d="M 864.024 1032.43 C 866.348 1032.3 865.294 1031.98 867.171 1033.43 C 868.338 1038.32 867.823 1044.46 867.699 1049.62 C 842.917 1052.55 814.427 1054.28 789.265 1056.46 L 631.874 1069.88 C 605.383 1072.12 572.496 1073.82 546.805 1077.46 C 544.351 1077.24 545.448 1077.66 543.496 1076.26 C 542.268 1070.58 542.907 1064.05 543.125 1058.13 C 568.532 1054.25 608.624 1052.69 635.605 1050.39 L 864.024 1032.43 z"/>
<path transform="translate(0,0)" fill="rgb(233,233,232)" d="M 543.655 542.419 C 585.85 546.297 629.455 548.589 671.775 551.381 C 736.761 555.957 801.769 560.199 866.798 564.107 L 866.732 581.178 C 828.332 581.417 772.767 576.485 733.751 573.817 L 542.875 561.588 C 542.831 556.129 542.397 547.42 543.655 542.419 z"/>
<path transform="translate(0,0)" fill="rgb(233,233,232)" d="M 542.908 749.916 C 650.062 752.183 759.58 752.286 866.969 753.222 L 867.013 770.93 C 823.478 771.469 780.203 769.698 736.747 769.959 C 672.179 770.347 607.508 769.038 542.973 769.748 L 542.908 749.916 z"/>
<path transform="translate(0,0)" fill="rgb(233,233,232)" d="M 543.127 646.138 C 578.367 646.499 613.292 649.345 648.415 650.638 L 866.978 658.065 C 867.085 664.322 867.065 669.285 866.738 675.539 C 818.115 674.81 769.505 673.363 720.925 671.198 L 543.238 664.75 L 543.127 646.138 z"/>
<path transform="translate(0,0)" fill="rgb(233,233,232)" d="M 727.254 1079.41 C 729.25 1079.09 734.774 1078.9 737.056 1078.76 L 737.705 1096.75 L 555.761 1114.17 C 552.224 1114.72 547.343 1114.89 543.673 1115.12 C 543.135 1109.27 543.002 1102.09 542.747 1096.13 C 567.891 1094.29 593.78 1091.26 618.998 1088.94 L 727.254 1079.41 z"/>
<path transform="translate(0,0)" fill="rgb(233,233,232)" d="M 713.13 982.422 C 719.827 981.724 728.924 981.995 735.864 982.009 L 737.225 999.611 L 618.585 1007.54 C 607.767 1008.17 578.206 1008.19 568.93 1010.02 C 560.39 1010.87 552.189 1011.29 543.635 1011.75 C 543.082 1006.58 543.109 998.556 542.996 993.166 C 557.097 993.045 577.689 990.991 592.517 990.099 L 713.13 982.422 z"/>
<path transform="translate(0,0)" fill="rgb(233,233,232)" d="M 708.237 885.587 C 717.667 885.153 727.306 884.949 736.759 884.646 L 737.14 903.01 C 682.63 905.077 627.002 907.629 572.552 909.068 C 563.058 909.543 553.556 909.843 544.05 909.968 L 543.906 891.311 C 597.842 889.601 654.423 888.034 708.237 885.587 z"/>
<path transform="translate(0,0)" fill="rgb(233,233,232)" d="M 542.332 580.789 C 553.518 582.478 579.331 583.137 592.192 583.976 C 640.034 587.098 688.279 589.068 736.226 591.581 L 736.256 609.212 C 673.653 609.303 605.447 602.299 542.547 599.974 L 542.332 580.789 z"/>
<path transform="translate(0,0)" fill="rgb(233,233,232)" d="M 609.445 788.524 C 651.457 787.436 693.713 788.505 735.843 787.928 L 736.004 805.935 C 713.313 805.778 689.864 806.878 666.81 806.908 C 626.246 807.228 584.177 808.161 543.769 807.264 L 543.878 789.002 L 609.445 788.524 z"/>
<path transform="translate(0,0)" fill="rgb(233,233,232)" d="M 543.135 684.949 C 592.64 684.959 642.442 688.147 691.976 688.511 C 706.586 688.618 721.738 688.896 736.279 690.095 L 736.552 707.189 C 730.024 707.569 721.705 707.317 715.086 707.14 C 657.948 705.616 600.308 705.703 543.246 703.497 L 543.135 684.949 z"/>
<path transform="translate(0,0)" fill="rgb(255,255,255)" d="M 513.303 850.003 C 515.19 847.369 516.192 845.184 519.163 844.238 C 521.902 847.923 516.254 854.532 514.252 857.939 C 515.893 860.741 515.158 905.932 515.232 913.001 C 498.421 913.286 481.882 914.008 464.922 914.177 C 464.878 893.136 464.941 872.096 465.11 851.056 C 480.897 851.033 497.453 850.37 513.303 850.003 z"/>
<path transform="translate(0,0)" fill="rgb(0,0,0)" d="M 513.303 850.003 C 515.19 847.369 516.192 845.184 519.163 844.238 C 521.902 847.923 516.254 854.532 514.252 857.939 L 513.485 859.169 C 503.002 874.058 494.822 889.926 484.721 904.12 C 481.306 897.059 473.736 881.241 474.23 873.72 C 478.459 875.408 483.431 888.29 485.564 893.038 L 511.918 852.013 L 513.303 850.003 z"/>
<path transform="translate(0,0)" fill="rgb(149,149,150)" d="M 465.11 851.056 C 480.897 851.033 497.453 850.37 513.303 850.003 L 511.918 852.013 C 496.828 852.004 482.172 852.43 467.121 852.685 L 467.093 912.223 C 482.482 911.578 497.878 911.088 513.278 910.754 C 513.544 902.233 514.969 865.223 513.485 859.169 L 514.252 857.939 C 515.893 860.741 515.158 905.932 515.232 913.001 C 498.421 913.286 481.882 914.008 464.922 914.177 C 464.878 893.136 464.941 872.096 465.11 851.056 z"/>
<path transform="translate(0,0)" fill="rgb(255,255,255)" d="M 513.406 641.824 C 515.182 639.101 516.223 636.575 519.133 635.603 C 521.855 639.384 516.538 645.482 514.187 648.638 C 515.618 656.298 514.944 694.181 514.894 704.453 C 498.278 704.149 481.627 703.396 464.979 703.011 C 464.745 681.973 464.743 660.934 464.973 639.896 C 480.406 640.538 498.48 640.305 513.406 641.824 z"/>
<path transform="translate(0,0)" fill="rgb(0,0,0)" d="M 513.406 641.824 C 515.182 639.101 516.223 636.575 519.133 635.603 C 521.855 639.384 516.538 645.482 514.187 648.638 L 512.711 651.023 C 503.297 664.102 495.486 678.583 486.205 690.976 L 484.883 690.96 C 481.34 686.424 472.505 666.72 473.78 661.449 L 475.109 661.629 C 479.582 667.029 483.17 676.214 486.124 682.817 C 494.368 669.483 502.893 656.325 511.694 643.352 L 513.406 641.824 z"/>
<path transform="translate(0,0)" fill="rgb(149,149,150)" d="M 464.973 639.896 C 480.406 640.538 498.48 640.305 513.406 641.824 L 511.694 643.352 C 497.111 643.107 481.251 641.923 466.966 641.989 C 466.874 661.501 467.21 681.372 467.028 700.788 C 480.359 700.872 499.733 701.344 512.889 702.796 C 513.034 690.002 513.961 662.649 512.711 651.023 L 514.187 648.638 C 515.618 656.298 514.944 694.181 514.894 704.453 C 498.278 704.149 481.627 703.396 464.979 703.011 C 464.745 681.973 464.743 660.934 464.973 639.896 z"/>
<path transform="translate(0,0)" fill="rgb(255,255,255)" d="M 513.847 746.873 C 515.57 743.725 517.099 740.062 519.981 738.164 L 521.703 738.539 L 522.547 740.01 C 520.609 746.248 516.209 750.932 513.18 756.91 C 513.27 757.25 513.359 757.589 513.449 757.929 L 513.826 759.511 C 515.607 766.826 515.096 800.351 515.112 809.044 C 498.686 809.47 481.686 809.325 465.211 809.388 C 464.345 789.92 464.917 765.407 465.272 745.964 C 481.461 746.376 497.653 746.679 513.847 746.873 z"/>
<path transform="translate(0,0)" fill="rgb(0,0,0)" d="M 513.847 746.873 C 515.57 743.725 517.099 740.062 519.981 738.164 L 521.703 738.539 L 522.547 740.01 C 520.609 746.248 516.209 750.932 513.18 756.91 L 511.855 759.098 C 502.997 771.651 494.024 787.874 485.08 799.223 C 481.471 792.244 474.144 776.497 474.472 768.848 L 475.77 769.035 C 480.3 774.315 483.162 781.755 486.055 788.204 C 495.163 775.658 503.709 762.064 512.169 749.016 L 513.847 746.873 z"/>
<path transform="translate(0,0)" fill="rgb(149,149,150)" d="M 465.272 745.964 C 481.461 746.376 497.653 746.679 513.847 746.873 L 512.169 749.016 C 498.028 747.622 481.446 748.013 467.041 748.051 L 467.124 806.889 L 513.005 806.858 C 513.114 799.255 514.37 763.307 511.855 759.098 L 513.18 756.91 C 513.27 757.25 513.359 757.589 513.449 757.929 L 513.826 759.511 C 515.607 766.826 515.096 800.351 515.112 809.044 C 498.686 809.47 481.686 809.325 465.211 809.388 C 464.345 789.92 464.917 765.407 465.272 745.964 z"/>
<path transform="translate(0,0)" fill="rgb(149,149,150)" d="M 500.46 953.583 C 505.142 953.202 510.184 953.111 514.907 952.93 C 515.197 973.609 515.046 994.578 515.074 1015.28 C 502.423 1016.64 489.926 1016.62 477.239 1017.83 L 465.209 1018.19 C 464.985 997.262 464.98 976.33 465.195 955.401 C 476.754 954.539 488.61 954.484 500.46 953.583 z"/>
<path transform="translate(0,0)" fill="rgb(255,255,255)" d="M 504.941 955.416 C 508.274 954.961 509.184 954.574 512.333 955.849 C 513.853 962.638 513.074 1004.1 513.028 1013.56 C 501.096 1014.17 488.683 1014.6 476.831 1015.78 C 473.53 1015.96 470.363 1016.62 467.681 1015.02 C 466.393 1008.47 467.024 966.491 467.044 957.223 C 480.453 956.952 491.604 956.679 504.941 955.416 z"/>
<path transform="translate(0,0)" fill="rgb(149,149,150)" d="M 465.01 533.528 C 478.196 534.047 502.32 534.907 514.744 537.385 C 515.277 557.587 515.006 578.666 514.954 598.927 C 499.843 598.916 480.363 597.081 464.966 595.889 L 465.01 533.528 z"/>
<path transform="translate(0,0)" fill="rgb(255,255,255)" d="M 466.946 535.733 C 479.844 536.383 500.713 536.917 513.062 539.167 L 512.927 596.84 C 503.138 597.366 479.435 594.94 466.993 594.73 L 466.946 535.733 z"/>
<path transform="translate(0,0)" fill="rgb(149,149,150)" d="M 502.231 1057.58 C 506.324 1057.2 510.853 1057.08 514.995 1056.88 C 515.397 1076.87 514.998 1098.63 514.973 1118.75 C 502.262 1120.38 489.045 1121.48 476.243 1122.71 L 465.064 1123.27 C 464.885 1102.61 464.923 1081.94 465.18 1061.28 C 476.355 1059.65 490.75 1058.66 502.231 1057.58 z"/>
<path transform="translate(0,0)" fill="rgb(255,255,255)" d="M 506.917 1059.45 C 508.555 1059.18 509.837 1059.29 511.515 1059.3 C 513.922 1061.9 513.291 1109.01 513.359 1116.7 C 502.559 1118.59 484.521 1119.82 473.238 1120.88 L 468.54 1120.69 C 465.829 1117.38 467.014 1071.44 467.023 1062.95 C 477.531 1061.31 495.717 1060.4 506.917 1059.45 z"/>
<path transform="translate(0,0)" fill="rgb(0,0,0)" d="M 462.201 422.613 C 485.928 423.594 497.808 438.396 485.187 460.365 C 478.196 466.528 471.14 465.174 462.147 464.803 C 462.306 450.816 462.189 436.619 462.201 422.613 z"/>
<path transform="translate(0,0)" fill="rgb(255,255,255)" d="M 467.012 426.353 C 485.163 430.188 490.5 441.297 481.982 457.974 C 477.444 460.892 473.393 462.579 468.543 459.827 C 464.56 452.709 466.68 435.818 467.012 426.353 z"/>
<path transform="translate(0,0)" fill="rgb(0,0,0)" d="M 804.866 457.849 C 825.829 458.708 828.447 488.308 812.247 497.735 C 791.024 497.017 788.608 467.628 804.866 457.849 z"/>
<path transform="translate(0,0)" fill="rgb(255,255,255)" d="M 804.279 461.809 C 822.467 460.284 820.979 483.518 812.407 493.467 C 794.697 492.966 795.256 472.428 804.279 461.809 z"/>
<path transform="translate(0,0)" fill="rgb(0,0,0)" d="M 637.317 440.39 C 652.466 441.088 666.197 449.79 650.878 462.94 C 654.04 470.354 655.497 472.501 655.964 480.577 L 655.081 481.499 C 652.488 479.502 652.125 477.426 650.976 474.319 C 649.277 469.337 648.621 465.257 643.335 463.253 L 641.666 464.302 C 639.761 469.126 640.471 474.375 639.771 479.945 L 638.019 480.636 L 636.642 479.72 C 635.869 477.034 636.829 444.508 637.317 440.39 z"/>
<path transform="translate(0,0)" fill="rgb(255,255,255)" d="M 640.407 444.507 C 651.532 445.365 654.22 448.187 650.823 459.394 C 646.585 460.334 644.446 461.305 640.978 458.436 C 639.412 454.584 640.19 448.869 640.407 444.507 z"/>
<path transform="translate(0,0)" fill="rgb(0,0,0)" d="M 505.181 426.172 C 511.617 428.769 512.725 442.594 514.834 448.973 C 516.142 452.929 520.532 466.642 519.433 469.251 L 517.541 469.316 C 512.945 464.974 515.169 458.805 510.716 455.431 L 499.777 455.53 C 498.349 459.797 497.445 466.415 492.705 466.805 L 491.961 465.532 C 494.77 453.782 500.875 437.71 505.181 426.172 z"/>
<path transform="translate(0,0)" fill="rgb(255,255,255)" d="M 505.422 434.767 C 507.332 436.955 510.007 445.966 509.777 449.232 C 509.607 451.636 509.931 450.451 507.609 452.514 C 504.994 451.947 504.426 452.099 502.335 450.547 C 501.208 445.709 503.84 439.819 505.422 434.767 z"/>
<path transform="translate(0,0)" fill="rgb(0,0,0)" d="M 554.821 431.501 C 560.686 433.652 567.625 465.666 569.714 472.825 L 568.555 473.869 C 560.957 473.169 566.546 465.008 560.085 460.798 C 555.741 460.431 554.415 460.369 550.099 460.707 C 548.053 464.353 545.406 469.916 542.082 471.843 L 541.449 469.524 C 546.057 460.48 549.148 442.515 554.821 431.501 z"/>
<path transform="translate(0,0)" fill="rgb(255,255,255)" d="M 555.331 439.692 C 557.071 442.662 560.622 452.405 559.994 456.078 L 557.957 457.157 C 553.707 456.748 553.67 457.483 551.173 455.213 C 550.49 450.826 553.641 444.409 555.331 439.692 z"/>
<path transform="translate(0,0)" fill="rgb(0,0,0)" d="M 745.851 450.277 C 746.777 450.867 748.3 451.77 748.732 452.65 C 751.802 458.895 759.633 485.979 758.939 491.272 L 757.459 491.695 C 754.634 488.816 754.851 483.149 751.768 479.004 C 747.339 478.844 746.329 478.698 742.072 479.564 C 739.379 482.729 737.816 485.727 735.743 489.284 L 735.559 487.107 L 735.759 488.724 L 736.877 486.2 L 735.749 485.445 C 737.265 475.232 742.652 460.682 745.851 450.277 z"/>
<path transform="translate(0,0)" fill="rgb(255,255,255)" d="M 746.377 460.645 C 748.878 463.039 751.064 472.241 749.411 475.687 C 745.02 474.961 746.532 475.946 743.695 473.635 C 742.673 469.859 745.056 464.633 746.377 460.645 z"/>
<path transform="translate(0,0)" fill="rgb(0,0,0)" d="M 828.511 460.213 C 835.447 462.047 843.787 486.655 846.727 493.566 C 846.499 484.8 846.092 472.806 847.609 464.228 L 848.379 464.233 C 851.182 473.695 850.332 486.728 849.961 496.749 C 849.84 500.028 849.42 499.642 847.308 501.339 C 844.287 497.623 833.843 473.571 831.281 467.921 C 831.206 476.246 832.812 491.624 830.488 498.775 L 829.188 499.165 C 826.742 492.896 827.673 467.674 828.511 460.213 z"/>
<path transform="translate(0,0)" fill="rgb(0,0,0)" d="M 612.099 438.047 C 618.453 438.266 622.835 437.831 628.441 440.804 L 628.341 442.127 C 624.198 443.723 620.454 442.849 615.913 442.413 L 616.116 456.049 C 620.47 455.943 623.521 455.568 627.732 456.802 L 628.562 458.546 C 625.962 460.617 621.912 459.507 617.017 459.999 C 615.382 462.255 615.673 466.71 615.459 470.006 L 615.489 473.585 C 621.223 476.916 627.35 471.745 630.544 478.2 L 629.698 479.567 C 623.725 479.249 617.753 478.891 611.785 478.493 C 612.256 464.941 612.151 451.604 612.099 438.047 z"/>
<path transform="translate(0,0)" fill="rgb(0,0,0)" d="M 716.673 449.086 C 722.621 448.415 725.979 448.435 731.475 451.337 L 731.137 452.73 L 728.849 454.015 C 710.196 452.121 708.781 460.214 714.154 478.607 C 715.054 481.691 720.299 483.912 723.413 484.758 C 727.019 484.397 729.085 483.52 731.57 486.088 L 730.651 487.621 C 709.555 496.674 698.782 463.962 716.673 449.086 z"/>
<path transform="translate(0,0)" fill="rgb(0,0,0)" d="M 517.759 429.291 L 518.365 429.211 C 522.885 428.554 539.376 428.95 542.699 431.595 L 542.755 433.774 C 539.517 436.259 539.732 434.16 533.794 434.778 C 531.816 438.948 532.595 454.048 532.666 459.5 C 532.75 463.955 533.517 467.252 530.993 470.281 L 528.499 469.987 C 526.728 464.536 530.417 441.16 527.515 434.703 C 526.25 431.888 522.285 435.547 517.759 429.291 z"/>
<path transform="translate(0,0)" fill="rgb(0,0,0)" d="M 674.855 443.69 C 681.588 444.974 684.329 443.79 690.678 446.927 L 690.707 448.098 C 686.847 449.551 683.226 449.004 679.022 448.852 L 678.847 462.842 C 682.19 462.766 688.558 462.256 690.208 465.629 L 689.607 466.504 L 686.745 466.427 C 671.268 466.317 682.111 475.269 678.123 484.287 L 676.15 483.996 C 674.167 481.338 674.859 449.411 674.855 443.69 z"/>
<path transform="translate(0,0)" fill="rgb(0,0,0)" d="M 757.523 453.285 C 762.571 452.966 777.706 452.716 780.488 457.031 L 779.107 458.847 C 776.376 458.854 774.895 458.634 772.373 459.732 C 770.892 464.724 771.324 476.92 771.316 482.75 C 771.45 487.05 771.593 488.196 770.779 492.337 L 769.47 493.179 C 764.692 487.469 769.68 465.644 766.987 458.701 C 766.361 457.088 761.535 459.595 757.523 453.285 z"/>
<path transform="translate(0,0)" fill="url(#Gradient1)" d="M 598.333 471.473 C 596.664 474.436 597.278 474.165 594.66 475.909 L 592.872 475.241 C 588.641 469.845 582.183 441.344 582.254 435.526 L 583.477 435.094 C 587.805 437.831 592.146 460.149 594.213 467.027 L 595.35 467.606 L 598.333 471.473 z"/>
<path transform="translate(0,0)" fill="rgb(0,0,0)" d="M 664.039 442.287 L 666.157 443.326 C 668.291 448.371 667.081 477.079 665.874 483.515 L 664.07 482.473 C 661.815 477.954 662.817 448.133 664.039 442.287 z"/>
<path transform="translate(0,0)" fill="rgb(0,0,0)" d="M 698.631 446.241 C 700.358 447.107 701.179 447.011 701.447 448.533 C 702.756 455.968 703.179 481.351 700.478 487.555 C 699.836 486.669 699.194 485.782 698.552 484.895 C 698.083 475.764 698.484 453.982 698.631 446.241 z"/>
<path transform="translate(0,0)" fill="rgb(0,0,0)" d="M 786.108 454.522 L 788.342 455.783 C 790.137 460.94 789.563 490.069 787.562 495.763 C 786.897 495.175 786.089 494.09 785.494 493.364 C 785.391 484.839 784.812 461.656 786.108 454.522 z"/>
<path transform="translate(0,0)" fill="rgb(0,0,0)" d="M 595.35 467.606 C 597.737 458.638 600.847 444.739 606.033 437.458 C 608.598 443.614 597.759 465.263 598.333 471.473 L 595.35 467.606 z"/>
<path transform="translate(0,0)" fill="rgb(0,0,0)" d="M 1021.25 643.887 C 1029.36 627.658 1032.32 632.547 1044.49 634.121 C 1046.16 634.337 1052.55 624.702 1055.24 624.378 C 1070.89 615.348 1072.9 630.255 1083.59 633.002 L 1090.15 631.161 C 1107.94 626.063 1109.11 638.211 1113.26 647.513 C 1114.11 649.415 1131.42 649.541 1131.67 659.979 C 1132.66 664.061 1130.39 669.039 1132.19 672.798 C 1145.75 682.63 1144.69 681.786 1142.78 698.393 C 1142.2 703.446 1152.99 700.888 1148.3 718.381 C 1142.74 739.1 1159.59 736.734 1132.35 754.531 C 1140.63 766.74 1150.78 777.569 1162.43 786.62 C 1199.77 776.748 1242.89 781.524 1276.49 800.922 C 1346.8 841.52 1390.5 959.886 1409.98 1034.51 C 1414.19 1050.61 1434.18 1138.74 1427.46 1151.09 C 1426.27 1153.26 1423.59 1155.81 1422.94 1158.09 C 1421.32 1163.83 1422.53 1183.65 1422.23 1191.13 C 1421.65 1204.36 1420.48 1217.56 1418.72 1230.68 C 1410.47 1294.86 1395.07 1359.64 1388.98 1424.07 C 1386.92 1445.86 1390.3 1471.58 1390.19 1493.54 C 1391.39 1552.82 1398.57 1613.44 1398.09 1672.6 C 1394.07 1674.28 1388.92 1676.61 1384.86 1677.87 C 1386.01 1688.76 1397.52 1715.2 1393.54 1722.55 C 1381.58 1732.4 1301.11 1759.71 1288.35 1747.78 C 1283.28 1730.33 1340.25 1706.27 1341.11 1688.72 C 1335.89 1681.61 1326.76 1685.37 1324.11 1678.92 C 1318.36 1664.91 1314.58 1647.48 1310.62 1632.83 C 1300.33 1595.1 1290.58 1557.21 1281.39 1519.19 C 1269.37 1469.21 1262.56 1436.81 1260.98 1384.88 L 1258.73 1380.21 C 1254.04 1396 1247.1 1418.77 1244.65 1434.6 C 1241.2 1456.92 1240.15 1483.87 1238.7 1506.66 L 1231.37 1620.18 C 1230.04 1638.99 1228.94 1660.17 1226.63 1678.75 L 1212.96 1679.58 C 1212.58 1693.01 1217.16 1707.47 1215.6 1720.58 C 1215.31 1723.01 1215.05 1725.25 1212.88 1726.71 C 1203.52 1732.99 1124.06 1735.82 1110.53 1733.47 C 1107.26 1732.9 1103.8 1732.43 1101.79 1729.54 C 1097.18 1707.57 1174.55 1699.29 1163.96 1679.71 C 1160.42 1676.95 1157.35 1677 1152.84 1676.34 C 1145.14 1625.67 1138.66 1574.82 1133.41 1523.83 C 1128.84 1482.47 1123.12 1438.02 1127.48 1396.56 C 1135.05 1324.47 1149.09 1253.02 1159.88 1181.38 C 1144.88 1166.95 1151.89 1138.67 1151.86 1119.86 C 1151.84 1109.63 1151.24 1105.07 1149.54 1094.82 C 1123.11 1072.22 1112.32 1059.07 1092.73 1030.57 C 1037.19 1090.44 1002.97 1081.88 942.005 1037.9 L 939.758 1035.83 C 934.626 1032.43 927.081 1025.89 922.089 1021.79 L 920.648 1019.99 C 906.821 1012.92 868.953 969.993 859.603 955.742 C 860.086 952.536 861.373 947.673 862.131 944.377 C 853.424 941.858 845.871 939.655 837.328 936.497 C 831.25 933.224 823.855 927.771 818.226 924.887 C 801.62 916.378 806.699 904.958 806.424 889.911 C 806.246 880.171 803.334 882.982 808.063 872.638 L 801.141 863.812 C 796.788 857.727 792.349 851.705 787.824 845.747 C 781.488 836.781 767.69 819.862 766.87 809.431 L 767.827 807.282 C 777.973 803.833 798.399 835.965 804.079 843.958 C 813.25 845.02 819.085 846.235 827.934 849.182 C 840.925 854.155 851.194 858.288 862.534 866.543 L 863.554 867.471 C 878.407 881.202 881.591 896.533 890.668 906.429 C 902.705 903.077 908.976 909.157 919.82 914.881 L 922.256 916.401 C 927.881 919.454 933.463 922.585 939 925.794 L 940.889 927.095 C 960.366 937.702 979.289 949.997 998.814 960.341 C 1011.25 944.283 1022.49 926.948 1033.53 909.909 C 1014.83 880.664 1017.32 874.808 1039.27 850.112 C 1042.08 846.942 1041.94 847.03 1045.83 844.695 C 1040.48 818.407 1037.15 813.434 1022.78 790.221 C 1014.69 777.145 1002.24 748.685 999.221 733.73 C 993.316 732.43 988.733 731.926 985.391 726.235 C 984.052 723.96 983.215 721.426 982.935 718.802 C 975.696 714.986 967.222 709.863 964.791 702.093 C 962.501 694.773 970.757 688.268 972.733 682.19 C 973.748 679.069 971.614 672.019 972.706 668.719 C 974.264 663.802 978.047 660.128 983.018 659.155 C 987.145 658.347 993.609 658.857 995.2 654.471 C 1000.75 639.182 1004.46 639.599 1021.25 643.887 z"/>
<path transform="translate(0,0)" fill="rgb(233,233,232)" d="M 1253.41 1273.17 C 1249.84 1267.76 1235.67 1254 1235 1249.93 C 1243.2 1256.65 1248.82 1263.31 1255.93 1271.24 C 1258.36 1307.11 1260.73 1349.18 1260.98 1384.88 L 1258.73 1380.21 C 1256.79 1345.12 1254.54 1308.3 1253.41 1273.17 z"/>
<path transform="translate(0,0)" fill="rgb(255,255,255)" d="M 1189.24 785.434 C 1214.56 783.855 1247.54 788.738 1270.46 801.639 C 1339.47 840.474 1375.34 935.503 1399 1007.81 C 1406.41 1030.44 1430.98 1130.5 1423.11 1153.01 C 1395.56 1169.22 1360.31 1179.09 1329.53 1186.9 C 1274.73 1200.81 1213.91 1198.87 1161.54 1177.41 C 1149.19 1172.35 1155.41 1132.27 1155.23 1121.14 C 1155.09 1112.23 1154.45 1106.35 1152.71 1097.15 C 1180.9 1117.01 1211.18 1113.65 1236.46 1091.04 C 1271.87 1059.36 1288.09 1009.18 1301.74 964.916 C 1304.4 956.279 1309.26 939.524 1309.83 930.892 L 1308.85 929.832 C 1305.75 932.387 1303.2 946.741 1302.02 951.31 C 1295.05 978.37 1285.76 1004.81 1274.4 1030.3 C 1272.45 1034.41 1270.45 1038.49 1268.4 1042.54 C 1249.09 1080.35 1209.06 1125.3 1164.08 1100.18 C 1121.02 1076.14 1064.29 989.45 1050.02 943.073 C 1050.42 942.298 1050.83 941.526 1051.25 940.758 C 1061.57 922.053 1082.57 911.698 1102.32 906.197 C 1109.38 911.751 1120.02 923.604 1126.34 930.357 C 1139.29 944.32 1152.34 958.175 1165.51 971.92 C 1172.22 978.825 1181.39 988.51 1189.38 993.309 L 1188.9 992.628 L 1188.09 991.508 C 1183.49 985.046 1180.35 982.137 1174.7 976.462 C 1181.3 952.257 1194.82 896.115 1197.14 872.646 L 1196.64 872.424 C 1191.82 883.338 1187.35 907.864 1184.62 920.649 C 1180.96 938.541 1176.73 956.314 1171.95 973.94 C 1156.88 955.589 1124.81 924.635 1107.36 906.331 C 1105.88 904.78 1099.08 904.016 1096.53 903.721 L 1095.02 903.554 C 1093.91 900.818 1095.27 890.45 1095.11 886.443 C 1094.83 879.478 1092.47 844.361 1089.86 840 C 1087.1 839.064 1087.74 839.447 1085.34 837.904 C 1086.67 835.574 1094.03 830.909 1096.73 828.998 C 1097.77 839.035 1106.97 878.487 1117.26 878.651 C 1119.01 876.501 1124.04 861.416 1125.46 857.641 C 1133.55 861.93 1145.22 869.835 1153.6 874.798 C 1165.87 853.464 1177.7 827.076 1179.91 802.163 C 1180.35 797.208 1180.99 792.481 1182.02 787.612 C 1184.38 785.227 1184.92 785.961 1189.24 785.434 z"/>
<path transform="translate(0,0)" fill="rgb(255,255,255)" d="M 896.277 908.725 C 913.807 909.426 992.139 965.031 1014.43 972.099 C 1010.65 968.803 1005.96 965.281 1001.98 962.127 C 1009.72 949.123 1026.26 926.303 1035.27 912.558 C 1041.19 919.728 1045.98 925.271 1052.43 931.949 C 1050.01 935.793 1048.35 939.564 1046.41 943.652 C 1053.82 962.408 1062.56 980.613 1072.55 998.129 C 1076.96 1005.79 1086.82 1019.92 1090.11 1027.5 L 1088.47 1030.79 C 1075.76 1043.59 1064.12 1053.42 1047.77 1062.12 C 1030.44 1071.35 1016.96 1071.34 998.255 1066.44 C 963.289 1057.27 878.08 984.824 862.811 954.243 C 869.743 934.11 880.504 922.129 896.277 908.725 z"/>
<path transform="translate(0,0)" fill="rgb(255,255,255)" d="M 1054.83 689.653 C 1062.6 694.987 1061.56 696.228 1071.23 695.518 L 1072.64 695.401 C 1081.05 701.345 1066.31 710.395 1089.98 717.007 C 1095.24 735.249 1103.64 761.879 1093.68 779.287 C 1084.65 795.057 1070.62 783.981 1058.96 783.583 C 1057.5 783.533 1040.84 788.511 1038.19 789.3 L 1037.36 788.659 L 1041.88 786.035 L 1042.04 784.712 C 1038.27 782.861 1038.79 784.874 1032.7 785.238 C 1026.39 779.64 1033.28 753.567 1025.75 747.708 L 1024.57 749.832 C 1026.75 762.572 1026.75 774.084 1026.82 786.894 C 1031.46 787.992 1034.04 787.619 1035.28 792.359 L 1033.9 793.967 L 1031.39 794.158 C 1029.56 793.474 1026.99 792.445 1026.08 790.66 C 1019.2 777.207 1012.17 761.901 1005.8 748.346 C 1011.39 741.961 1013.85 742.266 1016.33 733.215 L 1015.02 732.328 C 1010.25 734.019 1007.5 737.774 1004.25 741.504 C 1000.16 729.714 999.995 723.057 999.811 710.579 C 1017.13 713.908 1022.74 711.255 1033.67 698.135 C 1044.39 700.196 1048.06 697.419 1054.83 689.653 z"/>
<path transform="translate(0,0)" fill="rgb(0,0,0)" d="M 1033.88 724.929 C 1041.75 725.145 1057.63 723.457 1062.65 727.983 L 1062.82 731.748 C 1056.71 732.293 1039.8 733.96 1035.04 729.856 C 1033.57 728.58 1034.09 727.567 1033.88 724.929 z"/>
<path transform="translate(0,0)" fill="rgb(0,0,0)" d="M 1015.68 751.804 C 1023.01 754.298 1024.21 759.392 1019.76 765.43 C 1011.89 763.877 1011.92 757.429 1015.68 751.804 z"/>
<path transform="translate(0,0)" fill="rgb(0,0,0)" d="M 1045.31 742.287 C 1050.04 743.353 1049.7 743.315 1052.26 746.384 C 1053.32 750.387 1052.97 751.081 1052.3 755.311 C 1047.74 754.527 1048.18 754.425 1045.6 751.667 C 1044.34 747.591 1044.74 746.676 1045.31 742.287 z"/>
<path transform="translate(0,0)" fill="rgb(255,255,255)" d="M 1043.51 812.308 L 1046.98 813.142 C 1057.46 820.984 1065.96 864.625 1077.24 868.287 C 1079.95 862.885 1071.74 845.261 1085.26 841.774 L 1087.24 843.11 C 1092.98 853.721 1092.29 893.417 1089.67 906.358 C 1077.71 911.949 1072.35 915.06 1061.93 923.123 L 1054.57 930.082 C 1043.03 916.415 1029.3 903.835 1025.26 885.274 C 1024.46 881.594 1023.82 876.105 1025.87 872.859 C 1028.12 873.834 1027.33 873.667 1029.75 873.941 C 1030.4 868.374 1030.08 863.315 1034.78 859.428 C 1038.47 860.028 1035.68 862.774 1039.7 866.769 C 1043.03 863.802 1037.12 851.876 1044.65 849.205 C 1046.03 850.12 1051.93 861.981 1053.79 864.984 C 1051.48 850.495 1041.55 825.907 1043.51 812.308 z"/>
<path transform="translate(0,0)" fill="rgb(255,255,255)" d="M 1104.14 834.896 C 1110.65 819.074 1122.21 804.23 1124.71 786.278 C 1127.04 769.65 1097.48 727.281 1113.2 715.373 C 1116.03 714.511 1120.66 714.771 1122.91 716.62 C 1138.89 729.786 1131.27 743.92 1120.32 754.479 L 1120.59 755.741 C 1122.81 755.153 1126.89 753.478 1128.09 755.027 C 1136.66 766.12 1153.34 782.062 1161.42 791.94 C 1156.34 814.582 1144.48 840.646 1123.1 852.241 C 1112.9 848.669 1109.83 843.393 1104.14 834.896 z"/>
<path transform="translate(0,0)" fill="rgb(255,255,255)" d="M 830.712 865.587 C 871.236 869.025 869.723 880.91 888.839 910.668 C 876.887 922.854 872.475 928.054 864.11 942.618 C 846.036 935.068 839.877 937.16 822.402 923.949 C 826.792 922.864 827.572 922.844 831.336 920.544 C 832.789 916.783 831.83 916.464 831.441 911.961 L 834.974 908.5 L 837.544 911.483 C 840.577 915.041 847.593 922.177 852.655 920.388 C 854.662 912.173 835.518 884.998 829.895 875.244 C 835.416 880.053 841.434 882.827 847.943 885.956 C 847.897 887.803 847.906 889.651 847.972 891.498 C 848.202 897.745 854.133 917.552 862.205 916.065 C 859.217 904.957 848.316 911.364 851.138 884.525 L 851.288 883.185 C 840.028 879.217 832.005 878.963 830.712 865.587 z"/>
<path transform="translate(0,0)" fill="rgb(255,255,255)" d="M 1173.57 787.162 C 1176.32 786.909 1175.34 786.696 1177.79 787.866 C 1183.15 804.687 1161.22 855.011 1152.15 870.458 L 1141.08 863.918 L 1127.45 854.719 C 1146.48 836.959 1162.62 817.452 1163.82 790.336 C 1166.18 788.281 1170.32 787.842 1173.57 787.162 z"/>
<path transform="translate(0,0)" fill="rgb(233,233,232)" d="M 779.728 817.637 L 781.346 818.233 C 786.756 824.121 831.959 881.778 832.24 886.5 L 828.88 889.783 C 820.31 886.188 781.871 833.605 775.631 823.561 C 775.825 820.309 776.606 820.689 779.728 817.637 z"/>
<path transform="translate(0,0)" fill="rgb(255,255,255)" d="M 1168.45 1679.05 C 1177.59 1680.69 1207.49 1679.49 1209.87 1681.4 C 1210.64 1685.39 1210.39 1685.84 1209.64 1689.95 C 1197.48 1693.72 1182.44 1694 1171.25 1686.8 C 1168.27 1684.88 1168.82 1682.34 1168.45 1679.05 z"/>
<path transform="translate(0,0)" fill="rgb(255,255,255)" d="M 1051 796.204 C 1058.76 794.994 1067.31 795.33 1070.58 803.833 C 1070.34 813.136 1063.61 813.597 1056.23 815.49 C 1051.07 811.618 1049.99 810.93 1044.03 808.187 C 1054.49 802.891 1052.88 809.601 1056.64 809.962 L 1057.62 805.056 C 1053.82 799.901 1044.54 807.239 1040.03 805.022 C 1042.57 799.609 1045.72 798.651 1051 796.204 z"/>
<path transform="translate(0,0)" fill="rgb(255,255,255)" d="M 807.473 847.785 C 816.78 847.748 856.204 861.102 858.985 868.981 C 843.897 864.381 837.739 861.216 822.244 864.756 C 816.812 859.305 811.912 854.075 807.473 847.785 z"/>
<path transform="translate(0,0)" fill="rgb(255,255,255)" d="M 1379.28 1679.24 C 1380.24 1679.11 1381.15 1679.41 1382.19 1679.61 L 1383.3 1681.3 C 1381.35 1693.85 1357.13 1692.61 1347.75 1692.19 C 1344.46 1692.1 1345.82 1692.72 1343.36 1690.96 C 1342.98 1687.91 1342.63 1687.36 1343.76 1684.51 C 1357.04 1683.09 1366.26 1682.15 1379.28 1679.24 z"/>
<path transform="translate(0,0)" fill="rgb(255,255,255)" d="M 1115.51 875.581 C 1111.33 866.983 1100.3 846.129 1101.37 837.295 C 1110.06 847.668 1110.27 849.413 1122.56 855.522 C 1122.47 857.399 1116.58 872.636 1115.51 875.581 z"/>
<path transform="translate(0,0)" fill="rgb(255,255,255)" d="M 809.622 875.419 C 815.417 878.02 826.236 891.017 829.47 896.474 L 828.1 900.021 C 815.992 898.205 803.744 888.765 809.622 875.419 z"/>
<path transform="translate(0,0)" fill="rgb(255,255,255)" d="M 809.796 895.056 C 813.323 897.443 816.204 899.225 820.109 901.011 C 823.95 902.766 829.524 902.686 831.747 905.89 L 830.626 910.049 C 821.686 913.753 807.183 906.951 809.796 895.056 z"/>
<path transform="translate(0,0)" fill="rgb(255,255,255)" d="M 833.947 888.749 C 836.209 890.912 845.089 904.057 846.283 907.665 C 846.891 909.504 846.015 909.955 844.86 912.261 L 842.543 912.48 C 838.31 909.683 836.014 905.944 832.929 901.849 C 833.044 896.728 832.992 893.843 833.947 888.749 z"/>
<path transform="translate(0,0)" fill="rgb(255,255,255)" d="M 808.35 906.966 C 813.583 909.435 826.72 914.443 829.823 917.685 L 829.703 919.787 C 819.451 922.033 808.704 919.26 808.35 906.966 z"/>
<path transform="translate(0,0)" fill="rgb(255,255,255)" d="M 1080.94 838.348 C 1079.84 843.407 1072.66 848.562 1073.77 855.45 C 1073.97 856.676 1073.74 856.615 1072.92 857.666 L 1071.16 854.846 C 1068.54 850.67 1066.16 845.963 1063.82 841.596 C 1071.88 840.77 1073.05 840.771 1080.94 838.348 z"/>
<path transform="translate(0,0)" fill="rgb(233,233,232)" d="M 830 1638.4 C 830.311 1638.37 830.62 1638.32 830.932 1638.29 C 845.159 1637.07 942.85 1645.07 949.646 1651.63 C 950.836 1652.78 950.436 1653.37 950.416 1654.87 C 943.663 1660.39 815.224 1692.63 798.995 1696.79 L 667.466 1731.12 C 620.803 1742.89 574.31 1756.02 527.57 1767.46 C 520.535 1769.18 512.747 1770.03 505.529 1770.66 C 473.635 1772.92 427.927 1760.01 395.183 1757.95 C 391.195 1757.7 387.157 1755.35 384.989 1751.93 C 385.144 1750.53 385.024 1748.93 386.075 1748.45 C 400.614 1741.79 439.799 1733.54 454.372 1730 L 719.603 1664.68 C 740.267 1659.64 760.89 1654.44 781.47 1649.07 C 796.463 1645.21 814.84 1639.83 830 1638.4 z"/>
</svg>
