<?xml version="1.0" encoding="UTF-8"?>
<svg id="Capa_1" xmlns="http://www.w3.org/2000/svg" xmlns:xlink="http://www.w3.org/1999/xlink" version="1.1" viewBox="0 0 354.13 148.09">
  <!-- Generator: Adobe Illustrator 30.2.1, SVG Export Plug-In . SVG Version: 2.1.1 Build 1)  -->
  <defs>
    <linearGradient id="Degradado_sin_nombre" data-name="Degradado sin nombre" x1="93.26" y1="648.22" x2="88.93" y2="648.99" gradientTransform="translate(0 773.72) scale(1 -1)" gradientUnits="userSpaceOnUse">
      <stop offset="0" stop-color="#dadeeb"/>
      <stop offset="1" stop-color="#fff"/>
    </linearGradient>
  </defs>
  <path d="M42.99,29.64c3.02-10.5,10.92-26.36,25.01-21.06,2.65,1,4.04,4.21,4.82,6.76l.11.29c4.24.27.91,5.65-.27,7.5,9.33-2.78,3.92,5.63-1.04,6.49.06,2.24-3.16,10.96-4,13.45,1.04-1.8,5.1-9.52,6.53-10.13.97-.42,29.43-.46,32.85-.26.43.02.66.05,1.03.28.7.43.96.97,1.07,1.76.45,3.06.13,6.56.13,9.66l.04,18.53c2.76-1.37,4.85-2.11,8.01-1.17,1.64.49,3.29,1.76,3.96,3.32,3.01,7.05-2.23,22.65-4.76,29.52-.31.83-.62,1.66-.94,2.49,3.58-.15,5.9-.88,6.03,3.77.08,2.92-.13,6,0,8.9,1.4-3.82,2.17-6.01,5.34-8.63-.69-3.21-1.28-5.92-1.64-9.2-1.45-13.19,1.5-27.16,8.72-38.38,4.81-7.57,11.66-13.62,19.76-17.47,2.17-1.02,4.38-1.8,6.64-2.58.36-.12-.09-1.94.12-2.3.23-.39.9-1.05,1.23-1.39-.46-1-1.25-1.12-1.22-2.17.04-1.83,1.44-2.29,2.93-2.74-.21-2.13-.19-3.35,2.55-3.56.25-.02,1.13.09,1.26-.12.68-1.33.47-2.44,2.35-2.84,1.77-.38,2.55,1.25,3.85-.54.39-.54.92-.69,1.53-.68,1.86.02,1.67,1.88,2.87.78l.23-.22c.98-.91,2.17-1.13,3.32-.04.39.37.38,1.33.9,1.85,1.11-.44,1.63-.59,2.82-.26,2.11.59.79,2.32,1.38,3.07l.25.08c4.7,1.48,1.74,4.05,1.95,4.71.4,1.25,2.85,1.46.61,4.23l.02.25c2.45,1.39,4.59,1.9,7.17,2.87,10.04,3.8,17.77,11.2,23.69,19.96.18.27,1.74,1.42,2.05,1.62,2.98,1.98,5.42,4.13,7.84,6.78,1.14-4.64,3.55-15.4,10.35-13.21,4.32,1.39,9.55,8.54,11.66,12.46,4.24-6.65,8.14-14.19,12.33-20.96,1.1-1.78,3.98-7.09,5.21-8.34,1.56-.11,2.88-.11,4.44-.1,1.56-5.57,6.33-21.69,11.37-23.82,18.68-7.89,25.39,21.94,28.32,32.22.93.06,1.51.1,2.43.27-5.68-6.23,2.38-12.25,5.32-.11.58-1.45.7-3.09,1.32-4.53,1.67-3.88,4.56-3.53,4.74.76.13,3.1-1.47,6.5-3.56,8.7-.49.51-.74.67-1.18,1.21,2.21,7.11,2.5,9.72,3.9,16.8,1.59-1.69,2.91-2.99,5-4.05,9.61-4.84,12.01.99,12.06,9.8.07,10.85-1.97,21-4.05,31.54,8.33,4.1,6.5,16.3,2.95,23.03-2.73,5.17-7.34,11.37-12.01,14.98l-81.15.03h-27.38c-4.21-.02-9.27.14-13.4-.02-3.12.24-10.13.04-13.51.03-7.48-.03-15.31.12-22.75-.03-4.82.16-10.2.04-15.05.02l-25.08-.04-109.55.03c-8.87-7.13-20.48-24.3-12.43-35.47-2.79-4.69-3.03-11.77,3.48-13.47,3.05-.69,6.41-.09,9.1,1.44,2.28,1.29,4.06,3.08,6.28,4.39-1.28-2.08-2.85-4.06-4.13-6.14-7.08-11.64-17.96-24.97-15.7-39.43.67-4.31,3.86-6.55,8.08-5.52,7.93,1.93,14.24,10.17,18.37,16.7.3-3.98,1.41-9.72,2.25-13.63-.51-.26-6.98.42-8.37-1.29-2.3-2.82,1.59-4.4,4.01-4.7-2.51-1.39-4.71-3.08-4.18-6.32.3-1.84,2.06-2.94,3.82-2.44,2.91.81,5.06,4.21,6.6,6.58-.39-2.67-2.08-11.73,3.02-10.55Z"/>
  <path d="M304.89,34.5c.12,1.47.1,2.95.11,4.43.13,17.82-.19,35.68,0,53.5,2.1-3.98,6.87-11.48,12.32-8.6.21.11.41.22.61.34.16-.82.34-1.86.54-2.66.39-.65.42-1.12.57-1.89,1.91-4.59,3.16-10.12,6.76-14.2.44-.33.64-.77.93-1.25,1.59-1.69,2.91-2.99,5-4.05,9.61-4.84,12.01.99,12.06,9.8.07,10.85-1.97,21-4.05,31.54-.12.33-.22.44-.19.74-1.48,7.41-3.15,14.77-5.03,22.08l-2.26,8.51c-.45,1.65-1.21,4.07-1.5,5.71-.12.16-.44.57-.58.57-2.48,0-24.96.21-25.81-.1.41-1.13.6-1.49.59-2.69-.07-6.1,0-12.22-.03-18.33,2.26-.03,9.5.24,11.16-.34.63-.64,1.09-2.11,1.04-2.91-.2-2.98.79-15.31-.8-17.18-1.63-.75-8.98-.53-11.34-.54-.31-11.22-.14-22.95-.13-34.22,0-9.25-.19-19.08.04-28.26Z" fill="#6a6aee"/>
  <path d="M318.49,89.58c.3.07.79.11.84.32,1.33,5.47,1.23,29.94.19,34.05l-.52-.15c-.42-.58,1.02-26.05-.12-29.06-.09-.23-.39-4.72-.39-5.16Z"/>
  <path d="M274.68,32.66c1.8-5.76,5.9-20.63,11.31-23.38,2.81-1.43,6.03-1.33,8.94-.29,5.58,1.98,9.08,6.97,11.49,12.13,2.99,6.41,4.78,13.35,6.67,20.14l.65-.19c.93.06,1.51.1,2.43.27-5.68-6.23,2.38-12.25,5.32-.11.58-1.45.7-3.09,1.32-4.53,1.67-3.88,4.56-3.53,4.74.76.13,3.1-1.47,6.5-3.56,8.7-.49.51-.74.67-1.18,1.21,2.21,7.11,2.5,9.72,3.9,16.8-.29.48-.49.92-.93,1.25-3.6,4.07-4.85,9.6-6.76,14.2-.15.76-.18,1.23-.57,1.89-.2.8-.38,1.83-.54,2.66-.2-.12-.4-.23-.61-.34-5.45-2.88-10.22,4.61-12.32,8.6-.2-17.82.12-35.67,0-53.5,0-1.48.01-2.95-.11-4.43-.21-.48-.75-1.65-1.22-1.67-8.21-.34-21.31-.17-28.99-.17Z" fill="#fdfdfd"/>
  <path d="M316.19,41.34c-5.68-6.23,2.38-12.25,5.32-.11.58-1.45.7-3.09,1.32-4.53,1.67-3.88,4.56-3.53,4.74.76.13,3.1-1.47,6.5-3.56,8.7-.49.51-.74.67-1.18,1.21-.6-.2-.27-.16-1.03.13-3.21.31-4.09-.58-6.98-1.55l-.68-.49c-2.11-.95-2.97-2.48-1.03-4.21l.65-.19c.93.06,1.51.1,2.43.27Z" fill="#6a6aee"/>
  <path d="M314.82,45.95c2.89.97,3.78,1.87,6.98,1.55.76-.29.44-.33,1.03-.13,2.21,7.11,2.5,9.72,3.9,16.8-.29.48-.49.92-.93,1.25-.31-1.76-.55-3.27-.75-5.04-.35.09-.93.25-1.24.11-2.18-1.01-4.49-2.35-6.68-3.29l-.28.19c-.19-.45-.37-.54-.75-.87-2.06-1.05-1.5-1.88-.51-3.53.38-.09.39-.15.74-.38-.57-1.95-1.02-4.59-1.5-6.65Z" fill="#fdfdfd"/>
  <path d="M316.32,52.6c3.51-.2,6.17,3.34,8.35,5.66.36.95.51,1.12.38,2.12-.35.09-.93.25-1.24.11-2.18-1.01-4.49-2.35-6.68-3.29l-.28.19c-.19-.45-.37-.54-.75-.87-2.06-1.05-1.5-1.88-.51-3.53.38-.09.39-.15.74-.38Z" fill="#6a6aee"/>
  <path d="M321.8,47.51c.76-.29.44-.33,1.03-.13,2.21,7.11,2.5,9.72,3.9,16.8-.29.48-.49.92-.93,1.25-.31-1.76-.55-3.27-.75-5.04.13-1-.02-1.17-.38-2.12-.7-3.65-1.66-7.24-2.87-10.76Z"/>
  <path d="M316.85,57.38l.28-.19c2.19.94,4.5,2.28,6.68,3.29.32.15.89-.01,1.24-.11.21,1.78.44,3.28.75,5.04-3.6,4.07-4.85,9.6-6.76,14.2-.37-7.15-1.01-15.17-2.2-22.24Z" fill="#fdfdfd"/>
  <path d="M316.09,56.52c.38.32.57.41.75.87,1.18,7.06,1.83,15.09,2.2,22.24-.15.76-.18,1.23-.57,1.89-.1-1.34-.2-2.68-.26-4.02-.3-7.05-1.26-13.98-2.12-20.96Z"/>
  <path d="M314.14,45.47l.68.49c.49,2.06.94,4.7,1.5,6.65-.36.23-.36.29-.74.38-.49-2.47-1.04-5.04-1.44-7.52Z"/>
  <path d="M42.99,29.64c3.02-10.5,10.92-26.36,25.01-21.06,2.65,1,4.04,4.21,4.82,6.76l.11.29c4.24.27.91,5.65-.27,7.5,9.33-2.78,3.92,5.63-1.04,6.49-.6.29-.43.06-.66.56-.04-.03-4.31-.11-5.28-.3l-.83-.63c-2.32,3.35-5.22,7.79-7.13,11.41-.44.81-.86,1.62-1.28,2.44-2.18,4.34-4.26,8.77-5.92,13.34-.31.84-.63,1.66-.98,2.48-.93-5.04-2.25-9.67-5.49-13.83,2.1-4.13,3.48-11.87-.48-15.26-.29.04-.22-.01-.57-.2Z" fill="#fdfdfd"/>
  <path d="M72.82,15.34l.11.29c4.24.27.91,5.65-.27,7.5,9.33-2.78,3.92,5.63-1.04,6.49-.6.29-.43.06-.66.56-.04-.03-4.31-.11-5.28-.3l-.83-.63c-2.17-5.3,1.53-16.62,4.59-10.39.79-.95,1.72-2.23,2.82-2.71.51-.43.33-.17.56-.82Z" fill="#6a6aee"/>
  <path d="M56.44,43.1c-.9-.84-2.01-2.77-2.82-3.87-.6-1-4.25-4.92-3.51-6.06,3.59-5.58,7,5.61,7.61,7.5-.44.81-.86,1.62-1.28,2.44Z" fill="#5c62e7"/>
  <path d="M42.99,29.64c3.02-10.5,10.92-26.36,25.01-21.06,2.65,1,4.04,4.21,4.82,6.76-.24.65-.05.39-.56.82-.69-2.68-1.52-5.39-4.14-6.69-8.17-4.06-16.35,2.23-20.01,9.37-1.97,3.83-2.86,7.4-4.53,10.99-.29.04-.22-.01-.57-.2Z"/>
  <path d="M65.68,29.89c.97.19,5.24.27,5.28.3-1.08,5.01-3.85,12.32-5.92,17.08-.56,1.28-2.85,5.02-3.71,6.49l-6.75,11.62c-2.57,4.39-5.98,10.59-8.75,14.68,1.72-17.56,9.8-35.83,19.85-50.17Z" fill="#fdfdfd"/>
  <path d="M38.88,48.27l.12-.17c1.57-.47,3.16-1.1,4.42-2.17,2.17,3.28,3.9,6.72,4.75,10.59.25,1.15.9,3.83.59,4.91-1.58,5.48-2.76,10.6-3.68,16.24-2.71-5.15-5.28-10.07-8.6-14.88.25-3.61,1.51-11.06,2.41-14.51Z" fill="#fdfdfd"/>
  <path d="M39.97,40.18c-.39-2.67-2.08-11.73,3.02-10.55.36.18.29.23.57.2,3.97,3.39,2.59,11.13.48,15.26-.2.24-.49.58-.64.84-1.25,1.07-2.84,1.7-4.42,2.17l-.12.17c-.51-.16-.26-.17-.78.09-.51-.26-6.98.42-8.37-1.29-2.3-2.82,1.59-4.4,4.01-4.7-2.51-1.39-4.71-3.08-4.18-6.32.3-1.84,2.06-2.94,3.82-2.44,2.91.81,5.06,4.21,6.6,6.58Z" fill="#6a6aee"/>
  <path d="M339.56,102.2c2.41,1.22,3.72,2.45,4.58,5.13,3.69,11.52-5.15,23.96-13.36,31.17.29-1.64,1.05-4.05,1.5-5.71l2.26-8.51c1.87-7.31,3.55-14.68,5.03-22.08Z" fill="#fdfdfd"/>
  <path d="M277.28,33.38c8.65-.04,17.37-.09,26,.1.65.01.97,1.53.98,2.04.05,5,.01,10.01,0,15.02l-.02,26.19c.02,3.17.11,6.78,0,9.91.03,3.62-.04,7.46.04,11.05,2.06,0,10.37-.21,11.55.4,1.04,1.77,1.23,17.61-.18,18.92-1.81.59-8.78.13-11.41.27.02,3.29.45,19.24-.56,21.1-1.09.61-3.6.37-4.95.33-3.08.19-8.43.04-11.74.05-1.15.01-2.05-.1-2.15-1.53-.16-2.14-.03-4.34-.02-6.49.03-4.5.03-9.01,0-13.51-4.34-.11-9.01.08-13.45.01-8.31.15-18.03.17-26.36-.02-5.65.24-5.43-.17-5.23-5.58-.21-2.42-.04-9.14-.04-11.85-.03-.84-.13-1.75.22-2.5,1-2.14,2.28-4.23,3.48-6.26l6.31-10.76,27.51-46.92Z" fill="#fdfdfd"/>
  <path d="M239.76,99.82c1.09.33,7.17-.13,9.15.57,1.31.47,6.56.42,6.93,2.75.03,2.81-8.35,5.78-8.89,7.37,1.25,1.38,16.96-5.11,12.55,6.63,2.05,0,10.56-.25,11.89.15-8.31.15-18.03.17-26.36-.02-5.65.24-5.43-.17-5.23-5.58-.21-2.42-.04-9.14-.04-11.85Z" fill="#fdfdfd"/>
  <path d="M239.76,99.82c1.09.33,7.17-.13,9.15.57,1.31.47,6.56.42,6.93,2.75.03,2.81-8.35,5.78-8.89,7.37,1.25,1.38,16.96-5.11,12.55,6.63,2.05,0,10.56-.25,11.89.15-8.31.15-18.03.17-26.36-.02,1.17-.7,11.72.37,14.14-.36.42-.81.46-1.58.46-2.49-.02-7.31-11.46-1.73-13.38-3.46-.07-2.64,7.46-4.48,8.63-7.23-.09-1.36-1.28-1.83-2.49-2.09-4-.89-8.39-1.09-12.45-1.27-.03,1.28,0,2.53.03,3.81,1.5,1.15,2.59,2,2.55,4.1-.02,1.19-.64,2.66-1.48,3.49.01-1.98,2.09-4.57-.44-6.59l-.28.04c-.87,1.05.1,5.4-.52,6.47-.21-2.42-.04-9.14-.04-11.85Z" fill="#d3d3e3"/>
  <path d="M250.12,114.53c2.05-.23,3.07-.03,2.55,2.3l-.1-.04c-.12-.57-.15-1.04-.54-1.44-1.4-.45-4.39.32-5.96.6-2.01.42-2.7.21-4.72-.15l.17-.08h-.15c4.15-.05,4.65-.23,8.77-1.19Z" fill="#d3d3e3"/>
  <path d="M287,138.79c-2.77-11.03,12.24-8.91,9.87-16.98-2.25-7.65-12.04-14.34-20.18-11.81-4.45,1.38-6.03,4-9.34,6.45.25-.96,2.66-3.14,3.45-3.83,8.41-7.37,20.24-2.97,25.37,5.98,2.1,3.66,2.25,7.89-2.04,9.91-5.09,2.4-7.08,4.44-7.1,10.12,2.28-.02,9.77-.22,11.72.11-3.08.19-8.43.04-11.74.05Z" fill="#d3d3e3"/>
  <path d="M304.03,83.18c.13-1.95-.24-4.56.2-6.44.02,3.17.11,6.78,0,9.91-.2-.69-.19-1.98-.22-2.74-2.49-.02-14.88.95-14.82,4.24,1.09,1.96,5.03,3.78,7.1,5.1,1.45.92,2.84,1.91,4.18,2.98,4.64,3.75,7.56,8.2,8.21,14.25.13,1.26.21,5.16-.57,6.11-.13-.33-.13-.22-.08-.56.34-2.25.25-4.56-.14-6.8-1.26-7.18-5.59-11.43-11.55-15.17-1.78-1.12-3.7-2.17-5.43-3.34-1.03-.7-2.05-1.6-2.27-2.88.77-3.55,12.14-4.54,15.38-4.65Z" fill="#d3d3e3"/>
  <path d="M267.77,81.11c3.4-6.21,7.18-12.31,10.71-18.45,1.04-1.81,2.16-4.92,4.92-3.35.63.36,1.09.95,1.26,1.66.29,1.19.19,4.97.18,6.33l-.09,11.92c0,5.14.15,10.28.04,15.42,0,1.51-.64,3.14-2.43,3.12-6.45-.09-13.01.13-19.44-.07-2.43-.08-3.04-2.67-2.02-4.69,1.11-2.19,2.44-4.21,3.62-6.39l.26-.49c.77-1.11,1.89-3.2,2.59-4.43l.39-.58Z"/>
  <path d="M276.42,67.3c.56.59.12,23.57.23,26.11.02.6-.15,2.63-.6,3.1-1.74.77-12.65.74-14.19.21-.84-.98-1.13-1.79-.5-3.02,4.57-8.92,10.52-17.51,15.06-26.4Z" fill="#fdfdfd"/>
  <path d="M281.38,59.65c2.08-.11,2.72.86,2.75,2.86.07,4.43-.04,8.86-.02,13.29l.03,12.4c0,2.25-.03,4.49-.04,6.74-.02,2.69-2.98,2.13-5.02,2.13-.7.02-1.98.15-2.57-.1.23-.35.78-1.19.8-1.57.08-1.88.04-4,.05-5.88.02-5.07.02-10.15-.02-15.22,0-2.49-.08-5.52.08-7.95.08-1.19,2.95-5.93,3.97-6.7Z" fill="#fdfdfd"/>
  <path d="M285.06,94.43c4.72.41,13.73,3.71,14.33,9.39,1.19,10.7-11.94,3.67-16.76,1.9-7.8-2.86-14.8,3.2-19.3,9.23-.07-.12-.15-.23-.22-.34.05-.1.16-.36.23-.47,1.46-2.13,3.92-4.4,5.75-5.97,11.69-10,19.13,3.07,28.25.42,1.56-1.47,2.14-3.46,1.32-5.49-1.69-4.22-6-6.2-10.1-7.34-1.05-.29-2.48-.47-3.44-.89l-.08-.43Z" fill="#d3d3e3"/>
  <path d="M273.84,39.46c.73.15,1.09.47,1.59,1,10.93,11.61-4.09,24.77-15.98,24.39l-.03-.23.11-.1c3.93-.31,7.73-1.53,11.1-3.58,7.24-4.35,11.02-11.89,5.1-19.09-.62-.76-1.4-1.56-1.87-2.4Z" fill="#d3d3e3"/>
  <path d="M250.93,85.51c3.98-3.68,9.54-1.26,13.87.61l-.26.49c-2.87-1.11-9-3.46-12.07-1.7-1.99,1.32-1.9,5.39-2.1,7.63-.32,3.58-7.32,3.31-8.22,1.75,2.29-.68,4.62,2.19,7.49-1.15l.17-.2c.62-3.24-.14-3.78,1.13-7.42Z" fill="#d3d3e3"/>
  <path d="M290.11,44.23l.28.26c-.19,1.34-1.81,4.15-2.33,5.78-2.12,6.64,3.74,12.66,8.86,15.94,2.18,1.4,4.52,2.18,7.09,2.93-.98.61-3.58-.49-4.61-.96-4.94-2.3-9.73-6.41-11.68-11.6-1.72-4.59.45-8.32,2.38-12.34Z" fill="#d3d3e3"/>
  <path d="M291.71,34.11c.23.05.48.12.7.17.95,1.01,1.6,2.41,2.2,3.66,3.85,7.99-1.1,12.86.13,16.14,1.41,3.73,6.02,4.13,9.17,5.5.05.02.1.04.14.06-.27.25-.44.36-.8.25-2.67-.82-6.69-1.87-8.36-4.28-1.73-2.5-.07-5.63.45-8.23.96-4.91-.97-9.3-3.64-13.27Z" fill="#d3d3e3"/>
  <path d="M287.67,68.54c.75.34,2.59,2.82,3.25,3.59,2.88,3.37,5.99,5.33,10.32,6.37.87.21,2.29.25,2.77.93-4.27-.02-8.72-2.29-11.8-5.12-1.09-1-4.46-4.27-4.54-5.77Z" fill="#d3d3e3"/>
  <path d="M269.86,46.36c2.42,1.4,2.31,7.83.42,9.89-2.53,2.74-4.28,3.62-7.8,4.05l-.24-.09c.89-.87,6.17-1.2,7.9-4.74,2.43-4.96.36-5.15-.27-9.12Z" fill="#d3d3e3"/>
  <path d="M309.84,99.28c3.1,1.39,5.3,14.44,4.42,17.59-.57-.47-.37-2.86-.43-3.88-.32-5.58-1.65-8.79-3.99-13.7Z" fill="#d3d3e3"/>
  <path d="M267.38,81.69c-2.17-1.73-7.8-3.43-10.55-4.07-1.08-.25-3.55-.62-4.41-1.07l.16-.16c2.75-.3,12.76,2.91,15.18,4.73l-.39.58Z" fill="#d3d3e3"/>
  <path d="M285.03,121.11c4.75-.44,6.31,2.89,2.21,5.32l-.12-.08c.03-.97,4.3-3.33.37-4.51-.97-.29-1.57-.17-2.46-.74Z" fill="#d3d3e3"/>
  <path d="M81.78,33.38h16.2c1.65,0,9.16-.32,10.05.45.56,1.42.57,2.94.53,4.45-.25,9.42.34,19.16.04,28.55v3.41c.01,2.33.04,4.71,0,7.03.03,5.12.03,10.24,0,15.36,0,1.6-.03,3.53.05,5.09,2.06,0,9.88-.29,11.46.35,1.04,1.47,1.09,18.37.05,18.77-2.14.82-8.87.41-11.67.46.07,4.42.09,8.84.07,13.26,0,1.88.38,6.79-.8,8.07-4.06.67-12.82-.36-16.83.2-1.26-.12-1.69-.56-1.8-1.84-.21-2.55-.08-5.45-.05-8.02l.03-7.27-.05-4.39c-8.55-.07-17.09-.1-25.64-.09-4,.06-7.99.07-11.99.03-1.85-.01-4.96.05-6.65-.26-.3-.27-.36-.45-.45-.82-.26-2.05-.54-17.68-.09-18.48,9.5-16.86,19.88-34.95,29.76-51.39l.04-.21c.67-.82,3.28-5.36,3.9-6.45l.35-.48c1.13-2.05,2.22-3.81,3.47-5.79Z" fill="#fdfdfd"/>
  <path d="M90.94,138.82c.13-.29,0-1.3.02-1.72-.65-7.05,7.08-7.91,9.09-10.53,5.21-6.79-7.98-17.67-14.78-17.01-7.67.74-8.84,2.67-13.45,7.25l-.24-.08c.09-.72,1.99-2.68,2.59-3.22,3.39-3.03,6.88-4.74,11.51-4.54,6.02.24,11.31,4.29,14.4,9.11,5.07,7.91-.35,9.2-5.97,13.05-2.38,1.63-2.56,4.7-2.73,7.42,4.3,0,12.36-.24,16.39.06-4.06.67-12.82-.36-16.83.2Z" fill="#d3d3e3"/>
  <path d="M108.41,83.15c.1-1.18-.26-5.15.19-5.88.03,5.12.03,10.24,0,15.36-.33-.97-.2-7.33-.2-8.73-2.84.17-14.19.83-15.04,3.92.26,1.82,7.94,5.92,9.86,7.17,7.1,4.59,10.38,11.39,9.85,19.8-.04.7-.1,1.59-.64,2.07-.13-.35-.13-.23-.1-.56,2.07-21.75-18.27-22.89-19.46-28.01-.11-.48.02-.93.33-1.31,2.39-2.98,11.5-3.49,15.21-3.82Z" fill="#d3d3e3"/>
  <path d="M89.12,121.71c2.41-2.35,7.2,1.13,3.25,4.31-.96.78-2.01,2.11-3.28,2.96l.03-7.27Z" fill="url(#Degradado_sin_nombre)"/>
  <path d="M108.61,70.23c-.12-.54-.03-.39-.31-.83-8.38-.95-19.94-10.8-16.27-20.21,1.23-3.16,2.2-3.56,2.6-7.31.35-3.27-2.3-5.58-2.36-7.11l.2-.07h-.21c.59.22.44.21.81.73,2.42,3.31,2.91,7.87.66,11.42-6.48,10.22,5.31,20.15,14.67,22.23,0-.66-.12-1.76.19-2.27v3.41Z" fill="#d3d3e3"/>
  <path d="M78.31,39.17c2.35,1.61,4.65,5.3,5.13,8.09,1.77,10.39-11.32,18.13-20.31,17.61,1.82-.65,3.99-.68,5.87-1.25,5.05-1.52,10.37-4.73,12.88-9.53,1.31-2.52,1.51-5.52.58-8.19-.58-1.66-2.78-5.73-4.49-6.25l.35-.48Z" fill="#d3d3e3"/>
  <path d="M74.02,46.31l.04-.21c1.52,1.09,1.54,2.35,1.93,4.01,1.27,5.47-4.18,10.17-9.38,10.08.61-.36,1.89-.77,2.6-.99,1.86-.57,3.09-1.18,4.44-2.65,2.58-2.82,2.37-6.67.71-9.88-.07-.15-.22-.26-.34-.36Z" fill="#d3d3e3"/>
  <path d="M89.16,95.12c-.68,3.13-2.31,2.63-5.14,2.63-5.67.01-11.45.08-17.1-.07-1.77-.05-2.69-3.17-1.73-4.46,1.08-2.01,2.17-3.95,3.31-5.92l6.31-10.84,5.91-10.21c1.18-2.06,2.36-4.19,3.65-6.16.42-.65,1.01-1.16,1.81-1.22,1.34-.14,2.81,1.16,2.85,2.51.26,8.12-.12,16.38.07,24.49-.02,1.58-.18,7.85.05,9.24Z"/>
  <path d="M80.94,67.28c.12.81.09,2.03.09,2.87-.03,7.95.02,15.9,0,23.85,0,.74-.09,1.48-.29,2.2-1.25,1.23-13.21,1.16-14.6.43-.72-1.06-.94-2-.3-3.17,3.68-6.66,7.65-13.18,11.4-19.8,1.2-2.11,2.41-4.33,3.7-6.37Z" fill="#fdfdfd"/>
  <path d="M86.21,59.53c2.99.47,2.2,4.26,2.21,6.73v9.03c-.01,6.38.04,12.75-.05,19.13-.03,2.19-.49,2.63-2.77,2.63-.72,0-1.48-.02-2.21-.04-.62.01-1.96.11-2.46-.12.28-.36.68-.87.69-1.33.09-2.86.04-5.97.04-8.83.03-6.87.01-13.74-.06-20.61,1.19-1.98,2.65-5.81,4.61-6.59Z" fill="#fdfdfd"/>
  <path d="M89.11,85.88c.39,2.13.09,6.2.19,8.55,4.67.7,9.64,2.06,12.72,6,4.04,5.17.86,10.99-5.35,8.9-10.08-3.39-15.5-7.94-24.53.74-.58.55-4.38,4.76-4.63,4.77,0-.95,2.85-3.77,3.55-4.5,8.45-8.82,15.04-6,24.94-1.82,1.41.59,4.38.83,5.73-.08,2.5-1.58,1.5-5.17.2-7.14-2.63-3.98-7.39-5.2-11.78-6.15-.49-.1-.58-.18-.98-.02-.23-1.39-.08-7.66-.05-9.24Z" fill="#d3d3e3"/>
  <path d="M44.19,99.87c2.61-.29,13.98.31,15.64,2.52,2.33,3.1-8.31,6.33-8.75,8.13,1.36.78,9.03-1.6,11.31-.14,2.55,1.63,2.96,3.9,1.46,6.61-.63-.67.7-3.11-.15-4.71-2.02-3.75-9.93-.15-13.21-1.22-1.15-2.36,8.3-4.94,9.12-7.74-.84-3.33-13.81-2.1-15.42-3.46Z" fill="#d3d3e3"/>
  <path d="M58.58,83.58c.44-.04.89-.04,1.34-.03,1.8.04,7.49,1.27,8.64,2.49-.35.23-.37.19-.84.06-3.09-.84-8.49-3.4-11.27-.73-1.66,1.6-1.5,4.62-1.55,6.77-.14.66-.39,1.28-.61,1.92-.62.54-1.21,1.03-2.06,1.18-1.29.23-4.56.09-5.63-.6l-.07-.33c2.47-.68,4.86,2.33,7.67-1.26l.17-.22c.45-3.99-.94-7.86,4.2-9.25Z" fill="#d3d3e3"/>
  <path d="M96.5,34.76c1.77.75,3.01,4.93,3.48,6.72,1.08,4.04-.37,7.75-1.37,11.64,2.33,6.18,8.58,5.11,9.78,6.78-1.39-.06-2.32-.34-3.48-.76-10.75-3.89-5.06-7.33-5.07-14.88,0-3.53-1.97-6.46-3.34-9.49Z" fill="#d3d3e3"/>
  <path d="M92,68.57c.67.29,1.24,1.37,1.77,1.98,1.64,1.89,3.51,3.95,5.61,5.34,1.88,1.26,3.99,2.15,6.21,2.6,1,.21,2.08.28,3,.7-4,.7-9.14-2.25-12.02-4.81-1.22-1.09-4.45-4.11-4.58-5.81Z" fill="#d3d3e3"/>
  <path d="M113.69,98.39c.47.33.38.31.74.74,3.32,3.99,4.83,12.67,4.01,17.68-.56-.66-.24-3.16-.33-4.22,0-1.69-.4-3.28-.64-4.92-.5-3.43-2.72-6.2-3.78-9.28Z" fill="#d3d3e3"/>
  <path d="M56.58,76.55c2.73-.64,13.15,2.63,15.4,4.59-1.17,0-5.75-2.05-7.12-2.59-2.26-.9-6.56-1.28-8.28-2Z" fill="#d3d3e3"/>
  <path d="M54.09,114.6c3.77-.67,3.4,1.87,2.4,2.16-.08-.74.03-.92-.34-1.44-1.34-.4-5.19.59-6.72.89-.45.02-.9.03-1.35.03-1.16.01-2.14.02-2.98-.8l.06-.24c3.64,1.17,5.18.34,8.92-.59Z" fill="#d3d3e3"/>
  <path d="M102.18,87.65c1.33.34,5.79,2.92,6.17,4.21-.13-.05-.6-.23-.7-.31-1.1-.89-5.15-2.72-5.47-3.9Z" fill="#d3d3e3"/>
  <path d="M44.14,104.6c.24,0,.46,0,.69.08,2.92,1.11,1.86,4.24,1.09,6.42l-.32-.24c-.15-.98.83-2.76.56-3.93-.32-1.4-1.28-1.27-2.02-2.33Z" fill="#d3d3e3"/>
  <path d="M194.25,48.82c23.9.28,36.53,11.3,47.25,31.5-2.61,4.57-8.68,13.62-10.09,18.29-3.44-5.36-10.91-17.04-16.21-20.38.25,1.04,2.7,3.16,2.96,4.37,2.06,9.31,4,18.67,3.67,28.28-11.63,4.06-39.21-.34-50.92-3.98.05-7.32-1.27-17.44-3.06-24.55-.23-1.41-2.06-9.7-2.75-10.4-.27.86.4,3.14.65,4.09,2.1,8.21,3.83,16.54,4.32,25.02.11,1.81.03,4.51.41,6.23-1.46,2.53-2.85,5.09-4.17,7.7-8.95-5.41-14.71-15.94-15.79-26.19,2.42-1.82,4.89-3.59,7.39-5.31,1.95-1.33,7-4.57,8.33-6.09-3.4,1.67-12.81,8.35-15.81,10.86-.31-4.08.04-8.18,1.02-12.15,2.84-11.47,8.74-17.34,18.46-23.23,1.55,1.49,2.69,2.22,4.82,2.68.25,1.47,1.5,6.92,2.86,7.44.55-.52,2.16-3.06,2.9-4.03,1,.99,3.76,3.09,4.93,3.94,2.65-3.09,7.12-10.39,8.84-14.09Z" fill="#fdfdfd"/>
  <path d="M31.49,98.53c-.91-1.85-4.52-6.69-5.93-8.84-4.16-6.32-7.7-11.97-11.3-18.76-3.45-6.5-5.75-13.98-3.8-21.39.35-1.35,1.41-2.76,2.69-3.37,1.75-.84,4.11-.41,5.86.26,10.82,4.08,21.22,22.91,26.01,32.78-.05.41-.25,2.22-.37,2.53-1.48,3.96-4.42,7.84-6.46,11.56-.65,1.21-1.88,2.89-2.11,4.26-.32,1.85-.2,4.25-.21,6.15-.64-.97-2.85-4.44-3.8-4.7l-.15.24c.25,1.33,3.02,4.54,4.01,6.1,0,1.78-.72,11.8,1.26,12.33,1.3.35,6,.23,7.72.23h15.06c1.7,4.56,3.01,10.97,4.52,15.74-1.31,1.25-3.65,3.09-3,5.02l-.15.14c-2.01-.17-5.01-.07-7.11-.07l-11.67-.02c-8.64-7.94-29.29-27.04-32.79-37.69-.72-2.18-.9-4.79.23-6.86.79-1.46,2.24-2.5,3.83-2.95,7.04-1.97,12.13,4.31,17.66,7.3Z" fill="#fdfdfd"/>
  <path d="M133.19,82.46c1-17.84,9.35-35.94,25.5-45.14.74-.42,2.26-1.4,3.01-1.58l-.03.2c-.67,4.13,3.03,2.16,1.84,5.6-.79,2.3,1.32,3.43,3.09,4.1.76,2.94,1.14,4.58,3.08,6.92-6.8,2.56-13.61,10-16.49,16.6-3.69,8.42-4.49,16.11-2.43,25.05l.12.32c.45,1.58.82,2.75,1.4,4.28l.25.52c1.29,2.97,2.33,4.56,4.05,7.28l.51.74c2.54,2.94,5.56,6.28,9.05,8.07-2.26,4.24-6.42,12.26-8.02,16.86-3.7-2.25-7.91-5.4-10.72-8.72l-.14-.09c-9.03-10.72-14.33-24.03-14.11-38.13-.04-1.08,0-1.81.06-2.88Z" fill="#fdfdfd"/>
  <path d="M150.87,94.54c.45,1.58.82,2.75,1.4,4.28-.68.23-2.13-.12-2.85-.29-.89-.21-1.89-.16-1.94-1.21.66-1.31,2.26-1.85,3.39-2.78Z" fill="#fdfdfd"/>
  <path d="M133.19,82.46l.23.72c2.12.53,4.16-1.82,4.63-3.76.89-3.65-1.92-4.13-3.06-5.82,2.83-.36,7.45,8.29-1.53,10.34-.12.46-.23.93-.32,1.4-.04-1.08,0-1.81.06-2.88Z" fill="#d3d3e3"/>
  <path d="M147.23,123.48c1.36-1.46,3.07-1.02,4.81-.97,2.08.06,7.18,4.37,7.08,6.46h-.22c-2.08-2.7-3.74-5.51-7.56-6.01-.89-.12-3.24.08-3.98.6l-.14-.09Z" fill="#d3d3e3"/>
  <path d="M150.75,94.22l.12.32c-1.13.92-2.73,1.47-3.39,2.78.05,1.05,1.05,1,1.94,1.21.73.17,2.17.52,2.85.29l.25.52c-.79.21-3.28.05-3.96-.27-3.89-1.81.44-4.24,2.19-4.85Z" fill="#d3d3e3"/>
  <path d="M157.08,107.36l-.8.19c-1.04-.32-3.2-.49-3.73-1.12,1.21-.99,2.36.64,4.01.19l.51.74Z" fill="#d3d3e3"/>
  <path d="M136.95,68.45c6.02.12,7.4,5.87,7.84,10.78,1.19-.12,4.27-.68,5.17-.36l-.05.29c-.79.61-3.75.63-4.95.68-.9,4.6-2.41,6.73-6.97,8.26-1.4.31-2.89.43-4.3.13l-.12-.25c.59-.28,2.43-.2,3.19-.29,8.04-1.03,8.82-8.78,5.88-14.86-1.67-3.47-3.13-3.38-6.53-4.02l.07-.22.76-.14Z" fill="#d3d3e3"/>
  <path d="M143.2,105.23c1.06-.11,1.97.03,3.03.14-.9.11-1.8.22-2.7.34-1.9,1.37-2.43,2.25-3.23,4.34,1.39.06,4.46-.02,5.84-.06,9.39-.24,10.62,3.9,16.32,9.5.36.47.39.45.55,1.01-1.13-.07-6.53-7.16-9.44-8.62-4.2-2.1-11.58-.4-13.47-2.12-.56-1.67,1.83-3.6,3.09-4.53Z" fill="#d3d3e3"/>
  <path d="M153.43,41.36c1.37.14,2.77,1.79,3.61,2.83,2.88,3.59.75,7.71-2.6,10.02-3.97,2.73-7.99,2.54-12.54,1.74l-.44-.14-.11-.28c.83-.43,9.83,1.48,12.95-1.97,2.4-2.65,5.48-4.57,2.26-8.99-.92-1.26-2.19-1.98-3.13-3.22Z" fill="#d3d3e3"/>
  <path d="M162.85,48.73l.35.29c.15.51.15,1.21.01,1.72-2.55,9.66-15.88,12.85-24.48,11.07l-.18-.1-.03-.25c.62-.18,1.86.1,2.58.16,8.69.67,20.79-2.68,21.75-12.89Z" fill="#d3d3e3"/>
  <path d="M146.9,115.14c5.63-.42,8.54,3.03,12.08,6.75.66.7,1.8,1.7,2.3,2.44l-.13.24c-.84-.69-1.65-1.42-2.44-2.16-2.61-2.62-5.21-5.86-8.98-6.65-2.48-.52-4.27.43-6.65.84l-.08-.1c1.54-.75,2.21-1.11,3.9-1.36Z" fill="#d3d3e3"/>
  <path d="M147.9,46.82c1.93-.03,4.42,1.08,5.54,2.66-.66-.11-4.71-2.21-5.54-2.66Z" fill="#d3d3e3"/>
  <path d="M223.63,108.35c3.14-.82,5.01-.18,7.76,1.4-.01,3.83-1.04,8.96,4.17,8.24,1.74-.24,4.6.06,6.47.01,3.21-.25,8.29-.09,11.65-.09h23.02s-.05,8.36-.05,8.36c.02,2.31,0,4.62-.03,6.94-.05,2.79-.31,3.16.6,5.75-1.47.25-4.57.17-6.2.16l-9.67-.02h-19.68c-3.62,0-7.24.02-10.86-.04-.73-.01-1.23-.27-1.79-.32-3.38.08-6.9.02-10.31.07.49-2.26.91-5.16,1.26-7.48.29-1.22.6-4.55.77-5.98.22-1.87.38-3.74.47-5.62.06-1.52-.04-5.47.35-6.68.71-1.42,1.43-3.23,2.06-4.71Z" fill="#6a6aee"/>
  <path d="M242.03,118c3.21-.25,8.29-.09,11.65-.09h23.02s-.05,8.36-.05,8.36c-2.99-2.32-6.91-4.06-10.78-3.52-5.15.72-12.04,6.55-15.15,10.43-.89-3.72-4.74-11.17-7.54-13.84-.22-.51-.73-.92-1.15-1.34Z" fill="#fdfdfd"/>
  <path d="M219.97,131.34c1.92,2.69,3.97,3.9,6.7,5.79.64.44,1.86,1.13,2.36,1.62-3.38.08-6.9.02-10.31.07.49-2.26.91-5.16,1.26-7.48Z" fill="#fdfdfd"/>
  <path d="M221.56,113.06c.98,4.35,2.22,6.69,4.63,10.36-2.4.28-3.39.48-5.45,1.95.22-1.87.38-3.74.47-5.62.06-1.52-.04-5.47.35-6.68Z" fill="#fdfdfd"/>
  <path d="M243.18,119.34c2.8,2.66,6.65,10.11,7.54,13.84l.06.07-.1.16-.37-.14c-.21-.26-.31-.36-.39-.7-.92-3.6-3.61-7.07-5.21-10.5-.47-1-1.09-1.53-1.52-2.72Z" fill="#5c62e7"/>
  <path d="M227.47,123.81c3.21-.01,11.96,8.96,11.18,12.15-1.29-.23-1.12-1.48-1.85-2.71-2.17-3.66-5.06-6.2-8.69-8.37-.57-.34-.53-.54-.65-1.07Z"/>
  <path d="M127.12,101.76c.55,2.15,1.45,4.36,2.24,6.45,1.27,2.75,2.54,5.43,4.07,8.05,5.76,8.59,13.28,16.06,23.19,19.7-.4.94-.84,1.86-1.12,2.84l-28.73-.05c-1.44.7-15.54.36-18.39.39,1.01-1.62.91-2.59.89-4.47-.03-3.47-.03-6.93-.02-10.4l-.04-6.34c1.53-.06,3.17-.02,4.71-.01,1.74,0,4.65.15,6.28-.27,2.27-.59.37-4.68,1.8-6.71,1.01-3.82,2.09-6.55,5.12-9.17Z" fill="#6a6aee"/>
  <path d="M133.43,116.25c5.76,8.59,13.28,16.06,23.19,19.7-.4.94-.84,1.86-1.12,2.84l-28.73-.05,2.23-1.43c3.13-2.02,6.67-4.51,7.5-8.33-.77-3.69-3.38-5.12-6.95-5.42,2.02-3.11,2.4-4.07,3.88-7.31Z" fill="#fdfdfd"/>
  <path d="M127.12,101.76c.55,2.15,1.45,4.36,2.24,6.45-2.71-.08-3.86.93-6.14,2.13-.32.16-.9.54-1.22.6,1.01-3.82,2.09-6.55,5.12-9.17Z" fill="#fdfdfd"/>
  <path d="M109.2,117.92c1.53-.06,3.17-.02,4.71-.01-1.95,2.32-3.07,3.72-4.67,6.35l-.04-6.34Z" fill="#fdfdfd"/>
  <path d="M127.66,123.81l.38.33c.09.91-3.3,2.61-4.39,3.57-1.81,1.59-3.32,3.48-4.47,5.59-.53.95-.86,1.84-1.55,2.69l-.41-.51c-.43-3.64,7.37-10.07,10.43-11.67Z"/>
  <path d="M160.56,34.16c.76-.14.84.1,1.37.55-.38.74-1.94,1.26-2.77,1.66-2.45,1.19-4.89,2.96-6.99,4.67-4.21,3.44-7.83,7.54-10.71,12.15-14.69,23.25-11.31,56.95,9.92,75.21,1.98,1.7,4.27,3.1,6.48,4.5-.48.87-.73,1.57-1.09,2.49l-2.75-1.25c-.89-.46-1.77-.93-2.64-1.42-11.73-6.71-20.08-18.31-23.62-31.26-4.3-15.23-2.34-31.55,5.44-45.33,5.92-10.32,15.77-18.84,27.36-21.98Z" fill="#fdfdfd"/>
  <path d="M269.97,33.39l6.61-.04c-1.79,2.59-4.13,6.86-5.8,9.73l-10.28,17.52-13.59,23.21c-2.32,3.99-4.85,7.96-6.97,12.07-.38.73-.71,1.42-.81,2.24-.27,2.29-.17,17.24.33,18.76.02.05.04.11.06.16l-.16.24c-1.62.02-5.22.24-6.54-.39-1.18-1.44-.78-5.86-.77-7.8l.04-11.31c3.28-5.89,6.98-11.98,10.4-17.83l15.59-26.72,7.04-12c1.19-2.05,3.45-6.15,4.85-7.85Z" fill="#fdfdfd"/>
  <path d="M74.36,33.42c2.06-.1,4.52-.06,6.61-.06l-26.04,44.24c-3.67,6.28-7.63,12.54-11.02,18.97-.34.65-.42,1.38-.48,2.1-.17,2.14-.25,16.55.17,17.88.07.23.09.39.09.62l-.29.06c-1.77.05-4.84.39-6.29-.45-1.1-1.82-.39-15.46-.51-18.47-.05-1.37,5.69-10.62,6.88-12.66l14.78-25.22c3.19-5.56,6.42-11.1,9.69-16.62,1.7-2.92,4.4-7.84,6.4-10.39Z" fill="#fdfdfd"/>
  <path d="M10.59,104.76c.88.96,2.01,3.06,2.87,4.21,8.08,10.83,18.17,20.79,28.23,29.8h-1.98c-5.54-.06-11.2-.03-16.75,0-6.07-5.47-12.04-12.78-13.93-20.87-.97-4.16-.78-9.42,1.55-13.14Z" fill="#fdfdfd"/>
  <path d="M60.64,117.88l20.45.04-.04,11.08c0,2.66-.39,7.28.51,9.65l.12.3c-.73.26-19.81.17-20.34-.13l.15-.14c.87-.51,3.3-3.96,3.65-5.13-.72-3.54-3.32-12.01-4.49-15.67Z" fill="#fdfdfd"/>
  <path d="M65.14,133.55c5.13-4.35,8.91-8.45,15.91-4.54,0,2.66-.39,7.28.51,9.65l.12.3c-.73.26-19.81.17-20.34-.13l.15-.14c.87-.51,3.3-3.96,3.65-5.13Z" fill="#6a6aee"/>
  <path d="M237.82,50c.81,0,1.42,0,2.21.24,4.37,1.33,9.68,8.71,11.59,12.67l-8.49,14.62c-.37.71-.86,1.42-1.3,2.1-3.08-5.89-6.47-11.41-11.12-16.21.56-4.04,2.76-12.11,7.11-13.42Z" fill="#fdfdfd"/>
  <path d="M114.33,62c5.05-.02,7.31,3.28,7.16,8.06-.27,8.76-3.31,17.39-6.12,25.61-.17.44-.24.57-.45.99-1.07.68-4.19.36-5.68.34l-.02-33.28c1.77-1.11,3.05-1.54,5.11-1.72Z" fill="#fdfdfd"/>
  <path d="M186.37,41.5c4.15-2.77,1.47-3.66,3.79-7.38-.04.07.07-1,.07-1.01.64-.03,2.78.81,3.5,1.07l.11.05c9.71,2.45,19.65,11.51,25.14,19.72-6.42-3.58-12.61-4.95-19.91-5.49-4.67-.35-6.16.09-10.51-1.6-.76-1.73-1.49-3.6-2.2-5.36Z" fill="#fdfdfd"/>
  <path d="M193.74,34.18l.11.05c-3.79,5.79,1.31,12.5,7.93,9.97,2.11-.81,2.57-1.75,4.16-3.07l.15.08c-2.09,4.31-8.5,5.47-12.01,2.23-1.3-1.23-2.05-2.93-2.08-4.72-.04-1.65.56-3.35,1.72-4.54Z" fill="#d3d3e3"/>
  <path d="M179.24,27.47c.57,1.58,1.21,1.41,2.64,1.82.52,1.42-1.6,2.15,1.07,3.89-.16,2.4.11,4.15.38,6.57.23,2-.08,3.76-1.37,5.44.02.13-.66.49-.74.45-4.16-1.93-8.44-1.45-11.68,1.98-2.78-.48-3.29-6.76-3.83-8.18-.82-2.2-2.23-9.33,1.25-8.45.39.1,1.22-1.02,1.55-.97,1.28.21,2.41,1.12,3.78.54,1.77-.74,2.01-2.17,4.21-1.93,1.2.13,1.65-.21,2.56-1.01l.17-.16Z" fill="#fdfdfd"/>
  <path d="M175.13,33.2c1.35.33,4.63.48,5.27,1.31l-.17.47c-1.3.2-4.22.28-5.19-.66-.19-.69-.17-.33.09-1.12Z"/>
  <path d="M169.99,34.67l.48.09.21.32c-.26,1.01-2.99,2.41-3.94,2.96-.43-.03-.23.03-.59-.27.06-1.33,2.78-2.55,3.85-3.11Z"/>
  <path d="M172.41,36.87c1.54,1.14-.26,5.53,1.39,6.9l.82-.12.27.42c-.28.16-.48.23-.77.36-.43-.05-.81-.02-1.1-.42-.91-1.27-.66-5.62-.61-7.14Z"/>
  <path d="M177.3,36.44c1.32.76,1.23,1.72.66,2.92-1.67-.54-1.51-1.75-.66-2.92Z"/>
  <path d="M169.59,38.24c1.46.4,1.26,1.75.7,2.79l-.57-.26c-.67-.78-.81-1.72-.12-2.53Z"/>
  <path d="M277.39,117.91l6.74-.04c.02,3.22-.4,18.81.19,20.29.04.11.1.21.14.32l-.18.27c-1.71-.03-4.8.26-6.25-.31-1.19-1.27-.75-6.53-.74-8.45,0-4.03.04-8.05.1-12.08Z" fill="#fdfdfd"/>
  <path d="M81.77,117.89h6.62c.08,4.14.09,8.27.03,12.4-.02,2.07-.32,6.73.46,8.42-1.36.04-5.49.28-6.36-.27-1.19-.75-.83-7.15-.82-8.48l.07-12.07Z" fill="#fdfdfd"/>
  <path d="M222.45,109.47c-.09-9.25-1.42-18.44-3.95-27.33,3.07,3.18,6.15,7.23,8.62,10.87-.29,3.04-.74,4.7-1.53,7.62l-.14.47c-.54,2.3-2.09,6.04-3,8.38Z" fill="#fdfdfd"/>
  <path d="M225.46,101.09c-.35-.53-2.6-4.76-2.7-5.31h.25c1.39,1.34,1.8,3.06,2.6,4.84l-.14.47Z" fill="#d3d3e3"/>
  <path d="M227.72,93.99c1.26,1.52,2.54,3.85,3.68,5.53,0,3.32-.09,6.94-.01,10.23-2.75-1.59-4.62-2.22-7.76-1.4,2.05-5.11,3.3-8.83,4.09-14.36Z" fill="#fdfdfd"/>
  <path d="M188.92,47.69c1.85.67,2.85.92,4.78,1.12-1.37,2.43-6.83,12.14-8.5,13.25-1.35-1.18-2.76-2.28-4.24-3.3,3.56-2.25,6.66-5.57,9.01-9.04-.52-.81-.68-1.14-1.06-2.03Z" fill="#fdfdfd"/>
  <path d="M185.7,41.73c.41.33,2.76,6.58,3.6,7.99-3.01,4.12-4.63,5.34-8.5,8.67-.13.09-.29.07-.49.09-1.09-.7-1.87-1.88-2.62-2.93,4.48-1.52,8.33-6.52,8.07-11.34-.05-.84-.05-1.66-.05-2.49Z" fill="#fdfdfd"/>
  <path d="M176.84,46.47c.81-.01.78-.04,1.52.27.64.73.56,2.53-.25,2.92-1.42.69-2.91.36-4.67.83-.79-.81-1.83-1.55-1.04-2.68,1.24-1.19,2.75-1.16,4.45-1.34Z" fill="#fdfdfd"/>
  <path d="M176.84,46.47l.08.31c-2.19,1.78-2.52.75-4.2,1.28l-.33-.25c1.24-1.19,2.75-1.16,4.45-1.34Z" fill="#fdfdfd"/>
  <path d="M176.92,46.78l.3.24c-.51,1.47-2.8,1.76-4.11,1.21-.13-.06-.26-.11-.39-.18,1.67-.53,2,.5,4.2-1.28Z" fill="#1e2e2c"/>
  <path d="M175.39,55.47c.15-.01.3-.02.45-.03,1.48-.28,2.15,1.94,3.72,3.33l.18.16c-.72.8-.86,1.03-1.39,1.97l-.91,1.55c-.72-2.02-1.96-4.91-2.05-6.98Z" fill="#fdfdfd"/>
  <path d="M185.71,35.41c3.56-.1,3.22,2.41,1.61,4.67-.49.46-.49.49-1.12.81-1.35-.27-.74-4.47-.49-5.49Z" fill="#fdfdfd"/>
  <path d="M187.99,138.72c.08-1.01,1.48-4.24,1.81-5.47.33-1.27.13-4.18.85-4.95h.23c.21.51-.2,8.78-.4,9.63-.35.4-.84.43-1.39.55l-1.1.23Z" fill="#fdfdfd"/>
  <path d="M164.71,39.99l.29.12c.59.61,1.22,3.57,1.21,4.46l-.27.21c-1.93-1.22-2.9-2.84-1.23-4.79Z" fill="#fdfdfd"/>
</svg>
