<?xml version="1.0" encoding="UTF-8"?>
<svg id="_x32_" xmlns="http://www.w3.org/2000/svg" version="1.1" viewBox="0 0 215.64 173.79">
  <g>
    <path d="M91.69,48.75c-.12,0-.24-.04-.34-.13-.2-.19-.21-.5-.03-.71.57-.62,1.16-1.22,1.75-1.81.2-.19.51-.19.71,0,.19.2.19.51,0,.71-.59.58-1.16,1.17-1.72,1.78-.1.11-.23.16-.37.16Z" fill="#0c60ff"/>
    <path d="M174.82,130.72c-.13,0-.26-.05-.36-.15-.19-.2-.18-.52.02-.71,1.23-1.17,2.41-2.4,3.52-3.67.18-.21.5-.23.71-.05.21.18.23.5.04.71-1.13,1.28-2.33,2.54-3.58,3.73-.1.09-.22.14-.35.14ZM181.59,123.03c-.1,0-.21-.03-.3-.1-.22-.16-.27-.48-.11-.7,1-1.36,1.96-2.78,2.83-4.22.14-.24.45-.31.69-.17.24.14.31.45.17.69-.89,1.46-1.86,2.91-2.88,4.3-.1.13-.25.2-.4.2ZM186.91,114.28c-.07,0-.15-.02-.22-.05-.25-.12-.35-.42-.23-.67.75-1.52,1.44-3.08,2.05-4.65.1-.26.39-.39.65-.29.26.1.39.39.29.65-.62,1.6-1.32,3.19-2.08,4.73-.09.18-.26.28-.45.28ZM190.62,104.73s-.09,0-.14-.02c-.26-.08-.42-.35-.34-.62.47-1.62.87-3.28,1.2-4.94.05-.27.31-.45.59-.39.27.05.45.32.39.59-.33,1.69-.74,3.38-1.22,5.03-.06.22-.26.36-.48.36ZM192.59,94.68s-.04,0-.05,0c-.27-.03-.47-.28-.44-.55.18-1.67.28-3.38.31-5.07,0-.27.23-.49.5-.49h0c.28,0,.5.23.49.51-.03,1.72-.14,3.46-.32,5.16-.03.26-.24.45-.5.45ZM192.78,84.43c-.26,0-.48-.2-.5-.47-.11-1.68-.3-3.38-.57-5.05-.04-.27.14-.53.42-.57.27-.04.53.14.57.42.27,1.7.46,3.42.58,5.14.02.28-.19.51-.46.53-.01,0-.02,0-.04,0ZM191.19,74.32c-.22,0-.43-.15-.49-.38-.4-1.63-.89-3.27-1.44-4.87-.09-.26.05-.55.31-.64.26-.09.55.05.64.31.56,1.63,1.05,3.3,1.47,4.96.07.27-.1.54-.37.61-.04,0-.08.01-.12.01ZM187.86,64.64c-.19,0-.37-.11-.46-.3-.69-1.54-1.45-3.07-2.28-4.54-.13-.24-.05-.55.19-.68.24-.13.54-.05.68.19.84,1.5,1.62,3.06,2.32,4.62.11.25,0,.55-.25.66-.07.03-.14.04-.2.04ZM182.87,55.7c-.16,0-.32-.08-.41-.22-.95-1.4-1.97-2.77-3.03-4.08-.17-.21-.14-.53.07-.7.21-.17.53-.14.7.07,1.08,1.33,2.12,2.73,3.09,4.15.15.23.1.54-.13.69-.09.06-.18.09-.28.09ZM176.4,47.76c-.13,0-.26-.05-.36-.15-1.18-1.21-2.42-2.38-3.7-3.49-.21-.18-.23-.5-.05-.71.18-.21.5-.23.71-.05,1.3,1.12,2.56,2.31,3.76,3.55.19.2.19.51,0,.71-.1.09-.22.14-.35.14ZM97.22,43.51c-.14,0-.29-.06-.39-.18-.18-.21-.15-.53.07-.7,1.32-1.1,2.71-2.15,4.12-3.13.23-.16.54-.1.7.13.16.23.1.54-.13.7-1.39.96-2.75,1.99-4.05,3.07-.09.08-.21.12-.32.12ZM168.65,41.06c-.1,0-.2-.03-.29-.09-1.37-.99-2.8-1.93-4.25-2.79-.24-.14-.32-.45-.17-.69.14-.24.45-.32.69-.17,1.47.87,2.92,1.83,4.31,2.84.23.16.28.48.12.7-.1.14-.25.21-.41.21ZM104.74,39.44c-.16,0-.32-.08-.41-.23-.15-.23-.08-.54.15-.69,1.45-.94,2.97-1.82,4.51-2.61.24-.13.55-.04.68.2.13.24.04.55-.2.68-1.52.78-3.01,1.65-4.44,2.57-.09.06-.19.09-.29.09ZM160.38,37.66c-.09,0-.19-.03-.28-.08-1.49-.8-3.03-1.54-4.6-2.21-.25-.11-.37-.4-.26-.65.11-.25.4-.37.65-.26,1.59.68,3.15,1.43,4.66,2.24.24.13.33.44.2.68-.09.16-.25.26-.42.26ZM113.25,36.4c-.18,0-.35-.1-.44-.27-.12-.25-.02-.55.23-.67,1.52-.74,3.09-1.41,4.67-2.01.26-.1.55.03.65.28.1.26-.03.55-.28.65-1.56.59-3.11,1.25-4.6,1.98-.08.04-.16.05-.24.05ZM151.28,35.59c-.08,0-.16-.02-.24-.05-1.58-.62-3.21-1.17-4.85-1.63-.27-.08-.42-.35-.35-.62.08-.27.35-.42.62-.35,1.66.47,3.31,1.03,4.91,1.65.26.1.39.4.29.66-.07.2-.25.33-.46.33ZM122.59,34.53c-.2,0-.39-.12-.47-.31-.1-.26.03-.55.29-.65,1.59-.6,3.22-1.13,4.85-1.58.27-.08.54.08.61.35.08.27-.08.54-.35.61-1.61.44-3.21.97-4.78,1.55-.05.02-.1.03-.15.03ZM141.51,34.87c-.06,0-.12-.01-.18-.03-1.65-.47-3.33-.87-5.02-1.18-.28-.05-.46-.31-.42-.59.05-.28.31-.46.59-.42,1.71.32,3.42.72,5.08,1.2.27.08.43.36.35.63-.06.22-.26.37-.48.37ZM131.94,33.93c-.22,0-.42-.14-.48-.36-.08-.27.07-.54.34-.62,1.64-.48,3.33-.88,5.01-1.19.28-.05.54.14.59.42.05.28-.14.54-.42.59-1.66.31-3.32.7-4.95,1.17-.03,0-.06.01-.09.01Z" fill="#0c60ff"/>
    <path d="M168.91,135.66c-.15,0-.31-.07-.4-.21-.16-.22-.11-.54.11-.7.67-.49,1.32-.99,1.97-1.5.21-.17.53-.14.7.08.17.22.14.53-.08.7-.66.52-1.32,1.03-2,1.53-.09.06-.19.1-.29.1Z" fill="#0c60ff"/>
  </g>
  <path d="M159.51,153.7H21.56c-.28,0-.5-.22-.5-.5s.22-.5.5-.5h137.95c.28,0,.5.22.5.5s-.22.5-.5.5Z" fill="#0c60ff"/>
  <rect x="44.23" y="63.08" width="109" height="89.97" rx="10.51" ry="10.51" fill="#b3cdff"/>
  <path d="M142.72,150.95H54.74c-5.8,0-10.51-4.7-10.51-10.51v2.1c0,5.8,4.7,10.51,10.51,10.51h87.98c5.8,0,10.51-4.7,10.51-10.51v-2.1c0,5.8-4.7,10.51-10.51,10.51Z" fill="#8fb5ff"/>
  <path d="M53.25,113.33c25.89-12.61,30.68-38.08,31.44-50.25h-29.95c-5.8,0-10.51,4.7-10.51,10.51v34.25c2.68,2.01,5.67,3.86,9.02,5.49Z" fill="#8fb5ff"/>
  <path d="M142.72,63.08H54.74c-5.8,0-10.51,4.7-10.51,10.51v2.1c0-5.8,4.7-10.51,10.51-10.51h87.98c5.8,0,10.51,4.7,10.51,10.51v-2.1c0-5.8-4.7-10.51-10.51-10.51Z" fill="#fff"/>
  <path d="M153.23,101.11h-19.66c-3.54,0-6.41,2.87-6.41,6.41v5.29c0,3.54,2.87,6.41,6.41,6.41h19.66v-18.12Z" fill="#8fb5ff"/>
  <path d="M142.72,153.55H54.74c-6.07,0-11.01-4.94-11.01-11.01v-68.95c0-6.07,4.94-11.01,11.01-11.01h38.93c.28,0,.5.22.5.5s-.22.5-.5.5h-38.93c-5.52,0-10.01,4.49-10.01,10.01v68.95c0,5.52,4.49,10.01,10.01,10.01h87.98c5.52,0,10.01-4.49,10.01-10.01v-68.95c0-5.52-4.49-10.01-10.01-10.01h-40.22c-.28,0-.5-.22-.5-.5s.22-.5.5-.5h40.22c6.07,0,11.01,4.94,11.01,11.01v68.95c0,6.07-4.94,11.01-11.01,11.01Z" fill="#0c60ff"/>
  <path d="M142.72,148.29h-2.23c-.28,0-.5-.22-.5-.5s.22-.5.5-.5h2.23c.24,0,.49-.02.72-.05.27-.04.53.15.57.42.04.27-.15.53-.42.57-.28.04-.57.07-.87.07ZM135.46,148.29h-3.03c-.28,0-.5-.22-.5-.5s.22-.5.5-.5h3.03c.28,0,.5.22.5.5s-.22.5-.5.5ZM127.39,148.29h-3.02c-.28,0-.5-.22-.5-.5s.22-.5.5-.5h3.02c.28,0,.5.22.5.5s-.22.5-.5.5ZM119.32,148.29h-3.02c-.28,0-.5-.22-.5-.5s.22-.5.5-.5h3.02c.28,0,.5.22.5.5s-.22.5-.5.5ZM111.26,148.29h-3.02c-.28,0-.5-.22-.5-.5s.22-.5.5-.5h3.02c.28,0,.5.22.5.5s-.22.5-.5.5ZM103.19,148.29h-3.02c-.28,0-.5-.22-.5-.5s.22-.5.5-.5h3.02c.28,0,.5.22.5.5s-.22.5-.5.5ZM95.13,148.29h-3.02c-.28,0-.5-.22-.5-.5s.22-.5.5-.5h3.02c.28,0,.5.22.5.5s-.22.5-.5.5ZM87.06,148.29h-3.02c-.28,0-.5-.22-.5-.5s.22-.5.5-.5h3.02c.28,0,.5.22.5.5s-.22.5-.5.5ZM79,148.29h-3.02c-.28,0-.5-.22-.5-.5s.22-.5.5-.5h3.02c.28,0,.5.22.5.5s-.22.5-.5.5ZM70.93,148.29h-3.02c-.28,0-.5-.22-.5-.5s.22-.5.5-.5h3.02c.28,0,.5.22.5.5s-.22.5-.5.5ZM62.87,148.29h-3.02c-.28,0-.5-.22-.5-.5s.22-.5.5-.5h3.02c.28,0,.5.22.5.5s-.22.5-.5.5ZM54.8,148.29h-.06c-1.12,0-2.2-.32-3.13-.93-.23-.15-.3-.46-.15-.69.15-.23.46-.3.69-.15.77.5,1.66.77,2.59.77.28,0,.53.22.53.5s-.19.5-.47.5ZM147.43,145.37c-.08,0-.15-.02-.22-.05-.25-.12-.35-.42-.23-.67.33-.66.49-1.37.49-2.11v-.61c0-.28.22-.5.5-.5s.5.22.5.5v.61c0,.89-.2,1.75-.6,2.55-.09.18-.26.28-.45.28ZM49.49,143.23c-.27,0-.49-.21-.5-.48v-.21s0-2.84,0-2.84c0-.28.22-.5.5-.5s.5.22.5.5v3.01c.01.28-.2.51-.48.52,0,0-.01,0-.02,0ZM147.98,137.39c-.28,0-.5-.22-.5-.5v-3.02c0-.28.22-.5.5-.5s.5.22.5.5v3.02c0,.28-.22.5-.5.5ZM49.49,135.16c-.28,0-.5-.22-.5-.5v-3.02c0-.28.22-.5.5-.5s.5.22.5.5v3.02c0,.28-.22.5-.5.5ZM147.98,129.32c-.28,0-.5-.22-.5-.5v-3.02c0-.28.22-.5.5-.5s.5.22.5.5v3.02c0,.28-.22.5-.5.5ZM49.49,127.1c-.28,0-.5-.22-.5-.5v-3.02c0-.28.22-.5.5-.5s.5.22.5.5v3.02c0,.28-.22.5-.5.5ZM147.98,121.26c-.28,0-.5-.22-.5-.5v-3.02c0-.28.22-.5.5-.5s.5.22.5.5v3.02c0,.28-.22.5-.5.5ZM49.49,119.03c-.28,0-.5-.22-.5-.5v-3.02c0-.28.22-.5.5-.5s.5.22.5.5v3.02c0,.28-.22.5-.5.5ZM147.98,113.19c-.28,0-.5-.22-.5-.5v-3.02c0-.28.22-.5.5-.5s.5.22.5.5v3.02c0,.28-.22.5-.5.5ZM49.49,110.97c-.28,0-.5-.22-.5-.5v-3.02c0-.28.22-.5.5-.5s.5.22.5.5v3.02c0,.28-.22.5-.5.5ZM147.98,105.13c-.28,0-.5-.22-.5-.5v-3.02c0-.28.22-.5.5-.5s.5.22.5.5v3.02c0,.28-.22.5-.5.5ZM49.49,102.9c-.28,0-.5-.22-.5-.5v-3.02c0-.28.22-.5.5-.5s.5.22.5.5v3.02c0,.28-.22.5-.5.5ZM147.98,97.06c-.28,0-.5-.22-.5-.5v-3.02c0-.28.22-.5.5-.5s.5.22.5.5v3.02c0,.28-.22.5-.5.5ZM49.49,94.84c-.28,0-.5-.22-.5-.5v-3.02c0-.28.22-.5.5-.5s.5.22.5.5v3.02c0,.28-.22.5-.5.5ZM147.98,89c-.28,0-.5-.22-.5-.5v-3.02c0-.28.22-.5.5-.5s.5.22.5.5v3.02c0,.28-.22.5-.5.5ZM49.49,86.77c-.28,0-.5-.22-.5-.5v-3.02c0-.28.22-.5.5-.5s.5.22.5.5v3.02c0,.28-.22.5-.5.5ZM147.98,80.93c-.28,0-.5-.22-.5-.5v-3.02c0-.28.22-.5.5-.5s.5.22.5.5v3.02c0,.28-.22.5-.5.5ZM49.49,78.71c-.28,0-.5-.22-.5-.5v-3.02c0-.28.22-.5.5-.5s.5.22.5.5v3.02c0,.28-.22.5-.5.5ZM147.47,72.94c-.2,0-.39-.12-.47-.32-.33-.66-.81-1.26-1.42-1.77-.21-.18-.23-.5-.05-.71.18-.21.5-.23.71-.05.74.62,1.33,1.36,1.73,2.16.12.25.02.55-.23.67-.07.03-.18.04-.26.04ZM50.03,70.7c-.08,0-.16-.02-.24-.06-.25-.12-.35-.42-.23-.67.39-.79.98-1.52,1.7-2.13.22-.18.54-.15.71.07.18.22.15.54-.07.71-.59.49-1.07,1.1-1.39,1.74-.09.18-.26.29-.45.29ZM144.03,69.31c-.14,0-.28-.06-.38-.17-.78-.87-1.78-1.59-2.97-2.15-.25-.12-.35-.41-.24-.66.12-.25.41-.35.66-.24,1.31.61,2.41,1.41,3.27,2.36.18.2.16.52-.05.7-.1.09-.21.14-.33.14ZM54.11,67.27c-.12,0-.24-.04-.33-.13-.19-.2-.18-.52.02-.7.86-.82,1.91-1.53,3.1-2.11.25-.12.55-.03.67.22s.03.55-.22.67c-1.09.53-2.04,1.18-2.83,1.93-.1.09-.23.14-.36.14ZM138.95,67.41c-.07,0-.14-.02-.21-.04-1.22-.44-2.55-.7-3.95-.78-.28-.02-.49-.26-.47-.54.02-.28.27-.49.54-.47,1.48.08,2.89.36,4.19.83.27.1.41.39.31.66-.08.19-.25.32-.45.32ZM62.43,65.78c-.2,0-.38-.12-.46-.31-.1-.27.04-.55.31-.66,1.28-.45,2.65-.72,4.07-.78.28-.01.51.2.53.48s-.2.51-.48.53c-1.33.06-2.61.31-3.81.73-.05.02-.11.03-.16.03Z" fill="#0c60ff"/>
  <g>
    <path d="M156.68,117.13h-23.12c-3.54,0-6.41-2.87-6.41-6.41v-5.29c0-3.54,2.87-6.41,6.41-6.41h23.12v18.12Z" fill="#b3cdff"/>
    <path d="M156.68,117.63h-23.12c-3.81,0-6.91-3.1-6.91-6.91v-5.29c0-3.81,3.1-6.91,6.91-6.91h23.12c.28,0,.5.22.5.5v18.12c0,.28-.22.5-.5.5ZM133.57,99.51c-3.26,0-5.91,2.65-5.91,5.91v5.29c0,3.26,2.65,5.91,5.91,5.91h22.62v-17.12h-22.62Z" fill="#0c60ff"/>
  </g>
  <path d="M82.64,54.19c-23.47.89-31.49-13.07-31.49-13.07,0,0-8.02,13.96-31.49,13.07,0,0-3.27,40.1,31.49,57.04,34.76-16.93,31.49-57.04,31.49-57.04Z" fill="#fff"/>
  <g>
    <path d="M82.64,54.19c-23.47.89-31.49-13.07-31.49-13.07,0,0-8.02,13.96-31.49,13.07,0,0-3.27,40.1,31.49,57.04,34.76-16.93,31.49-57.04,31.49-57.04Z" fill="#eff8ff"/>
    <path d="M51.15,111.73c-.07,0-.15-.02-.22-.05-34.66-16.89-31.8-57.12-31.77-57.53.02-.27.26-.47.52-.46,22.89.86,30.96-12.69,31.04-12.82.09-.16.25-.25.43-.25h0c.18,0,.34.1.43.25.07.13,7.67,12.86,28.92,12.86h0c.69,0,1.4-.01,2.11-.04.25-.02.5.19.52.46.03.4,2.89,40.64-31.77,57.53-.07.03-.14.05-.22.05ZM20.13,54.71c-.21,4.55-.77,40.31,31.02,55.97,31.79-15.65,31.23-51.42,31.02-55.97-20.23.59-29.06-9.93-31.02-12.69-1.96,2.76-10.83,13.28-31.02,12.69Z" fill="#0c60ff"/>
  </g>
  <path d="M51.15,105.32c-22.31-12.27-25.82-35.81-26.26-45.91,13.38-.72,21.69-6.02,26.26-10.27,4.57,4.25,12.89,9.56,26.3,10.27-.37,10.11-3.77,33.55-26.29,45.91Z" fill="#b3cdff"/>
  <path d="M51.15,50.19c4.57,4.24,12.87,9.54,26.25,10.26.02-.36.04-.71.05-1.05-13.4-.71-21.72-6.02-26.3-10.27-4.57,4.24-12.88,9.55-26.26,10.27.01.33.03.68.06,1.05,13.35-.73,21.64-6.02,26.2-10.26Z" fill="#fff"/>
  <path d="M51.15,105.82c-.08,0-.17-.02-.24-.06-22.65-12.46-26.09-36.55-26.52-46.33-.01-.27.2-.51.47-.52,13.19-.71,21.39-5.9,25.95-10.13.19-.18.49-.18.68,0,4.56,4.24,12.77,9.43,25.98,10.13.27.01.48.25.47.52-.36,9.75-3.67,33.77-26.55,46.33-.08.04-.16.06-.24.06ZM25.42,59.88c.51,9.87,4.11,32.82,25.74,44.87,21.85-12.14,25.33-35.03,25.77-44.87-12.9-.8-21.09-5.83-25.78-10.06-4.68,4.23-12.86,9.25-25.74,10.06Z" fill="#0c60ff"/>
  <circle cx="105.89" cy="37.92" r="14.22" fill="#b3cdff" opacity=".5"/>
  <circle cx="104.97" cy="36.07" r="14.22" fill="#e18c44"/>
  <path d="M104.97,22.9c7.68,0,13.92,6.09,14.2,13.7,0-.18.03-.35.03-.53,0-7.85-6.37-14.22-14.22-14.22s-14.22,6.37-14.22,14.22c0,.18.02.35.03.53.28-7.61,6.52-13.7,14.2-13.7Z" fill="#fff"/>
  <path d="M104.97,50.8c-8.12,0-14.72-6.6-14.72-14.72s6.6-14.72,14.72-14.72,14.72,6.6,14.72,14.72-6.6,14.72-14.72,14.72ZM104.97,22.35c-7.57,0-13.72,6.16-13.72,13.72s6.16,13.72,13.72,13.72,13.72-6.16,13.72-13.72-6.16-13.72-13.72-13.72Z" fill="#0c60ff"/>
  <path d="M104.97,47.83c-6.48,0-11.75-5.27-11.75-11.75s5.27-11.75,11.75-11.75,11.75,5.27,11.75,11.75-5.27,11.75-11.75,11.75ZM104.97,24.82c-6.21,0-11.25,5.05-11.25,11.25s5.05,11.25,11.25,11.25,11.25-5.05,11.25-11.25-5.05-11.25-11.25-11.25Z" fill="#fff"/>
  <path d="M141.75,109.12c0,2.49-2.02,4.51-4.51,4.51s-4.51-2.02-4.51-4.51,2.02-4.51,4.51-4.51,4.51,2.02,4.51,4.51Z" fill="#8fb5ff"/>
  <g>
    <circle cx="136.19" cy="108.07" r="4.51" fill="#f2f7fa"/>
    <path d="M136.19,113.08c-2.76,0-5.01-2.25-5.01-5.01s2.25-5.01,5.01-5.01,5.01,2.25,5.01,5.01-2.25,5.01-5.01,5.01ZM136.19,104.06c-2.21,0-4.01,1.8-4.01,4.01s1.8,4.01,4.01,4.01,4.01-1.8,4.01-4.01-1.8-4.01-4.01-4.01Z" fill="#0c60ff"/>
  </g>
  <path d="M51.17,53.58c4.85,3.49,11.99,6.87,21.97,7.78-.69,9.72-4.39,28.79-21.97,40.25v-48.02Z" fill="#eff8ff"/>
  <rect x="62.11" y="120.28" width="33.89" height="14.33" fill="#8fb5ff"/>
  <rect x="61.06" y="119.23" width="33.89" height="14.33" fill="#eff8ff"/>
  <path d="M102.99,89.41c-.13,0-.26-.05-.35-.15-.2-.2-.2-.51,0-.71l6.49-6.49c.2-.2.51-.2.71,0s.2.51,0,.71l-6.49,6.49c-.1.1-.23.15-.35.15Z" fill="#0c60ff"/>
  <path d="M109.49,87.12c-.13,0-.26-.05-.35-.15-.2-.2-.2-.51,0-.71l3.15-3.15c.2-.2.51-.2.71,0,.2.2.2.51,0,.71l-3.15,3.15c-.1.1-.23.15-.35.15Z" fill="#0c60ff"/>
  <path d="M110.28,38.91c0,1.25-.42,2.27-1.27,3.05-.85.78-1.95,1.24-3.32,1.37l-.1,2.49h-2.01l.1-2.52c-1.11-.17-2-.51-2.67-1.03-.67-.52-1.13-1.12-1.37-1.8v-1.43h2.49c.13.4.33.73.6,1,.27.27.63.47,1.06.59l.15-3.63-.17-.04c-1.31-.27-2.32-.74-3.02-1.41-.7-.67-1.05-1.58-1.05-2.73,0-1.27.42-2.29,1.25-3.05.84-.76,1.94-1.19,3.32-1.29l.1-2.14h2.01l-.1,2.24c.96.15,1.74.47,2.35.95.61.48,1,1.07,1.17,1.79v1.45h-2.51c-.09-.32-.22-.61-.38-.87-.17-.26-.41-.46-.73-.6l-.13,3.37h.02c1.3.28,2.33.76,3.08,1.45.75.69,1.13,1.63,1.13,2.81ZM102.69,32.64c0,.33.1.63.3.89.2.26.56.48,1.08.64l.11-3.06c-.50.09-.87.27-1.12.54-.25.27-.37.6-.37.99ZM107.3,39.09c0-.38-.1-.71-.31-.98-.2-.27-.55-.5-1.05-.69l-.13,3.27c.48-.09.85-.27,1.11-.55.25-.27.38-.63.38-1.06Z" fill="#fff"/>
  <circle cx="190.85" cy="106.63" r="11.88" fill="#b3cdff" opacity=".5"/>
  <circle cx="190.08" cy="105.09" r="11.88" fill="#e18c44"/>
  <path d="M190.08,94.26c6.39,0,11.58,5.04,11.86,11.36,0-.18.03-.35.03-.53,0-6.56-5.32-11.88-11.88-11.88s-11.88,5.32-11.88,11.88c0,.18.02.35.03.53.28-6.32,5.47-11.36,11.86-11.36Z" fill="#fff"/>
  <path d="M190.08,117.47c-6.83,0-12.38-5.55-12.38-12.38s5.55-12.38,12.38-12.38,12.38,5.55,12.38,12.38-5.55,12.38-12.38,12.38ZM190.08,93.7c-6.28,0-11.38,5.11-11.38,11.38s5.11,11.38,11.38,11.38,11.38-5.11,11.38-11.38-5.11-11.38-11.38-11.38Z" fill="#0c60ff"/>
  <path d="M190.08,114.95c-5.44,0-9.86-4.42-9.86-9.86s4.42-9.86,9.86-9.86,9.86,4.42,9.86,9.86-4.42,9.86-9.86,9.86ZM190.08,95.73c-5.16,0-9.36,4.2-9.36,9.36s4.2,9.36,9.36,9.36,9.36-4.2,9.36-9.36-4.2-9.36-9.36-9.36Z" fill="#fff"/>
  <circle cx="172.2" cy="46.77" r="25.7" transform="translate(98.67 209.35) rotate(-80.86)" fill="#b3cdff" opacity=".5"/>
  <circle cx="170.2" cy="44.77" r="25.7" transform="translate(98.96 205.69) rotate(-80.86)" fill="#b3cdff"/>
  <path d="M170.2,20.08c14.02,0,25.42,11.24,25.69,25.2,0-.17.01-.33.01-.5,0-14.19-11.51-25.7-25.7-25.7s-25.7,11.51-25.7,25.7c0,.17,0,.34.01.5.27-13.96,11.66-25.2,25.69-25.2Z" fill="#fff"/>
  <path d="M170.2,70.97c-14.45,0-26.2-11.75-26.2-26.2s11.75-26.2,26.2-26.2,26.2,11.75,26.2,26.2-11.75,26.2-26.2,26.2ZM170.2,19.57c-13.89,0-25.2,11.3-25.2,25.2s11.3,25.2,25.2,25.2,25.2-11.3,25.2-25.2-11.3-25.2-25.2-25.2Z" fill="#0c60ff"/>
  <path d="M71.88,43.78c-.28,0-.5-.22-.5-.5,0-.68-.13-1.33-.39-1.95-.25-.6-.61-1.13-1.08-1.59-.46-.46-1-.82-1.59-1.08-.62-.26-1.28-.39-1.95-.39-.28,0-.5-.22-.5-.5s.22-.5.5-.5c.68,0,1.33-.13,1.95-.39.6-.25,1.13-.62,1.59-1.08.46-.46.82-1,1.08-1.59.26-.62.39-1.27.39-1.95,0-.28.22-.5.5-.5s.5.22.5.5c0,.68.13,1.33.39,1.95.25.6.61,1.13,1.08,1.59.46.46,1,.82,1.59,1.08.62.26,1.28.39,1.95.39.28,0,.5.22.5.5s-.22.5-.5.5c-.68,0-1.33.13-1.95.39-.6.25-1.13.62-1.59,1.08-.46.46-.82,1-1.08,1.59-.26.62-.39,1.27-.39,1.95,0,.28-.22.5-.5.5ZM68.77,37.77c.69.3,1.31.73,1.85,1.26.54.54.96,1.16,1.26,1.85.3-.69.73-1.31,1.26-1.85.54-.54,1.16-.96,1.85-1.26-.69-.3-1.31-.73-1.85-1.26-.54-.54-.96-1.16-1.26-1.85-.3.69-.73,1.31-1.26,1.85-.54.54-1.16.96-1.85,1.26Z" fill="#0c60ff"/>
  <path d="M29.34,47.16h0v-.52s.05.52.05.52c-.02,0-.03,0-.05,0ZM29.33,47.16c-.42,0-.79-.05-1.14-.14l.27-1.02c.28.07.57.11.86.11v1.05ZM30.48,47.01l-.27-1.01c.28-.08.56-.19.81-.34l.53.91c-.33.19-.69.34-1.07.44ZM27.12,46.58c-.33-.19-.64-.43-.92-.7l.74-.74c.21.21.44.39.7.53l-.52.91ZM32.46,45.86l-.74-.74c.21-.21.39-.44.54-.7l.91.53c-.19.33-.43.64-.7.92ZM25.5,44.97c-.19-.33-.35-.69-.45-1.06l1.01-.28c.08.28.19.56.34.81l-.91.53ZM33.6,43.88l-1.02-.27c.07-.28.11-.58.11-.87l1.05-.04v.04c0,.39-.05.77-.15,1.14ZM24.89,42.75v-.02c0-.38.05-.76.14-1.12l1.02.27c-.07.28-.11.56-.11.85l-1.05.02ZM32.58,41.82c-.08-.28-.19-.55-.35-.81l.9-.54c.2.33.35.69.45,1.06l-1.01.28ZM26.38,41.06l-.91-.52c.19-.34.43-.64.7-.92l.75.74c-.21.21-.39.45-.53.7ZM31.69,40.32c-.21-.21-.45-.39-.7-.53l.52-.91c.34.19.65.42.92.69l-.74.75ZM27.61,39.82l-.53-.91c.33-.2.69-.35,1.06-.45l.28,1.01c-.28.08-.56.19-.81.34ZM30.17,39.46c-.27-.07-.56-.11-.85-.11l-.03-1.05h.03c.38,0,.75.05,1.11.14l-.26,1.02Z" fill="#0c60ff"/>
  <g>
    <path d="M47.64,21.35c-.13,0-.26-.05-.35-.15-.2-.2-.2-.51,0-.71l1.42-1.42c.2-.2.51-.2.71,0s.2.51,0,.71l-1.42,1.42c-.1.1-.23.15-.35.15Z" fill="#0c60ff"/>
    <path d="M45.66,21.37c-.13,0-.26-.05-.35-.15l-1.42-1.42c-.2-.2-.2-.51,0-.71s.51-.2.71,0l1.42,1.42c.2.2.2.51,0,.71-.1.1-.23.15-.35.15Z" fill="#0c60ff"/>
    <path d="M44.25,24.77c-.13,0-.26-.05-.35-.15-.2-.2-.2-.51,0-.71l1.42-1.42c.2-.2.51-.2.71,0s.2.51,0,.71l-1.42,1.42c-.1.1-.23.15-.35.15Z" fill="#0c60ff"/>
    <path d="M49.08,24.76c-.13,0-.26-.05-.35-.15l-1.42-1.42c-.2-.2-.2-.51,0-.71.2-.2.51-.2.71,0l1.42,1.42c.2.2.2.51,0,.71-.1.1-.23.15-.35.15Z" fill="#0c60ff"/>
  </g>
  <g>
    <path d="M162.08,42.47h20.29c1.41,0,2.56,1.15,2.56,2.56v15.7c0,1.41-1.15,2.56-2.56,2.56h-20.29c-1.41,0-2.56-1.15-2.56-2.56v-15.7c0-1.41,1.15-2.56,2.56-2.56Z" fill="#8fb5ff"/>
    <path d="M172.08,28.96h-.15c-4.03,0-7.29,3.27-7.29,7.29v6.22h2.56v-6.22c0-2.61,2.12-4.73,4.73-4.73h.15c2.61,0,4.73,2.12,4.73,4.73v6.22h2.56v-6.22c0-4.03-3.27-7.29-7.29-7.29Z" fill="#8fb5ff"/>
    <g>
      <rect x="157.5" y="40.45" width="25.41" height="20.82" rx="2.56" ry="2.56" fill="#fff"/>
      <path d="M180.35,61.77h-20.29c-1.69,0-3.06-1.37-3.06-3.06v-15.7c0-1.69,1.37-3.06,3.06-3.06h20.29c1.69,0,3.06,1.37,3.06,3.06v15.7c0,1.69-1.37,3.06-3.06,3.06ZM160.06,40.95c-1.14,0-2.06.93-2.06,2.06v15.7c0,1.14.92,2.06,2.06,2.06h20.29c1.14,0,2.06-.93,2.06-2.06v-15.7c0-1.14-.92-2.06-2.06-2.06h-20.29Z" fill="#0c60ff"/>
    </g>
    <g>
      <path d="M173.14,49.28c0-1.61-1.31-2.92-2.92-2.92s-2.92,1.31-2.92,2.92c0,1.15.67,2.14,1.64,2.61v5.01h2.56v-5.01c.97-.48,1.64-1.46,1.64-2.61Z" fill="#b3cdff"/>
      <path d="M171.5,57.4h-2.56c-.28,0-.5-.22-.5-.5v-4.71c-1.02-.62-1.64-1.71-1.64-2.91,0-1.89,1.54-3.42,3.42-3.42s3.42,1.54,3.42,3.42c0,1.2-.62,2.29-1.64,2.91v4.71c0,.28-.22.5-.5.5ZM169.44,56.4h1.56v-4.51c0-.19.11-.36.28-.45.84-.41,1.36-1.24,1.36-2.17,0-1.34-1.09-2.42-2.42-2.42s-2.42,1.09-2.42,2.42c0,.92.52,1.75,1.36,2.17.17.08.28.26.28.45v4.51Z" fill="#0c60ff"/>
    </g>
    <g>
      <path d="M170.06,26.94h-.15c-4.03,0-7.29,3.27-7.29,7.29v6.22h2.56v-6.22c0-2.61,2.12-4.73,4.73-4.73h.15c2.61,0,4.73,2.12,4.73,4.73v6.22h2.56v-6.22c0-4.03-3.27-7.29-7.29-7.29Z" fill="#fff"/>
      <path d="M177.36,40.95h-2.56c-.28,0-.5-.22-.5-.5v-6.22c0-2.33-1.9-4.23-4.23-4.23h-.15c-2.33,0-4.23,1.9-4.23,4.23v6.22c0,.28-.22.5-.5.5h-2.56c-.28,0-.5-.22-.5-.5v-6.22c0-4.3,3.5-7.79,7.79-7.79h.15c4.3,0,7.79,3.5,7.79,7.79v6.22c0,.28-.22.5-.5.5ZM175.3,39.95h1.56v-5.72c0-3.75-3.05-6.79-6.79-6.79h-.15c-3.75,0-6.79,3.05-6.79,6.79v5.72h1.56v-5.72c0-2.88,2.35-5.23,5.23-5.23h.15c2.88,0,5.23,2.35,5.23,5.23v5.72Z" fill="#0c60ff"/>
    </g>
    <g>
      <path d="M182.91,48.44h-2.24c-.28,0-.5-.22-.5-.5s.22-.5.5-.5h2.24c.28,0,.5.22.5.5s-.22.5-.5.5Z" fill="#0c60ff"/>
      <path d="M182.91,50.67h-2.24c-.28,0-.5-.22-.5-.5s.22-.5.5-.5h2.24c.28,0,.5.22.5.5s-.22.5-.5.5Z" fill="#0c60ff"/>
      <path d="M182.91,52.9h-2.24c-.28,0-.5-.22-.5-.5s.22-.5.5-.5h2.24c.28,0,.5.22.5.5s-.22.5-.5.5Z" fill="#0c60ff"/>
    </g>
  </g>
  <path d="M94.95,66.82h-2.45c-.28,0-.5-.22-.5-.5s.22-.5.5-.5h2.45c.28,0,.5.22.5.5s-.22.5-.5.5Z" fill="#fff"/>
  <path d="M109.49,66.82h-11.73c-.28,0-.5-.22-.5-.5s.22-.5.5-.5h11.73c.28,0,.5.22.5.5s-.22.5-.5.5Z" fill="#fff"/>
  <path d="M134.84,101.61h-2.11c-.28,0-.5-.22-.5-.5s.22-.5.5-.5h2.11c.28,0,.5.22.5.5s-.22.5-.5.5Z" fill="#fff"/>
  <path d="M147.34,101.61h-10.1c-.28,0-.5-.22-.5-.5s.22-.5.5-.5h10.1c.28,0,.5.22.5.5s-.22.5-.5.5Z" fill="#fff"/>
  <path d="M177.36,153.55h-8.23c-.28,0-.5-.22-.5-.5s.22-.5.5-.5h8.23c.28,0,.5.22.5.5s-.22.5-.5.5Z" fill="#0c60ff"/>
  <polygon points="171.55 136.21 166.7 136.4 168.96 132.1 171.55 136.21" fill="#0c60ff"/>
  <polygon points="167.51 138.68 162.66 138.88 164.92 134.57 167.51 138.68" fill="#0c60ff"/>
  <path d="M194.52,107.46c0,1.04-.35,1.89-1.06,2.55-.71.66-1.63,1.04-2.77,1.14l-.08,2.08h-1.68l.08-2.11c-.93-.14-1.67-.43-2.23-.86-.56-.44-.94-.94-1.14-1.5v-1.2h2.08c.11.33.27.61.5.83.23.22.52.39.89.5l.13-3.04-.14-.03c-1.10-.22-1.94-.62-2.53-1.17-.59-.56-.88-1.32-.88-2.28,0-1.06.35-1.91,1.05-2.55.7-.63,1.62-.99,2.77-1.08l.08-1.79h1.68l-.08,1.87c.80.13,1.45.39,1.97.79.51.4.84.90.97,1.49v1.21h-2.09c-.07-.27-.18-.51-.32-.73-.14-.22-.34-.39-.61-.5l-.11,2.81h.02c1.09.23,1.94.64,2.57,1.21.63.58.94,1.36.94,2.35ZM188.17,102.22c0,.28.08.52.25.74.16.22.47.4.90.54l.10-2.56c-.42.07-.73.22-.93.45-.21.22-.31.5-.31.83ZM192.03,107.6c0-.32-.09-.59-.26-.82s-.46-.42-.88-.58l-.11,2.73c.40-.07.71-.23.93-.46s.32-.52.32-.89Z" fill="#fff"/>
</svg>
