<svg width="204" height="156" viewBox="0 0 204 156" fill="none" xmlns="http://www.w3.org/2000/svg">
<g clip-path="url(#clip0_9315_1039)">
<path d="M56.5107 56.5701C53.7938 55.2104 52.2965 52.4344 53.5386 49.3534C53.8313 48.6302 55.0322 47.8769 54.7094 46.9428C53.805 44.6075 53.077 44.0237 54.1841 41.5942C55.2048 39.3569 57.5877 39.3456 57.8729 38.8333C58.8861 37.0065 58.0981 35.0253 61.3328 33.7711C62.9952 33.127 64.0797 34.4716 64.9879 32.7541C65.8772 31.0742 66.0874 30.6034 67.7873 29.8915C70.0389 28.9499 72.3505 30.8972 73.1386 30.6825C74.7334 30.2456 75.8817 28.1174 78.7075 28.592C79.3942 28.7088 79.7469 28.6749 80.6813 29.1344C81.9647 29.6956 82.5164 31.1382 83.6046 31.8539C84.1112 32.1853 85.2783 31.7107 85.8937 31.6844C88.5468 31.5676 90.4869 34.1101 89.9766 36.6864C91.3575 37.0894 92.4533 37.5678 93.1738 38.9539C93.6804 39.9332 93.7592 41.0782 93.3952 42.1215C93.035 43.1611 92.412 43.8278 91.6915 44.6263C92.442 45.9032 93.0837 46.9428 92.6897 48.5172C92.2582 50.2272 91.0798 51.2818 89.7664 52.3063C92.1568 54.1407 91.9129 57.7076 89.6201 59.5495C89.6388 62.8791 90.0028 66.7436 88.8133 69.8774C88.7269 70.1975 87.7925 71.1919 87.7475 71.4179C87.5261 72.5629 86.2089 74.2956 84.9255 74.1298C83.2256 73.9114 83.4995 74.2617 82.1336 75.1619C81.9009 75.3163 81.0678 75.1995 80.58 75.5272C80.4374 75.8323 80.4562 75.6779 80.5087 75.9943C80.9778 76.273 83.8335 76.9623 84.5315 77.1544C86.3365 77.6516 88.134 78.1902 89.9165 78.7703C94.232 80.2091 100.082 82.9135 103.287 86.1791C105.261 88.1904 107.892 92.183 109.374 94.6011C111.164 97.5278 113.427 101.524 114.811 104.692C114.995 100.5 115.378 96.4995 115.723 92.3412C113.731 88.0925 112.999 82.8834 114.59 78.4652C114.924 77.5424 115.584 76.6497 115.885 75.7043C116.556 72.868 116.688 70.0167 117.889 67.3161C119.067 64.6607 121.773 63.9262 123.052 66.9696C123.105 67.0977 123.161 67.2295 123.21 67.3576C123.964 65.689 124.955 63.591 125.818 61.9751C121.859 60.4195 122.666 56.8978 122.669 53.3534L122.684 45.0519L122.666 38.0762C122.662 36.9915 122.609 35.3832 122.681 34.3511C122.714 33.7786 122.838 33.2174 123.048 32.6863C123.581 31.3529 124.399 30.8143 125.672 30.2493C125.964 30.1175 126.602 30.0836 126.94 30.0836C130.685 30.0648 134.441 30.0836 138.187 30.0836H160.031L179.615 30.0761C182.816 30.0761 186.032 30.0761 189.23 30.0761C191.887 30.0761 193.793 32.0761 193.8 34.7278C193.804 36.4077 193.823 38.1478 193.823 39.8578V49.0972L193.827 54.9957C193.827 56.6982 194.033 58.363 193.219 59.9223C191.639 62.9582 187.74 62.2463 184.745 62.2463L174.125 62.2388H147.407C143.159 62.2388 138.656 62.3141 134.426 62.2388C134.062 62.9205 133.676 63.6776 133.267 64.3292C135.485 65.0072 135.77 66.6909 135.023 68.7323C134.91 69.0374 134.7 69.4518 134.745 69.7644C135.286 69.8661 135.804 69.8209 136.325 70.013C138.592 70.8642 137.999 73.2899 137.327 74.9962C142.247 75.5272 138.637 81.9605 137.057 84.0472C136.884 88.375 134.809 93.9006 131.743 97.0004C133.526 103.656 134.745 110.451 135.387 117.314C138.359 117.152 142.517 117.272 145.602 117.272H164.699H176.966C179.098 117.272 181.323 117.208 183.451 117.351C184.047 117.393 185.079 118.003 185.511 118.395C186.959 119.784 187.282 121.54 186.599 123.374C185.852 125.374 185.083 127.321 184.317 129.299L180.066 140.395L176.242 150.429C175.529 152.305 174.816 154.215 174.058 156.053C173.484 157.439 171.742 158.96 170.219 159.134C168.253 159.356 166.072 159.273 164.087 159.273H152.964L112.751 159.205C113.093 160.565 112.71 161.247 113.258 162.482C115.907 168.426 118.144 175.153 119.093 181.609H40.6221C40.6071 174.927 40.6296 168.245 40.6896 161.567C40.093 161.371 39.38 161.224 39.0685 160.614C38.1979 158.912 39.5451 151.913 39.9541 149.8C36.4754 149.182 32.1036 147.936 29.4205 145.597C22.3055 139.393 23.3675 128.775 24.8048 120.406C24.8236 120.3 24.8423 120.195 24.8648 120.093C24.5384 119.751 24.2907 119.453 24.362 118.948C26.9738 100.36 33.5071 78.9925 55.2536 76.3145C57.4263 76.047 60.1245 75.3577 62.286 74.7551L62.9952 67.3199C60.5222 66.8491 59.2163 65.6136 59.04 63.0147C57.7228 62.4987 56.7434 61.896 56.1467 60.5099C55.7039 59.508 55.7001 58.3668 56.1317 57.3573C56.248 57.0937 56.3756 56.8338 56.5144 56.5814L56.5107 56.5701Z" fill="#000001"/>
<path d="M55.171 76.9548C56.0342 76.774 56.9836 76.6346 57.8204 76.4463C61.1827 81.486 63.2504 83.7082 67.9637 87.6066C68.4216 87.9494 68.2865 87.9494 68.7743 87.9946C70.6131 86.0548 72.0653 84.6838 74.058 82.8871C74.4257 84.6461 74.8761 86.3863 75.4089 88.1038C75.5966 88.6424 76.0581 90.2508 76.5722 90.3035C76.8537 89.7724 75.9981 88.0323 75.7729 87.1433C75.3189 86.0736 74.816 83.7647 74.5533 82.6084C75.0562 83.0943 75.8367 83.6932 76.3996 84.1489C75.8855 84.1753 75.7692 84.1414 75.559 84.631C75.6566 85.0943 75.559 84.8909 75.8743 85.2525C76.2308 85.3429 76.0544 85.3392 76.4221 85.2262C76.7186 84.8796 76.6285 85.0077 76.5873 84.39L76.6811 84.3598C77.5254 84.9324 78.8238 86.1188 79.6494 86.8307C79.9871 87.132 80.6326 87.8477 81.0491 87.7799C81.7471 87.0454 82.3851 84.7666 82.7115 83.6932C83.312 81.2411 83.4658 79.9191 83.3833 77.4143C84.0024 77.6365 84.6104 77.7382 85.2783 77.9906C91.8154 79.8475 100.139 82.7327 104.405 88.3863C108.406 93.6821 112.083 99.9346 114.748 106.021C114.639 107.144 114.586 108.247 114.526 109.374C110.62 110.507 106.496 113.246 103.666 116.172C103.257 114.251 100.255 103.438 99.482 102.357L99.2831 102.372C99.2156 102.454 99.148 102.534 99.0805 102.616C99.437 103.92 100.431 106.771 100.773 107.863C103.82 117.619 105.828 128.466 106.604 138.651C104.807 137.732 100.983 135.864 98.9266 135.766C94.157 135.544 88.1754 137.453 83.357 138.165C82.0886 138.297 79.3905 139.16 78.2084 138.888C67.596 136.448 57.1149 131.883 46.7427 128.779C46.9265 127.751 47.4519 123.638 47.9172 123.02C48.0936 122.786 48.4501 122.591 48.6602 122.365C49.7147 121.238 51.4747 105.174 51.3096 103.204C51.2796 102.861 51.197 102.76 50.9569 102.545L50.8143 102.598C50.6529 102.933 50.5215 105.954 50.5178 106.511C50.5028 108.447 49.0055 121.37 47.9397 122.308C47.6208 122.293 47.0091 122.052 46.6751 121.931C43.264 120.703 39.8416 119.931 36.2578 119.479C33.8487 119.182 31.4207 119.091 28.9965 119.216C28.1972 119.257 25.4015 119.803 25.0037 119.238C24.8236 118.029 25.5891 114.764 25.8368 113.472C28.3586 100.356 32.9931 85.8702 45.9208 79.629C48.8779 78.2015 51.9438 77.452 55.171 76.9548Z" fill="#FCFCFC"/>
<path d="M55.171 76.9548C56.0341 76.774 56.9835 76.6346 57.8204 76.4463C61.1827 81.486 63.2504 83.7082 67.9637 87.6066C67.0481 88.0511 62.9952 85.5953 62.2034 85.068C59.8468 83.4973 57.599 81.5764 55.9591 79.2411C55.5725 78.6912 55.096 78.1902 54.9534 77.5085C55.081 77.1393 54.9684 77.29 55.3624 77.0828L55.171 76.951V76.9548Z" fill="#E2E0DF"/>
<path d="M68.7744 87.9946C70.6132 86.0548 72.0655 84.6838 74.0581 82.8871C74.4259 84.6461 74.8762 86.3863 75.409 88.1038L75.1726 88.3336C73.8367 88.7592 70.0616 88.5181 68.7744 87.9908V87.9946Z" fill="#E2E0DF"/>
<path d="M72.9547 84.2807C73.2287 84.1903 73.5251 84.3297 73.634 84.5971C73.7428 84.8646 73.6302 85.1734 73.3713 85.3015C73.1874 85.3956 72.9622 85.3768 72.7971 85.2525C72.6283 85.1282 72.5457 84.9248 72.5795 84.7177C72.6132 84.5105 72.7596 84.341 72.9547 84.2807Z" fill="#000001"/>
<path d="M74.5571 82.6122C75.06 83.0981 75.8405 83.6969 76.4034 84.1527C75.8893 84.1791 75.773 84.1452 75.5628 84.6348C75.6604 85.0981 75.5628 84.8947 75.8781 85.2563C76.2346 85.3467 76.0582 85.3429 76.4259 85.2299C76.7224 84.8834 76.6323 85.0115 76.5911 84.3937L76.6849 84.3636C77.5292 84.9361 78.8276 86.1226 79.6532 86.8345C79.1353 87.4522 77.0901 87.9758 76.2758 88.2018L75.9719 87.1848L75.8518 87.1207L75.7805 87.1433C75.3264 86.0736 74.8236 83.7647 74.5609 82.6084L74.5571 82.6122Z" fill="#E2E0DF"/>
<path d="M83.3831 77.4181C84.0023 77.6403 84.6103 77.742 85.2782 77.9944C84.8692 80.7552 84.8279 82.3485 82.7827 84.6235L82.7114 84.5256C82.8127 84.0133 82.884 84.0849 82.7114 83.7007C83.3118 81.2487 83.4657 79.9266 83.3831 77.4218V77.4181Z" fill="#E2E0DF"/>
<path d="M135.548 117.807C137.65 117.656 141.729 117.788 143.943 117.788H160.871L175.499 117.796C177.961 117.796 180.52 117.732 182.974 117.833C185.256 117.924 187.091 120.598 186.258 122.817C185.252 125.506 184.167 128.222 183.135 130.933L176.842 147.393C175.72 150.324 174.538 153.785 173.172 156.625C172.602 157.815 170.519 158.655 169.179 158.746L137.721 158.735C131.713 158.735 125.409 158.637 119.423 158.757L119.333 158.716C118.245 158.17 117.637 157.288 118.072 156.056C119.052 153.277 120.148 150.527 121.206 147.774L127.48 131.559L130.449 123.95C131.661 120.835 131.878 118.737 135.545 117.815L135.548 117.807Z" fill="#FCFCFC"/>
<path d="M153.666 133.122C160.819 132.632 157.636 141.084 151.321 142.742C144.63 143.706 146.45 134.7 153.666 133.122Z" fill="#76CEF0"/>
<path d="M126.291 30.626C126.67 30.5921 127.221 30.5883 127.608 30.5883H170.44H183.481C185.642 30.5883 187.83 30.5469 189.984 30.641C191.384 30.7013 193.08 32.4113 193.192 33.7899C193.391 36.2608 193.298 38.8333 193.294 41.3193L193.316 56.1369C193.335 62.6569 189.819 61.7077 184.85 61.7039L174.463 61.6926H140.284H134.678C135.271 60.5589 135.77 59.38 136.284 58.2048C136.986 58.4421 137.507 58.604 138.235 58.7434C141.665 59.4139 145.215 58.6643 148.086 56.6643C150.792 54.781 152.796 51.5756 153.366 48.3288C153.951 44.9465 153.182 41.4699 151.223 38.6563C149.279 35.9142 146.318 34.0799 143.005 33.5601C139.571 32.9989 135.886 33.7296 133.053 35.8088C130.329 37.8013 128.524 40.8183 128.051 44.1668C127.522 47.7036 128.49 51.1914 130.595 54.0503C128.865 56.0541 127.203 59.0711 126.066 61.4892C122.523 59.9638 123.187 57.4552 123.187 54.1783V46.3288L123.184 38.257C123.184 35.1609 122.467 31.5827 126.294 30.626H126.291Z" fill="#FCFCFC"/>
<path d="M162.74 38.1365H179.285C181.616 38.1365 185.391 38.0197 187.605 38.1704C187.834 38.4152 187.751 38.2646 187.77 38.6714C181.406 38.8635 174.887 38.5471 168.508 38.6751C166.684 38.7128 164.774 38.7505 162.954 38.6751C162.68 38.4529 162.789 38.5998 162.74 38.1327V38.1365Z" fill="#000001"/>
<path d="M157.659 53.6472C161.753 53.5907 165.967 53.6472 170.073 53.651C174.167 53.6246 178.261 53.6284 182.355 53.6623C182.633 53.8883 182.52 53.7414 182.61 54.1746C182.017 54.2348 180.366 54.1972 179.709 54.1972L173.919 54.1896C168.695 54.1821 163.085 54.2913 157.895 54.1746C157.621 53.9599 157.734 54.103 157.663 53.6472H157.659Z" fill="#000001"/>
<path d="M169.739 48.4644L181.736 48.4757C183.368 48.4757 186.04 48.3778 187.579 48.4983C187.807 48.7469 187.71 48.6076 187.744 49.052H175.87C174.223 49.052 171.461 49.1349 169.896 49.0257C169.66 48.762 169.754 48.9202 169.739 48.4644Z" fill="#000001"/>
<path d="M157.678 43.4323C162.083 43.2854 169.968 43.5453 174.677 43.4398C174.745 43.485 174.816 43.5265 174.884 43.5717L174.966 43.9521C173.619 44.035 171.78 43.9822 170.399 43.9822H162.091C161.382 43.9822 158.087 44.0726 157.745 43.8429L157.681 43.4361L157.678 43.4323Z" fill="#000001"/>
<path d="M177.585 43.4398C180.677 43.3344 184.46 43.4097 187.59 43.4248C187.867 43.6395 187.759 43.4963 187.822 43.9596C187.229 43.986 186.539 43.986 185.946 43.9709C183.267 43.9069 180.475 44.0952 177.807 43.9596C177.536 43.7148 177.63 43.8692 177.585 43.4398Z" fill="#000001"/>
<path d="M157.76 48.4607C160.657 48.5662 163.614 48.3703 166.504 48.5096C166.635 48.5172 166.643 48.6 166.714 48.7055L166.639 49.0407L160.901 49.0558C160.177 49.0558 158.499 49.1048 157.839 49.0068C157.636 48.713 157.689 48.8825 157.76 48.4607Z" fill="#000001"/>
<path d="M29.4055 119.807C35.3271 119.453 41.6578 120.768 47.2042 122.771C46.9227 124.745 46.5662 126.707 46.1422 128.655C45.3128 128.395 39.2674 127.291 39.0385 128.368C39.4362 128.685 40.5921 128.545 41.1249 128.561C46.3223 128.711 51.9175 131.103 56.7621 132.802C61.2727 134.372 65.8022 135.894 70.3466 137.367C72.6995 138.109 76.1444 139.25 78.5723 139.48C79.5067 139.566 82.2874 138.964 83.3307 138.764L91.7928 137.118C92.9411 136.903 95.7631 136.387 96.9864 136.323C101.91 136.071 108.935 140.267 112.725 143.303C113.074 143.585 113.779 144.38 113.682 144.885C113.382 146.448 110.56 146.26 109.468 146.211C106.589 143.936 102.732 141.962 99.2605 140.787C98.8402 140.644 98.6038 140.508 98.2473 140.689C98.2135 141.292 100.724 141.909 101.332 142.184C104.364 143.563 107.468 145.258 110.094 147.314C114.725 150.934 107.347 151.378 105.261 149.913C104.484 149.367 103.756 148.727 102.994 148.188C101.771 147.322 100.488 146.546 99.1555 145.868C98.2511 145.382 94.1457 143.235 93.4402 143.676C93.6353 144.128 96.1196 145.073 96.75 145.359C98.3374 146.086 99.8797 146.904 101.37 147.815C102.803 148.693 108.334 151.936 103.884 152.998C101.647 153.533 98.1648 152.305 96.401 150.866C95.4404 150.083 89.3874 146.516 88.6143 146.651L88.5018 146.859C88.5693 147.13 88.5993 147.201 88.8808 147.333C90.9372 148.305 99.3168 152.256 99.0766 154.723C99.0391 155.115 98.8402 155.476 98.525 155.71C96.311 157.345 90.0591 154.218 87.83 153.281C87.4022 153.1 86.2202 152.512 85.8562 152.467L85.7398 152.587C85.8787 153.243 86.4603 153.326 87.027 153.529C82.8466 154.96 77.0525 156.388 73.51 152.983C72.1478 151.684 70.7706 151.446 69.0219 151.137C60.8712 149.706 52.2702 150.693 44.1383 149.845C38.6857 149.277 31.4244 147.736 27.9382 143.186C22.8384 136.527 24.3394 127.943 25.3789 120.191C26.7149 120.018 28.0583 119.886 29.4017 119.803L29.4055 119.807Z" fill="#FCFCFC"/>
<path d="M135.001 51.8054C139.748 51.5116 133.492 62.8 132.682 64.3066C131.15 64.672 130.302 65.2407 129.255 66.4272C127.743 68.1335 125.859 70.2616 125.908 72.691C125.942 74.514 127.278 75.7193 129.083 75.5837C127.946 77.6102 127.255 80.5744 129.95 81.7572C132.925 83.0642 136.382 75.9152 137.376 75.4594C138.25 75.4707 139.038 76.5103 139.252 77.3126C139.943 79.9191 133.229 90.7178 130.97 85.0228C130.779 84.5406 130.997 83.7873 130.483 83.4031L130.317 83.4709C129.991 84.4653 130.513 85.923 131.301 86.601C133.226 88.262 135.32 86.1829 136.543 84.7403C135.879 89.0116 134.565 93.0682 131.593 96.2434C131.252 96.6087 130.509 97.3432 130.374 97.8065L130.441 97.9195C130.873 97.7387 131.113 97.5202 131.436 97.8856C131.815 99.9309 132.479 102.195 132.903 104.368C133.781 108.873 134.325 112.892 134.836 117.43C131.83 118.462 131.477 119.867 130.445 122.538C127.867 129.216 125.24 135.89 122.685 142.576C115.791 140.455 110.586 136.794 106.349 130.877C105.869 126.41 104.803 121.231 103.858 116.854C106.53 113.762 110.665 111.336 114.496 110.014C114.47 110.312 114.448 110.609 114.429 110.907C114.327 112.436 113.75 121.148 114.331 121.815L114.508 121.807C114.744 121.393 114.695 116.782 114.733 115.863C115.097 108.372 115.592 100.888 116.211 93.4147C116.294 93.5842 116.38 93.7499 116.466 93.9156C116.658 94.2622 116.733 94.3262 117.101 94.4354C117.397 94.1492 116.853 93.441 116.692 93.0983C114.583 88.65 113.288 83.2336 115.217 78.4915C115.742 77.2825 116.024 76.8531 116.474 75.516C117.168 73.4594 117.506 64.1861 121.465 65.8434C123.281 66.6005 123.214 71.5874 122.97 73.2146C122.88 74.3822 122.351 75.8964 122.579 77.0565C123.146 79.8889 125.041 82.1602 124.827 85.1923C124.655 87.6368 123.758 89.7498 122.771 91.9382C122.7 92.0926 122.797 92.1454 122.883 92.2659L123.071 92.2546C123.784 91.5126 124.354 89.5652 124.7 88.6198C125.908 85.3166 125.386 82.4464 123.957 79.324C123.623 78.5932 123.157 77.6365 123.067 76.8192C122.989 75.6666 123.375 74.3295 123.529 73.1618C123.773 71.3125 123.675 70.077 123.39 68.2578C124.899 65.0072 126.452 61.6324 128.231 58.5325C129.867 55.6812 131.661 52.7207 135.004 51.8129L135.001 51.8054Z" fill="#FCFCFC"/>
<path d="M40.4907 149.872C44.232 150.768 48.0522 150.659 51.9775 150.753C58.2143 150.904 65.0816 150.738 71.1909 152.256C72.5268 152.587 73.9941 154.437 75.4013 154.991C79.214 156.497 84.0849 155.213 87.7324 153.876C89.2297 154.55 90.7533 155.175 92.2919 155.748C91.7252 156.761 91.759 158.064 91.7027 159.224C93.7216 159.096 96.825 159.194 98.9415 159.198H112.128C112.29 159.759 112.387 160.347 112.496 160.919C111.445 161.533 110.132 162.158 109.014 162.618C102.964 164.991 97.1215 166.565 90.5844 167.145C75.5064 168.486 59.9555 165.722 45.3391 162.136C44.6373 161.891 39.8978 160.889 39.6501 160.369C38.8958 158.768 40.2242 151.442 40.4907 149.872Z" fill="#FCFCFC"/>
<path d="M75.8067 40.178C77.5555 41.7185 79.8971 41.839 81.6721 40.2684C82.9818 41.8767 84.723 42.3588 86.5955 41.3758C88.5657 44.2421 88.9747 46.0764 89.016 49.4626C88.1866 48.6151 84.6704 47.1235 83.6197 47.3006C83.4283 47.4437 83.2895 47.519 83.2857 47.8091C83.2557 49.8694 87.5224 50.2159 88.9747 50.3063C89.106 53.1237 89.0197 57.3272 88.9409 60.235C88.9297 60.5966 88.1153 61.9827 87.8339 62.3706C87.5825 62.0316 87.4736 61.9073 87.1734 61.6022C85.0495 59.8432 81.8335 59.7679 79.1879 59.8545C76.8387 59.9336 74.8423 60.4873 73.2212 62.2689C66.1287 61.5269 69.5886 52.4683 66.6016 49.4475C68.1326 47.8656 68.0651 46.8637 67.3558 44.9163C68.9695 44.1781 69.4385 43.2929 69.8101 41.6507C72.1705 42.5961 74.1931 42.2308 75.8067 40.1742V40.178Z" fill="#FCFCFC"/>
<path d="M77.6644 47.1763C78.2235 47.3043 78.6513 48.084 78.3361 48.4795C77.0527 50.0878 74.3883 49.8355 72.5646 50.3892L72.4257 50.4343C72.1518 50.4343 72.2456 50.4419 71.9716 50.3477C71.6939 49.9937 71.754 50.182 71.7202 49.7827C72.4257 48.2158 76.1596 47.9258 77.6644 47.18V47.1763Z" fill="#000001"/>
<path d="M82.0248 49.4174L82.295 49.5078C82.5989 49.9485 82.37 51.5719 82.5577 52.2386C83.3907 55.1689 88.0853 59.0372 82.0773 59.7792L81.8259 59.6361L81.7959 59.3988C82.3475 58.7585 85.875 59.1389 83.9499 56.1596C82.7978 54.3742 81.0829 51.6208 82.0248 49.4174Z" fill="#000001"/>
<path d="M85.6048 51.5455C87.2935 51.6208 87.1059 53.6322 86.149 54.5889C84.6479 54.5851 84.6742 52.5135 85.6048 51.5455Z" fill="#000001"/>
<path d="M76.1481 51.5191C77.6304 51.9146 77.454 53.7113 76.5234 54.6529C74.9886 54.4797 75.0824 52.4419 76.1481 51.5191Z" fill="#000001"/>
<path d="M61.4042 52.2348C63.1679 52.0427 64.0235 52.6642 65.1343 53.941C65.4233 58.653 64.1699 64.9545 67.626 68.4235C67.9638 70.5855 70.1215 72.4274 72.3431 72.1486C73.4764 74.1751 75.3377 75.0451 77.5705 74.2504C78.4636 75.0376 78.7075 75.0828 79.8558 75.4256L79.8784 77.7533C78.4974 79.6742 77.3303 80.631 75.2251 81.6517L74.3545 82.0547C69.1046 80.6197 66.7554 79.6253 62.7739 75.8361C62.9841 74.1788 63.8584 62.3367 64.0948 61.9224C64.5714 61.8772 64.669 61.9299 64.9129 61.6361L64.8791 61.3951C64.4626 61.1578 63.3631 61.2181 62.8452 61.0222C59.6067 59.8169 57.0924 53.7452 61.4004 52.231L61.4042 52.2348Z" fill="#FCFCFC"/>
<path d="M61.8844 54.683C62.8188 55.0446 64.605 56.5965 64.271 57.7227C63.7194 57.5155 63.0815 56.1897 62.5336 55.7754C62.2709 55.5757 62.0157 55.4251 61.7418 55.2179C61.6855 54.8827 61.6855 55.0559 61.8844 54.683Z" fill="#000001"/>
<path d="M139.121 34.0008C142.472 33.6317 145.797 34.3963 148.465 36.5094C151.021 38.5508 152.642 41.5415 152.968 44.8033C153.31 48.0049 152.371 51.214 150.353 53.7188C149.005 53.0521 147.583 52.8261 146.105 52.6152C145.557 52.5361 144.99 52.5888 144.491 52.4118L144.405 52.1595C144.701 51.1425 147.103 51.5267 147.97 49.1274C148.844 46.7017 146.769 44.7544 147.823 42.9163C148.041 42.5396 148.262 42.0952 148.06 41.6809C147.621 40.8221 148.604 40.6074 148.442 39.7561C148.281 38.9049 147.756 39.033 147.354 38.483C147.264 36.5659 146.983 36.5583 145.253 36.6713C144.544 36.7165 144.337 34.3925 142.146 36.0988C140.416 34.2908 139.853 36.2758 139.087 36.4227L138.663 36.2344C137.736 35.8238 137.158 36.1628 136.794 37.1158C136.595 37.6356 135.988 37.3041 135.53 37.4435C134.385 37.7938 134.884 38.694 134.486 39.323L134.085 39.5339C132.468 40.3739 133.732 41.3946 133.728 42.163C132.764 43.6282 133.334 43.534 134.04 44.841C134.209 45.1536 134.201 45.1838 134.456 45.4738C134.742 47.406 135.094 48.1631 136.918 48.9428C136.866 49.6622 136.798 50.9014 136.577 51.5606C136.235 51.4513 135.301 51.1726 134.978 51.2216C133.443 51.4476 132.029 52.6114 130.97 53.6359C129.724 51.9523 128.903 49.9861 128.58 47.9145C128.077 44.728 128.854 41.4699 130.749 38.8597C132.873 35.9293 135.605 34.5394 139.113 33.9971L139.121 34.0008Z" fill="#FCFCFC"/>
<path d="M142.063 40.1968C143.102 41.0707 143.17 40.5659 144.296 40.3211C146.364 41.8164 146.082 39.5753 146.911 42.9389C146.33 42.7091 145.478 42.2345 144.979 42.7732C145.118 43.5943 146.349 43.7374 146.99 43.8655C147.245 45.76 148.307 47.9899 147.073 49.6735C146.525 50.4193 145.703 50.9089 144.787 51.0332C142.45 51.3346 141.534 49.4663 140.772 49.5643C140.502 50.5775 143.005 51.2818 143.752 51.6698C144.044 52.5888 144.72 53.9975 144.727 54.8789C142.979 57.6285 139.335 56.4609 137.207 54.8638C137.312 53.1727 136.787 50.5474 137.755 48.8373L137.826 48.7168C136.761 48.0539 135.567 47.9861 135.023 46.4644C134.749 45.6922 135.368 44.6451 136.123 44.4832C137.061 44.2835 137.766 45.4022 138.423 45.9182L138.596 45.7939L138.629 45.5717C138.066 44.7958 138.419 45.1423 138.667 44.1706C138.667 44.1706 138.524 43.4926 138.528 43.4888C138.618 43.4022 139.132 42.7769 139.121 42.6752C138.896 40.8861 140.052 40.8221 141.41 40.7128C141.508 40.7053 141.853 40.3965 141.973 40.2872L142.067 40.2006L142.063 40.1968Z" fill="#FCFCFC"/>
<path d="M144.176 43.0368L144.461 43.1649C144.709 43.534 144.438 44.1593 144.562 44.6828C144.791 45.6583 146.022 45.9823 146.014 46.9955C145.819 47.5567 145.478 47.7375 144.952 47.9974C144.705 47.8957 144.716 47.9108 144.558 47.6923L144.626 47.5454C144.96 47.3571 145.271 47.2403 145.455 46.9164C145.493 45.4512 143.399 46.2987 144.172 43.0331L144.176 43.0368Z" fill="#000001"/>
<path d="M142.881 42.517C143.185 42.5057 143.042 42.4831 143.309 42.6338C143.493 43.0444 143.481 42.8447 143.388 43.2477C142.933 43.7562 141.733 43.8956 140.982 44.099C140.911 44.1329 140.757 44.1367 140.667 44.1442C140.498 43.9107 140.543 44.0387 140.558 43.7487C141.098 42.9276 141.988 42.7091 142.881 42.517Z" fill="#000001"/>
<path d="M143.189 47.858C143.744 48.0464 143.845 48.5096 144.528 48.4343L145.223 48.3552L145.38 48.4908V48.8562C144.596 49.0219 143.849 49.0596 143.219 48.4946C143.054 48.0878 143.069 48.295 143.192 47.8543L143.189 47.858Z" fill="#000001"/>
<path d="M136.292 45.696C137.151 45.8241 137.999 46.2798 137.71 47.2855C137.406 47.1725 136.982 46.487 136.464 46.3288C136.258 46.2648 136.288 46.2309 136.179 46.0425L136.288 45.696H136.292Z" fill="#000001"/>
<path d="M142.112 44.5096C143.039 44.8711 142.843 45.583 142.386 46.2271C141.568 45.8655 141.759 45.1235 142.112 44.5096Z" fill="#000001"/>
<path d="M145.928 44.2911C146.378 44.3777 146.416 44.4455 146.581 44.8372C146.562 45.3005 146.525 45.3344 146.311 45.76C145.489 45.5943 145.737 44.8598 145.928 44.2911Z" fill="#000001"/>
<path d="M106.586 132.357C107.13 132.821 108.432 134.531 109.149 135.205C113.258 139.073 116.988 141.574 122.467 143.073C121.855 144.723 120.718 147.378 120.275 148.964H118.778H112.155C111.517 147.823 111.502 147.744 110.443 146.874C110.785 146.855 111.397 146.832 111.719 146.764C118.707 145.277 109.415 140.098 107.22 138.99C107.111 136.839 106.841 134.497 106.586 132.357Z" fill="#FCFCFC"/>
<path d="M61.9633 75.4632L62.1172 75.4858C62.1472 75.6478 62.1547 75.8022 62.1585 75.9679C64.7102 79.3126 69.7425 81.4897 73.709 82.4803C72.1592 83.7271 70.857 85.0416 69.4535 86.4465L68.5942 87.3656C64.0348 83.6329 61.7156 81.1922 58.4434 76.3484C59.6142 76.096 60.8 75.7683 61.9633 75.467V75.4632Z" fill="#FCFCFC"/>
<path d="M134.971 70.3482C140.847 70.1712 134.659 79.7985 130.989 81.2298C129.938 81.2976 129.105 80.8946 128.794 79.8249C128.321 78.1902 129.105 76.6534 129.867 75.2598C131.946 74.1411 132.82 72.6232 134.134 70.7098L134.974 70.3444L134.971 70.3482Z" fill="#FCFCFC"/>
<path d="M132.715 64.8227C137.89 65.3387 132.239 74.3671 128.621 75.1016C123.165 73.8963 129.323 65.5684 132.715 64.8227Z" fill="#FCFCFC"/>
<path d="M80.4563 76.6459C81.2106 76.9058 82.0136 77.0941 82.7867 77.29C83.0681 80.4615 82.2351 84.2582 80.8766 87.1132L79.0904 85.5878C77.8107 84.4615 76.4823 83.3994 75.1013 82.4012C77.6493 81.1131 78.8727 80.2204 80.4938 77.8286C80.4601 77.4331 80.4601 77.0452 80.4563 76.6459Z" fill="#FCFCFC"/>
<path d="M144.799 53.0408C146.893 53.2254 148.108 53.425 150.082 54.1407C149.609 54.6341 149.088 55.184 148.562 55.6172C146.108 57.6737 142.937 58.6643 139.751 58.3781C138.509 58.3065 137.601 58.0692 136.438 57.6586C136.738 56.8564 136.888 56.2311 137.098 55.3912C139.406 57.4326 143.785 57.975 145.301 54.7471C145.166 54.0352 145.046 53.7188 144.802 53.0408H144.799Z" fill="#FCFCFC"/>
<path d="M77.1051 63.1993C77.4128 63.3424 77.9494 63.7831 78.3472 63.9978C79.9871 64.8867 81.9009 65.2633 83.507 64.0769C84.0061 63.7115 84.0249 63.4027 84.5428 63.3537C85.4959 63.8207 84.3551 65.7342 83.9311 66.3519C83.4733 66.8265 83.3269 67.0035 82.689 67.1014C82.1186 66.8792 82.5201 66.5892 82.1936 66.0995C81.5669 65.1579 79.5743 65.4253 79.6306 66.7285C79.6381 66.8717 79.5705 66.9018 79.4842 67.0186C77.8068 67.3425 76.621 64.4799 77.1013 63.1955L77.1051 63.1993Z" fill="#FCFCFC"/>
<path d="M119.712 149.823C119.825 149.808 119.757 149.804 119.904 149.894L119.821 150.132C119.18 150.663 102.225 153.906 99.7372 154.576C99.5796 154.493 99.6096 154.486 99.4895 154.32L99.5646 154.154C100.09 153.887 102.919 153.484 103.711 153.303C109.006 152.075 114.384 150.908 119.712 149.827V149.823Z" fill="#657580"/>
<path d="M117.502 155.458C117.615 155.427 117.536 155.443 117.731 155.465C117.72 155.797 117.769 155.638 117.517 155.928C116.616 156.264 100.923 156.075 99.0654 156.075L98.7915 156C99.2381 155.394 102.908 155.62 103.767 155.62L113.532 155.642C114.515 155.642 116.643 155.744 117.498 155.454L117.502 155.458Z" fill="#657580"/>
<path d="M81.4356 62.3179C82.0323 62.5062 82.7828 63.0072 83.6459 63.2708C82.5051 64.1145 82.0398 64.2125 80.6664 64.1823C79.5106 63.9827 79.1691 63.8132 78.1521 63.2595C79.5743 63.139 80.1973 63.09 81.4319 62.3179H81.4356Z" fill="#FCFCFC"/>
<path d="M89.6313 52.9655C91.1699 53.9674 91.0048 56.5588 90.2655 58.0278C90.0854 58.3102 89.8452 58.6003 89.635 58.8677C89.6088 56.9128 89.6313 54.9241 89.6313 52.9693V52.9655Z" fill="#FCFCFC"/>
<path d="M201.884 44.8148L199.778 60.8001C198.964 66.981 195.605 72.5405 190.521 76.1225L185.601 79.5877C184.348 80.4729 182.666 80.4314 181.454 79.486L177.15 76.13C172.523 72.5217 169.502 67.2259 168.748 61.3952L166.605 44.8298C166.387 43.1575 167.438 41.5831 169.059 41.1461L179.766 38.2534C182.888 37.4097 186.175 37.4248 189.29 38.2911L199.456 41.1273C201.065 41.5755 202.101 43.1499 201.884 44.8148Z" fill="black"/>
<path d="M183.593 80.3222C182.816 80.3222 182.043 80.0661 181.394 79.5614L177.09 76.2054C174.778 74.4012 172.868 72.194 171.412 69.644C169.956 67.094 169.029 64.3218 168.654 61.4065L166.511 44.8411C166.29 43.1273 167.374 41.5002 169.037 41.052L179.743 38.1592C182.876 37.3118 186.19 37.3268 189.316 38.1969L199.482 41.0331C201.129 41.4927 202.202 43.1236 201.977 44.8261L199.872 60.8114C199.058 67.0036 195.669 72.612 190.573 76.1978L185.653 79.6631C185.03 80.1038 184.31 80.3222 183.593 80.3222ZM184.46 37.7299C182.891 37.7299 181.323 37.937 179.796 38.3476L169.089 41.2403C167.521 41.6659 166.496 43.2027 166.703 44.8185L168.845 61.3839C169.6 67.2296 172.572 72.4388 177.21 76.0547L181.514 79.4107C182.7 80.3335 184.317 80.3749 185.548 79.5086L190.468 76.0434C195.519 72.4877 198.878 66.9245 199.684 60.7888L201.79 44.8035C202 43.1951 200.987 41.6584 199.429 41.2215L189.263 38.3852C187.691 37.9483 186.074 37.7261 184.456 37.7261L184.46 37.7299Z" fill="white"/>
<path d="M203.591 44.9767L201.486 60.962C200.671 67.143 197.313 72.7024 192.228 76.2844L187.308 79.7497C186.055 80.6348 184.374 80.5934 183.162 79.648L178.858 76.292C174.231 72.6836 171.21 67.3878 170.455 61.5572L168.313 44.9918C168.095 43.3194 169.146 41.745 170.767 41.3081L181.473 38.4154C184.595 37.5717 187.883 37.5867 190.997 38.453L201.163 41.2893C202.773 41.7375 203.809 43.3119 203.591 44.9767Z" fill="white"/>
<path d="M185.301 80.4879C184.524 80.4879 183.751 80.2318 183.102 79.7271L178.797 76.3711C176.486 74.5669 174.576 72.3597 173.12 69.8097C171.664 67.2597 170.737 64.4876 170.362 61.5722L168.219 45.0069C167.997 43.2931 169.082 41.6659 170.744 41.2177L181.451 38.325C184.584 37.4775 187.898 37.4926 191.023 38.3626L201.189 41.1989C202.837 41.6584 203.91 43.2893 203.685 44.9918L201.58 60.9771C200.765 67.1694 197.377 72.7778 192.281 76.3635L187.361 79.8288C186.738 80.2695 186.017 80.4879 185.301 80.4879ZM186.168 37.8918C184.599 37.8918 183.03 38.099 181.503 38.5095L170.797 41.4023C169.228 41.8279 168.204 43.3646 168.41 44.9843L170.553 61.5496C171.307 67.3953 174.279 72.6045 178.918 76.2204L183.222 79.5764C184.408 80.4992 186.025 80.5407 187.256 79.6744L192.176 76.2091C197.227 72.6535 200.585 67.0903 201.392 60.9545L203.497 44.9692C203.707 43.3609 202.694 41.8241 201.137 41.3872L190.971 38.551C189.399 38.114 187.781 37.8918 186.164 37.8918H186.168Z" fill="black"/>
<path d="M171.465 61.527C171.416 61.527 171.375 61.4931 171.371 61.4442L169.228 44.8788C169.071 43.6697 169.84 42.5209 171.011 42.2008C171.063 42.1857 171.116 42.2158 171.127 42.2686C171.142 42.3213 171.112 42.374 171.059 42.3853C169.979 42.6791 169.273 43.7375 169.416 44.8524L171.559 61.4178C171.566 61.4705 171.529 61.5195 171.476 61.527C171.472 61.527 171.469 61.527 171.465 61.527Z" fill="black"/>
<path d="M180.828 39.745C180.786 39.745 180.745 39.7186 180.734 39.6734C180.719 39.6207 180.749 39.5679 180.801 39.5566L181.713 39.3118C184.663 38.5171 187.811 38.5284 190.753 39.3495C190.806 39.3645 190.836 39.4173 190.821 39.4662C190.806 39.519 190.753 39.5491 190.705 39.534C187.796 38.7242 184.682 38.7092 181.766 39.4964L180.854 39.7412C180.854 39.7412 180.839 39.7412 180.828 39.7412V39.745Z" fill="black"/>
<path d="M200.747 58.9093C200.747 58.9093 200.739 58.9093 200.735 58.9093C200.683 58.9017 200.645 58.8528 200.653 58.8L202.491 44.8298C202.638 43.7225 201.94 42.6603 200.867 42.3627L198.142 41.6019C198.09 41.5868 198.06 41.5341 198.075 41.4851C198.09 41.4324 198.142 41.406 198.191 41.4173L200.915 42.1782C202.079 42.5021 202.837 43.6547 202.679 44.8562L200.84 58.8264C200.833 58.8754 200.792 58.9093 200.747 58.9093Z" fill="black"/>
<path d="M185.304 79.4634C184.726 79.4634 184.182 79.2751 183.728 78.9211L179.424 75.565C179.383 75.5311 179.375 75.4709 179.405 75.4295C179.439 75.388 179.499 75.3805 179.54 75.4106L183.845 78.7666C184.265 79.0943 184.771 79.2676 185.304 79.2676C185.796 79.2676 186.269 79.1169 186.67 78.8344L191.59 75.3692C192.554 74.6912 193.47 73.9228 194.311 73.0866C194.348 73.049 194.408 73.049 194.446 73.0866C194.483 73.1243 194.483 73.1846 194.446 73.2222C193.598 74.066 192.674 74.8419 191.703 75.5274L186.783 78.9926C186.348 79.2977 185.837 79.4597 185.304 79.4597V79.4634Z" fill="black"/>
<path d="M186.235 65.2047C191.186 65.039 195.065 60.8765 194.9 55.9075C194.735 50.9386 190.588 47.0448 185.637 47.2105C180.687 47.3762 176.807 51.5386 176.972 56.5076C177.137 61.4766 181.284 65.3704 186.235 65.2047Z" fill="white"/>
<path d="M185.935 65.3087C180.936 65.3087 176.872 61.2295 176.872 56.2124C176.872 51.1953 180.936 47.1161 185.935 47.1161C190.933 47.1161 194.997 51.1953 194.997 56.2124C194.997 61.2295 190.933 65.3087 185.935 65.3087ZM185.935 47.3082C181.041 47.3082 177.064 51.3008 177.064 56.2124C177.064 61.124 181.045 65.1166 185.935 65.1166C190.825 65.1166 194.806 61.124 194.806 56.2124C194.806 51.3008 190.828 47.3082 185.935 47.3082Z" fill="black"/>
<path d="M185.042 62.4348C184.648 62.4348 184.28 62.2239 184.081 61.8849L180.34 55.5194C180.028 54.9883 180.205 54.299 180.734 53.9864C181.263 53.6737 181.95 53.8508 182.261 54.3819L185.004 59.0524L189.188 51.3874C189.485 50.8451 190.164 50.6454 190.704 50.943C191.245 51.2405 191.444 51.9223 191.147 52.4647L186.021 61.8547C185.83 62.2088 185.462 62.431 185.06 62.4348C185.053 62.4348 185.049 62.4348 185.042 62.4348Z" fill="black"/>
</g>
<defs>
<clipPath id="clip0_9315_1039">
<rect width="204" height="156" fill="white"/>
</clipPath>
</defs>
</svg>
