<?xml version="1.0" encoding="UTF-8"?>
<svg id="Capa_1" xmlns="http://www.w3.org/2000/svg" version="1.1" viewBox="0 0 406.68 408.22">
  <path d="M172.55,107.34c.29-6.62,2.13-4.45,5.52-6.56,2.01-3.57-5.12-7.89,8.01-9.51,1.97-.24-1.11-6.07,9.19-3.14,4.82-2.21,1.34-4.14,8.75-2.58,1.17.59,2.22,1.6,3.22,2.46,3.42-1.58,4.28-1.51,7.74-.19l.22.27c1.44,1.74,1.04,2.56,2.17,3.35,2.91-.13,4.21-1.65,7.36,1.24,1.23,1.13,1.06,3.49,1.01,5.1l-.02.59c1.64,1.54,10.4-.24,6.14,8.17,9.24,4.47,2.44,8.4,2.21,12.18,1.6,4.36,2.65,4.98-2.09,8.55.52,1.83.52,2.44.59,4.37-1.47,2.44-3.55,3.69-3.95,5.34.57,4.54-4.99,8.17-8.77,9.26-.95.04-1.84.13-2.76-.05-.12.55-.38,1.63-.44,2.14-.95,1.77-1.46,4.09-2.31,5.38-.44.98-1.61,3.07-1.86,3.68-.51.55-.46.54-1.17.77l-.11.41c-4.14,4.79-14.17,9.48-20.42,10.4-2.35-.29-5.81.91-7.62-.63-1.14-.96-.91-1.98-.91-3.37-3.09-.81-5.32-3.48-6.79-6.18-.87-1.69-1.69-4.17-2.35-6.01-.01-.28-.42-2.37-.49-2.93.03-1.97.04-3.74-.03-5.71l.79-6.59.19-.32c-.12-.93-.17-1.01.19-1.83.57-2.93.94-6.93,1.25-9.91.03-.21.05-.41.07-.62.12-1.58-.38-1.97-1.39-3.16-1.15-3.96-1.85-4.84-1.47-8.91.98-1.25,1.44-1.36,1.49-2.7-.59-1.06-.7-1.31-1.04-2.49l-.08-.28Z" fill="#020201"/>
  <path d="M216.77,145.15c.46-3.13,2.51-12.69,6.9-12.57,1.62.04,2.87,1.62,3.87,2.74.23.75.28.99.68,1.69l.4-.02c.57,4.54-4.99,8.17-8.77,9.26-.95.04-1.84.13-2.76-.05l1.77-.4c-.55-.27-1.46-.47-2.09-.64Z" fill="#fafbf7"/>
  <path d="M227.53,135.32c.23.75.28.99.68,1.69l.4-.02c.57,4.54-4.99,8.17-8.77,9.26-.95.04-1.84.13-2.76-.05l1.77-.4c-.55-.27-1.46-.47-2.09-.64,6.95.06,10.18-2.92,10.77-9.84Z" fill="#2c2c2a"/>
  <path d="M191.45,105.08c4.01,4.96,9.62,5.65,15.26,3.02,4.87,2.71,5.61.59,8.08,1.5,1.11,4.61.55,3.67,5.1,6.03-5.88,7.21-.94,5.53-1.83,10.25-1.25,6.68-3.93,17.66-9.44,21.96-2.78,2.23-4.41.94-5.8-1.34-1.52-2.49-5.97-4.38-8.75-5.28-4.13-.72-6.66-.84-10.8-.38-3.29,1.02-3.37,1.5-6.06,3.21-.81-1.05-1.82-2.28-2.58-3.35.01-8.35,2.28-20.32,5.49-28.06,1.2-2.9,2.81-4.8,4.31-7.29,1.3.32,2.9.76,4.18,1.01l2.84-1.28Z" fill="#fafbf7"/>
  <path d="M193.17,122.21l-.08.43c-.92,4.73-5.86,11.83-4.39,15.12.7.66.84.64,1.81.87-1.18.56-.74.4-2.29.27-.71-.86-1.34-1.96-1.09-3.08.79-3.57,4.28-10.59,6.04-13.62Z" fill="#2c2c2a"/>
  <path d="M201.09,117.97c2.76.58,7.7,3.59,9.79,5.61.46.44.28.93.23,1.54-1.97-.66-8.58-3.33-9.98-5.15-.46-.6-.17-1.32-.04-2Z" fill="#020201"/>
  <path d="M186,116.29c1.49-.11,4.04-.42,5.08.74-.91,1.76-5.53,2.04-7.34,2.23l-.4.09c-1.3.27-2.23.67-3.26,0l.13-.54c2.18-1.81,2.97-1.82,5.78-2.5Z" fill="#020201"/>
  <path d="M201.53,126.12c.88.04.83.04,1.59.51,1.18,1.79.2,3.52-.91,5.07l-1.35-.24c-2.13-1.71-.79-3.64.67-5.34Z" fill="#020201"/>
  <path d="M184.04,123.76c.66.08.81.14,1.44.33,1.17,1.88.09,3.39-1.17,4.88-3.2-.25-1.5-3.73-.26-5.21Z" fill="#020201"/>
  <path d="M183.57,145.83c.61-3.23,11.83-.72,13.97.64,3.32,2.7-.87,6.71-3.35,8.27-4.45-.03-6.34-.45-10.23-2.23-1.49-2.1-2.52-3.21-1.86-6.02.69-.63.29-.48,1.25-.45l.23-.21Z" fill="#fafbf7"/>
  <path d="M183.57,145.83c.99,1.21,3.61,1.48,5.26,1.81,1.05.06,8.48-.05,8.64.03-3.09,1.91-11.87,2.17-14.13-1.64l.23-.21Z" fill="#2c2c2a"/>
  <path d="M216.64,148.33c2.85,0,5.81.72,8.72.8,4.44.13,33.85-.67,35.46.3l.28.64c-2.3,2.11-4.36,3.98-6.78,5.96-.7.49-3.17,2.32-3.78,2.56l-.23-.67c-1.82-.8-13.85.1-16.81.07-6.69-.08-13.49-.28-20.18-.42-.51,1.01-.55,1.39-.77,2.52l-.06-2.71c.25-.6,1.42-2.7,1.86-3.68.85-1.29,1.36-3.61,2.31-5.38Z" fill="#fff"/>
  <path d="M173.73,135.41c-2.52-2.03-1.97-8.83,1.25-9.91-.31,2.98-.68,6.98-1.25,9.91Z" fill="#fafbf7"/>
  <path d="M173.65,121.72c1.01,1.19,1.52,1.58,1.39,3.16-.02.21-.04.42-.07.62-3.22,1.08-3.77,7.87-1.25,9.91-.37.82-.31.9-.19,1.83l-.19.32c-.05-.9-2.03-3.58-2.09-5.39-.06-1.95.22-4.53,1.51-6.11,1.83-2.24,1.89-1.76.88-4.34Z" fill="#2c2c2a"/>
  <path d="M49.91,104.65c.68.32,1.89,1.24,2.62,1.68,2.79,1.69,4.59,2.02,7.71,2.64-.58.99-1.63,2.4-2.31,3.37-2.99.38-7.44-2.47-10.12-3.89.58-1.2,1.43-2.63,2.1-3.81Z" fill="#9cebc1"/>
  <path d="M92.71,147.4c-5.54-14.67-9.61-28.17-11.89-43.79-.27-1.88-1.12-5.68-.63-7.29.52-.59.74-.81,1.33-1.32.2-.9-.01-2.25-.52-2.93-3.03-4.01-9.19-11.91-8.09-17.18.88-4.22,10.08-10.23,13.71-12.48,4.02-2.49,5.65.36,7.8,3.24,10.55,1.31,7.07,10.34,5.1,17.37-1.19,4.24.02,3.45,2.08,5.9.52.61,2.04,4.39,2.45,5.3,1.22,2.64,2.49,5.25,3.81,7.83,5.73,11.28,12.25,22.05,19.57,32.37,4,5.63,7.78,8.91,13.21,13.03.5.39,2.68,2.06,3.18,2.27.56-.61.58-.69,1.66-.68,4.61.02,9.62-.02,14.21.04,2.37.03,10.43-.3,12.3.05.27.28.41.4.62.73.08.56.48,2.65.49,2.93.67,1.83,1.49,4.32,2.35,6.01,1.47,2.7,3.71,5.36,6.79,6.18,0,1.38-.23,2.4.91,3.37,1.81,1.54,5.27.34,7.62.63,6.24-.93,16.28-5.61,20.42-10.4l.11-.41c.71-.23.66-.21,1.17-.77l.06,2.71c.22-1.13.27-1.5.77-2.52,6.69.14,13.5.34,20.18.42,2.96.03,15-.87,16.81-.07l.23.67c.61-.24,3.09-2.07,3.78-2.56,2.42-1.98,4.48-3.84,6.78-5.96l2.63-2.53c1.06-1.88,4.92-5.85,6.48-7.9,5.26-6.95,10.18-13.79,14.61-21.27,1.36-2.3,5.91-10.96,7.26-12.09.67.05.78.09,1.46-.03,3.04-4.48-9.04-20.13,7.05-23.57.73-.74,3.11-3.26,3.86-3.38,5.33-.8,15.86,10.94,17.17,14.5-.66,4.42-2.46,8.43-4.79,12.22-1.59,2.58-5.72,5.95-5.75,9.01,0,.71.34,1.04.82,1.53.12.13.45.44.56.59,1.76,2.36-5.19,22.56-5.81,26.85-.83,1.9-1.18,3.17-1.74,5.17-.67,1.9-1.37,3.78-2.1,5.66-.56,2.11-2.47,6.65-3.4,8.69-2.92,5.92-5.05,10.29-8.66,15.95-13,20.35-31.37,36.09-49.22,51.95.2,19.43.61,36.45,1.79,55.89.61,9.07,1.17,18.15,1.66,27.23.26,4.34.58,8.66.8,13,.2,3.83-1.43,1.79-1.49,5.4l-.1-.05c-.57-.92-.11-.83-.31-2.26-.93-.66-.76-.43-2.14-.44-.23.09-.5.21-.74.27-37.46,9.78-75.24,13.22-110.26-5.78l-.99.36c-.66,1.51.3,2.1-.52,3.08-.06-.69-.02-2.49-.02-3.25l-2.8-1.76c-.03-8.78,1.38-22.4,2.31-31.2,1.95-18.35,4.37-36.65,7.27-54.87,1.06-6.85,2.77-14.39,3.56-21.16-11.22-10.52-22.47-26.74-31.57-39.3-1.74-2.4-9.26-16.32-10.03-16.93-.24-1.13-1.16-2.93-1.68-4.05-.99-2.13-1.91-4.3-2.76-6.49-.23-.4-.61-1.24-.82-1.69Z" fill="#fafbf7"/>
  <path d="M92.71,147.4c-5.54-14.67-9.61-28.17-11.89-43.79-.27-1.88-1.12-5.68-.63-7.29.52-.59.74-.81,1.33-1.32.2-.9-.01-2.25-.52-2.93-3.03-4.01-9.19-11.91-8.09-17.18.88-4.22,10.08-10.23,13.71-12.48,4.02-2.49,5.65.36,7.8,3.24,10.55,1.31,7.07,10.34,5.1,17.37-1.19,4.24.02,3.45,2.08,5.9.52.61,2.04,4.39,2.45,5.3,1.22,2.64,2.49,5.25,3.81,7.83,5.73,11.28,12.25,22.05,19.57,32.37,4,5.63,7.78,8.91,13.21,13.03.5.39,2.68,2.06,3.18,2.27.56-.61.58-.69,1.66-.68,4.61.02,9.62-.02,14.21.04,2.37.03,10.43-.3,12.3.05.27.28.41.4.62.73.08.56.48,2.65.49,2.93.67,1.83,1.49,4.32,2.35,6.01,1.47,2.7,3.71,5.36,6.79,6.18,0,1.38-.23,2.4.91,3.37,1.81,1.54,5.27.34,7.62.63,6.24-.93,16.28-5.61,20.42-10.4l.11-.41c.71-.23.66-.21,1.17-.77l.06,2.71c.22-1.13.27-1.5.77-2.52,6.69.14,13.5.34,20.18.42,2.96.03,15-.87,16.81-.07l.23.67c.61-.24,3.09-2.07,3.78-2.56,2.42-1.98,4.48-3.84,6.78-5.96l2.63-2.53c1.06-1.88,4.92-5.85,6.48-7.9,5.26-6.95,10.18-13.79,14.61-21.27,1.36-2.3,5.91-10.96,7.26-12.09.67.05.78.09,1.46-.03,3.04-4.48-9.04-20.13,7.05-23.57.73-.74,3.11-3.26,3.86-3.38,5.33-.8,15.86,10.94,17.17,14.5-.66,4.42-2.46,8.43-4.79,12.22-1.59,2.58-5.72,5.95-5.75,9.01,0,.71.34,1.04.82,1.53.12.13.45.44.56.59,1.76,2.36-5.19,22.56-5.81,26.85-.83,1.9-1.18,3.17-1.74,5.17-.67,1.9-1.37,3.78-2.1,5.66-.56,2.11-2.47,6.65-3.4,8.69-2.92,5.92-5.05,10.29-8.66,15.95-13,20.35-31.37,36.09-49.22,51.95.2,19.43.61,36.45,1.79,55.89.61,9.07,1.17,18.15,1.66,27.23.26,4.34.58,8.66.8,13,.2,3.83-1.43,1.79-1.49,5.4l-.1-.05c-.57-.92-.11-.83-.31-2.26-.93-.66-.76-.43-2.14-.44l3.16-.96c-.9-12.11-1.67-24.22-2.31-36.35-1.26-20.82-2.38-41.27-2.04-62.17,6.21-4.55,14.56-12.73,20.37-18.11,30.97-28.68,42.91-53.51,50.94-94.57-6.19-2.69-14.07-7.43-19.9-10.82-.83,2.22-3.85,7.47-5.11,9.6-7.43,12.58-16.79,26.43-27.55,36.31-8.59,7.58-18.78,13.49-29.16,18.27-3.39,1.56-6.93,3.72-10.71,3.53-3,4.94-16.93,16.24-21.84,19.53-2.31-3.88-5.12-7.08-7.52-10.86-4.51,3.06-6.74,4.47-10.63,8.31-2.5-8.14-4.76-13.5-3.72-22.12-.43-.13-.85-.29-1.26-.47-10.87-4.7-36.37-20.54-44.15-29-9.22-10.04-20.96-20.78-33.83-29.47-12.27-8.07-24.46-14.41-33.94-14.41Z" fill="#fff"/>
  <path d="M212.54,160.09c.22-1.13.27-1.5.77-2.52,6.69.14,13.5.34,20.18.42,2.96.03,15-.87,16.81-.07l.23.67c-5.05,3.79-25.13,15.73-30.77,14.98-2.67-.35-5.21-1.39-7.91-1.72.05-2.63.17-9.33.68-11.76Z" fill="#fff"/>
  <path d="M211.19,158.56c.25.72-.52,13.46-.53,15.45-5.5,2.22-15.39,7.14-20.64,8.44-3.34-3.05-5.45-4.83-8.18-8.45-.12-2.04-.45-2.91.8-4.35,2.11-.93,4.42.38,8.14-.69,6.24-.93,16.28-5.61,20.42-10.4Z" fill="#fafbf7"/>
  <path d="M143.8,149.72c.56-.61.58-.69,1.66-.68,4.61.02,9.62-.02,14.21.04,2.37.03,10.43-.3,12.3.05.27.28.41.4.62.73.08.56.48,2.65.49,2.93.67,1.83,1.49,4.32,2.35,6.01-2.58-1.78-7.6-.98-10.72-1.25-1.56-.13-4.59-.01-6.04.54,1,1.26,2.44,2.3,3.08,3.21-1.72-.75-9.49-5.45-10.65-6.54-.56-.12-6.31-4.35-7.31-5.03Z" fill="#fff"/>
  <path d="M161.77,161.3c-.64-.91-2.09-1.95-3.08-3.21,1.45-.55,4.48-.67,6.04-.54,3.11.27,8.13-.53,10.72,1.25,1.47,2.7,3.71,5.36,6.79,6.18l-1.28,4.54c-6.71-.52-13.43-4.7-19.19-8.22Z" fill="#fafbf7"/>
  <path d="M301.68,83.47c.84.3.55.15,1.17.92.43,1.75-.44,3.03-1.25,4.6-1.07.37-2.18.8-3.25,1.2,3.18,3.6,6.18,4.78,5.17,9.46-.14.63.14,1.09.56,1.55.62-.71.63-3.17.74-4.34,2.32,2.19,8.05,6.13,10.61,2.67.57-.78,1.26-1.04,1.43-2.06l-.36-.26c-1.66.38-3.8,4.4-5.72,2.56-3.86-3.7,9.93-15.14,9.53-4.32-.96,3.66-2.54,7.13-4.67,10.26-2.6,3.86-4.72,5.46-5.94,9.95-5.57-2.02-10.28-5.73-15.07-7.85.16-1.6.55-3.31.86-4.89-2.69-6.51-4.12-12.28.72-18.04,2.15-.77,3.2-.98,5.46-1.41Z" fill="#fafbf7"/>
  <path d="M93.77,66.72c1.41.1,3.38.41,4.54,1.17,4.95,3.24.5,12.33-.24,16.88-.15.92.21,2.6.39,3.54-5.29,1.83-10.04,4.51-15.14,6.42l-.39-.18c-.19-1.94-1.19-3.12-2.37-4.62-2.26-2.86-3.85-5.67-5.34-9-.73-1.75-2.69-6.18-.41-7.32,2.17.8,3.29,6.1,5.02,6.88,2.61-.05,7.51-3.18,10.06-4.59-.74,1.57-3.01,6.15-1.09,7.35.28-.45.21-.3.17-.99-.26-4.04,2.81-6.84,5.5-9.55-1.76-.92-4.16-1.83-4.15-4.06.73-1.23,2.09-1.49,3.44-1.92Z" fill="#fafbf7"/>
  <path d="M212.68,173.11c1.8,0,3.99.7,5.77,1.19-.42.72-.88,1.42-1.41,2.07-2.07,2.49-16.98,15.98-19.28,16.2-1.33-2.29-5-6.86-6.72-9.22,4.32-1.71,19.46-7.18,21.64-10.23Z" fill="#fafbf7"/>
  <path d="M176.79,170.46c.39,0,3.17-.03,3.21.33.57,5.34,5.29,8.76,9.2,12.59-1.85.88-2.5,1.24-4.16,2.41-1.9,1.35-3.62,2.5-5.21,4.22-1.72-6.57-4.34-12.54-3.04-19.56Z" fill="#fafbf7"/>
  <path d="M88.25,62.58c2.01-.14,4.43,1.03,4.79,3.09-.96,1.67-2.05.98-2.83,1.67-2.64,2.32,1.55,4.32.93,6.81-3.12,2.46-4.76-6.32-6.3-7.08-.23.82.15,1.63.42,2.47.46,1.75,2.19,4.54,3.17,6.18-1.03.43-2.69.94-3.8,1.31-1.5-3.09-2.91-5.37-4.81-8.21,1.17-1.87,1.58-2.26,3.9-2.55,1.66-1.66,2.58-2.4,4.54-3.69Z" fill="#fafbf7"/>
  <path d="M308.95,82.8c2.66.43,2.7.56,4.6,2.52l-1.26.83c-2.77,1.81-4.44,3.87-6.07,6.76l-.9,1.46c-.93.48-.6.49-1.45.31-2.4-3.29,2.82-9.69,5.07-11.88Z" fill="#fafbf7"/>
  <path d="M313.12,86.57c1.52.02,3.27.85,3.79,2.34-.35,1.22-3.4,2.29-4.97,4.1-1.57,1.81-1.73,2.12-3.02,4.3-.39.57-.14.38-.75.64-.93-.27-1.61-1.24-2.3-2.01,1.72-3.86,3.68-7.05,7.25-9.37Z" fill="#fafbf7"/>
  <path d="M78.4,69.53l.75.17c1.38,1.29,4.24,6.35,4.43,8.22-.57.73-1.45.9-2.38,1.23-1.38-.39-2.96-2.58-3.93-3.87-2.18-2.88-1.23-4.21,1.13-5.76Z" fill="#fafbf7"/>
  <path d="M303.85,86c0-.14.04-1.43.04-1.44-.49-1.2-1.99-2.28-.52-3.43,1.36-1.07,3.75-.88,4.97.28.21,1.31-2.57,3.58-3.44,4.89l-1.05-.29Z" fill="#fafbf7"/>
  <path d="M303.85,86l1.05.29c-.69,1.27-2.18,4.61-3.19,5.2l-.45-.39c.06-.95,2.02-3.3,2.59-5.09Z" fill="#dcdddb"/>
  <path d="M129.25,328.1c.82-.98-.15-1.57.52-3.08l.99-.36c35.03,19,72.81,15.56,110.26,5.78.24-.06.51-.18.74-.27,1.39,0,1.22-.22,2.14.44.2,1.42-.26,1.33.31,2.26l.1.05c1.41,24.92,2.63,50.43,4.41,75.3h-120.36c-.43-25.64-.62-54.61.9-80.11Z" fill="#020201"/>
  <path d="M185.14,390.23c1.55,3.71,3.11,13.59,4.41,17.99h-8.24c.29-2.41,1.78-13.2,2.3-14.88,1.01-.57,1.19-1.93,1.53-3.11Z" fill="#fafbf7"/>
  <path d="M183.62,393.34c.01-1.64.28-3.94.86-5.48h.28c.28.95.29,1.37.39,2.37-.34,1.18-.52,2.54-1.53,3.11Z" fill="#dcdddb"/>
  <path d="M312.32,275.85c1.77-.06,4.1,2.04,5.53,3.16-2.92,4.93-3.12,5.9-1.3,11.38-7.4-2.36-8.12-8.5-4.22-14.54Z" fill="#75a1c0"/>
  <path d="M355.08,184.3c6.03,1.74,4.66,2.03,11.51,1.77-.29,1.23-.8,2.67-1.19,3.9l-.31.36c-.88.41-4.3.33-5.42.16-4.81-.75-5.23-2.35-4.59-6.19Z" fill="#e5a5a5"/>
  <path d="M381.38,128.47c1.38,0,2.02.34,2.68,1.51-.21.79-.69,1.05-1.4,1.63-3.04,2.45-2.51,5.34-3.77,8.47-.96-.16-1.78-.82-2.35-1.57-2.84-3.72,2.54-8.13,4.85-10.03Z" fill="#fce599"/>
  <path d="M25.84,77.91c1.27.8,3.09,6.78,5.01,7.92.58.35.72.51.95,1.08-.28.91-1.01,1.24-1.83,1.82-4.6,1.88-6.72-6.84-4.13-10.82Z" fill="#fce599"/>
  <path d="M299.83,387.46h.43c4.68-.01,7.72-5.37,8.91-4.44.5,3.32-1.91,5.15-4.72,6.24-2.48,1.13-5.98,1.79-7.75-.81-.01-.99-.18-.58.46-1.29.95-.31,1.67.03,2.67.3Z" fill="#9cebc1"/>
  <path d="M74.89,216.06c6.43,2.48,1.4,9.67-3.42,11.66-.85.18-1.71.38-2.5.08.3-.62,1.69-1.63,2.31-2.19,2.63-2.39,3.1-6.25,3.62-9.55Z" fill="#e5a5a5"/>
  <path d="M83.07,324.43c4.57,1.51,1.47,7.07-1.45,8.52-1.62.8-2.01.81-3.76.98-.73-.22-.76-.18-1.33-.73.61-1.9,4.96-1.93,6.55-8.77Z" fill="#d1c3c3"/>
  <path d="M282.08,333.35c5.64.43,3.11,6.64-.57,8.93-.68.28-1.44.29-2.13.05l-.15-.5.61-1.06c1.42-2.44,1.73-4.68,2.23-7.42Z" fill="#fce599"/>
  <path d="M15.69,28.2l.38.4c.21,2.11.43,4.19.02,6.27l-.44.27-1.1-.38c-3.37-2.97-1.81-4.27,1.14-6.57Z" fill="#fce599"/>
</svg>
