<svg width="18" height="18" viewBox="0 0 18 18" fill="none" xmlns="http://www.w3.org/2000/svg">
<path d="M7.51192 4.6875C7.9929 4.5681 8.49052 4.5 9 4.5C13.1421 4.5 16.5 9 16.5 9C16.5 9 15.6605 10.125 14.3033 11.25M3.6967 6.75C2.33947 7.875 1.5 9 1.5 9C1.5 9 4.85786 13.5 9 13.5C9.51371 13.5 10.0153 13.4308 10.5 13.3095L3.6967 6.75Z" stroke="#020617" stroke-linecap="round" stroke-linejoin="round"/>
<path d="M7.61782 7.73303C7.31179 8.06674 7.125 8.51157 7.125 9.00004C7.125 10.0356 7.96448 10.875 9 10.875C9.51101 10.875 9.97429 10.6706 10.3125 10.3391" stroke="#020617" stroke-linecap="round" stroke-linejoin="round"/>
<path d="M15.75 15.75L2.25 2.25" stroke="#020617" stroke-linecap="round" stroke-linejoin="round"/>
</svg>
