<?xml version="1.0" encoding="UTF-8"?>
<svg id="Capa_1" xmlns="http://www.w3.org/2000/svg" version="1.1" viewBox="0 0 139.12 182.05">
  <!-- Generator: Adobe Illustrator 30.2.1, SVG Export Plug-In . SVG Version: 2.1.1 Build 1)  -->
  <path d="M69.54,15.64c-.73-.82-1.24-1.37-1.19-2.55.05-1.11.57-2.14,1.44-2.84,1.49-1.22,2.38-.88,4.02-.44l-.02-.27c-.16-2.14.98-3.38,3.2-3.82.97-.19,1.97,1.02,3,1.09.85-1.98.8-1.55,2.52-2.47,2.62-1.4,4,1.01,5.56,1.07,3.27-1.92,4.45-1.53,6.35,1.62,2.48-1.47,4.22-1.68,6.05,1.12.54.82.35,1.33.12,2.23l-.08.28c.56.32,1.9.27,2.61.38,3.26.46,3.66,2.52,2.14,5.14,3.69,1.31,4.31,4.55,1.17,6.94.75.89,1.77,2.09,1.61,3.34-.3,2.24-2.87,1.79-1.44,4.59.66,1.29-.84,2.79-1.76,3.71.91,4.08-2.21,7.3-6.24,7.36-.44,2.73-.68,4.66-2.2,6.98.08,2.99.03,5.94.08,8.92,2.1.34,4.2,1.04,6.24,1.63,6.51,1.85,14.71,4.04,18.87,9.76,4.84,6.67,13.17,32.76,11.74,40.92-1.07,6.12-13.65,16.71-18.62,20.89.21,1.76.88,5.69.17,7.11-.44.32-.53.37-1.02.6,2.71,40.26,5.19,80.54,7.44,120.82l-2.2.66c.4,3.66,1.03,6.18,3.88,8.81,2.9,2.66,6.51,1.41,8.37,2.95,3.8.5,17.54-.18,20.03,1.71l-.03.27c-3.47,1.16-15.62-.98-19.85-1.37.14,1.37.13,1.81-.16,3.18,5.11.11,10.22.16,15.34.16,2.9.02,6.49-.05,9.33.22-1.31.91-1.37.16-2.1.66-1.27.08-2.54.22-3.8.32-15.17,1.23-30.59.49-45.8.54l-32.92-.08c-11.39,0-22.78-.06-34.18-.19-5.85-.11-11.23-.64-17.18-.71-.58.06-4.59.09-5.02.03-2.24-.32-16.41.39-17.49-.22.99-.49,6.04-.35,7.52-.35,13.35-.76,26.9-.36,40.26-1.33.16-.01.82-2.26,1.17-2.8-5.09.22-10.63.94-15.65,1.21-2.8.15-15.84.36-17.5-.6.46-.45,2.14-.64,2.83-.63,8.76.11,17.52-.3,26.27-.5,3.14-.08,11.83.11,14.17-1.87-.05-.35-.08-.46-.12-.84.61-.76,2.47-1.41,3.36-1.11,1.55-1.1,2.98-2.63,4.27-4,.15-1.22.14-2.24.16-3.47-.7-.19-1.45-.48-2.14-.72.03-3.18-.33-7.96-.48-11.27l-.95-22.01-3.95-82.96c-2.39,1.72-11.31,8.15-12.7,7.36-16.12-9.23-35.01-26.67-38.42-45.62-2.19-12.13-.52-16.06-.9-27.22.14-5.76-.35-11.63.11-17.35.12-1.54,9.61-1.28,11.36-1.63,4.67-.92,9.49-2.03,13.68-4.33-.41-.41-.68-.59-.29-1.12.66-.11,1.82-.07,2.54-.07,4.09-1.74,7.77-5.27,11.36-7.83.24-.17.96-.54,1.23-.31,7.68,6.69,20.98,14.5,31.47,13.12l.03-3.78c-5.46-3.8-6.54-8.98-5.97-15.35-3.82-1.12-4.98-5.97-1.82-8.86h-.03c-2.55-2.61-3.73-5.37-.84-7.87.7-.6-5.25-4.37,1.96-6.94h.02Z"/>
  <path d="M29.88,54.65c-.41-.41-.68-.59-.29-1.12.66-.11,1.82-.07,2.54-.07-.88.54-1.28.77-2.25,1.19h0Z" fill="#f7f6f1"/>
  <path d="M44.31,47.26c.45.29,1.9,1.52,2.44,1.93,1.71,1.36,3.48,2.63,5.31,3.81,9.83,6.35,19.53,7.94,30.88,8.1-.3,8.47,0,17.24-.12,25.76-.1,6.71.31,13-1.28,19.65-3.4,14.16-13.25,25.89-24.6,34.57-3.74,2.86-8.14,5.56-12.12,8.03-1.25-.14-4.16-2.46-5.31-3.23-17.24-11.59-33.41-28.9-33.19-51.01.04-4.42.22-8.92.19-13.44l-.12-12.33c0-.85-.3-6.83.34-7.58.26-.3,2.47-.38,3.12-.38,13.46.2,24.31-5.66,34.47-13.88h0Z" fill="#0261da"/>
  <path d="M44.25,52.54c1.52.98,3.01,2.45,4.59,3.53,5.86,4.01,12.49,6.75,19.47,8.05,2.64.47,5.39.45,8.01.95.46.09,1.46.28,1.7.73.43.81.27,31.08-.02,34.44-.27,3.02-.88,6-1.84,8.89-4.37,13.13-15.13,24.12-26.52,31.61-1.46.96-3.64,2.39-5.16,3.15-1.36-.61-3.3-2.14-4.56-3.04-14.15-10.11-27.72-24.52-29.32-42.67-.21-4.39-.14-8.85.01-13.24.21-5.86,0-11.67-.07-17.53-.16-1.88,1.26-2.01,2.87-2.13,11.21-.83,22.3-5.29,30.84-12.72h0Z"/>
  <path d="M44.08,54.68c.7.09,3.72,2.48,4.61,3.09,2.47,1.68,5.09,3.15,7.82,4.39,6.57,2.93,13.31,3.81,20.38,4.42.32,8.53-.49,17.75-.11,26.41,1.02,22.97-13.98,37.57-32.12,49.23-4.82-2.68-13.52-10.1-17.34-14.07-7.74-8.04-14.66-19.11-15.26-30.45-.29-5.43.1-11.76.23-17.3.11-4.61-.22-9.11-.14-13.65,13.99-1.03,20.73-4.02,31.95-12.06h0Z" fill="#fff"/>
  <path d="M42.88,72.92c5.7-.34,10.72,1.25,13.56,6.56,1.85,3.46,1.73,7.07,1.95,10.87,1.03.29,2.28.51,2.4,1.81.21,2.26.19,4.57.24,6.84l.23,12.45c.05,4.99-.84,6.51-6.32,6.59-3.03.04-6.14-.01-9.17,0-2.97.03-11.72.52-13.94-.04-1.24-.32-2.17-1.03-2.78-2.17-.59-1.11-1.38-22.18-.86-23.62.3-.83,1.21-1.14,1.94-1.45.3-4.62-.41-8.71,2.85-12.92,2.48-3.2,5.99-4.49,9.9-4.92h0Z"/>
  <path d="M57.58,92.16c.65-.02.62-.03,1.25.15.62.75.52,1.4.55,2.42.18,6.42.38,12.92.24,19.34-.03,1.58-2.1,2.17-3.46,2.21-6.25.18-12.57.13-18.83.28-1.57.04-3.54.15-5.07-.05-1.42-.78-2.48-2.52-2.24-3.95.46-2.79-.98-17.97-.25-19.69,1.76-.6,7.39-.44,9.64-.48l18.18-.22h0Z" fill="#0261da"/>
  <path d="M42.83,96.6c1.49-.24,2.92-.21,4.24.61.87.54,1.49,1.41,1.72,2.42.44,1.91-.38,3.01-1.33,4.49-.03,2.04.15,4.67.24,6.75l-1.86.06c-1.14,0-2.96.18-3.99-.03-.98-1.37-.08-4.48-.52-5.8-1.1-3.31-3.87-6.85,1.49-8.5h0Z" fill="#fff" stroke="#0a0a09" stroke-miterlimit="10" stroke-width="4"/>
  <path d="M36.53,90.74c-.34-5.91.22-11.38,7.84-11.51,1.9-.03,3.22.29,4.79,1.42.68.57.88.66,1.3,1.41,1.66,2.01,1.31,6,1.24,8.53-4.95-.06-10.18.13-15.17.16h0Z" fill="#fff"/>
  <path d="M42.62,74.54c6.54-.85,12.73,2.79,13.79,9.47.16,1.03.57,5.56.1,6.27-.61.31-2.54.52-2.49-.53.32-6.49-1.39-11.33-8.47-12.56-.78-.06-1.47-.11-2.26-.05-2.01.14-3.93.88-5.51,2.12-5.39,4.27-2.62,9.68-4.32,11.65-.78.24-1.64-.11-1.71-.98-.66-8.41,2.08-14.03,10.86-15.41h0Z" fill="#0261da"/>
  <path d="M24.08,101.26l.65.58-.02.3-.71.41c-.42-.15-.23-.04-.52-.41.16-.63.04-.33.6-.89h0Z" fill="#ecebe8"/>
  <path d="M34.17,65.01l.23.16c.09.6.04.43-.38,1.1-.44-.33-.31-.12-.51-.57l.66-.69h0Z" fill="#ecebe8"/>
  <path d="M101.2,59.95c4.66,1.26,15.01,4.42,18.19,7.98,5.34,6,7.68,16.4,10.11,24.04,1.35,4.23,3.15,11.77,3.18,16.18.05,7.26-13.28,17.7-18.02,22.24-.59-6.21-1.26-12.41-1.99-18.61,1.52-1.51,3.78-4.25,5.27-5.41-.89-2.05-4.94-11.85-4.89-13.49.02-.44.03-.73-.11-1.16l-.25-.08c-.5.79-1.28,15.96-1.13,17.81.4,4.8,1.3,11.2,1.86,16.15.44,4.14.81,8.28,1.11,12.43-4.4,1.58-9.54,2.39-14.13,3.23-15.24,2.82-24.83,3.69-39.8-.79,2.35-1.9,4.59-3.94,6.71-6.11,8.58-8.76,15.45-20.2,16.82-32.54.51-4.58.35-10.05.36-14.73.03-6.95.02-13.89-.03-20.84,2.04,1.84,4.19,4.3,5.96,6.42,3.31-3.23,8.87-8.63,10.77-12.73h.01Z" fill="#fff"/>
  <path d="M86.02,166.38c.59.47,1.32,5.1,1.55,6.28l2.36,11.91c2.22,10.94,4.37,21.9,6.48,32.87l5.44,28.34c.86,4.45,2.22,10.5,2.82,14.87.95.21,1.61.33,2.53.68.64,1.2-.35,5.71-.21,7.54.17,2.32.48,3.83.98,6.08-3.66.03-6.71-.24-10.37-.5-4.4-.18-8.9-.18-13.3-.14-2.54.02-5.17.3-7.73.38.24-1.56.85-3.82.81-5.39-.08-3.08-.76-5.9-.99-9.12l2.29-.51c-.03-2.38.54-7,.78-9.5.5-5.44.96-10.88,1.39-16.32,1.77-22.35,3.91-45.12,5.17-67.47h0Z" fill="#f7f6f1"/>
  <path d="M79.2,17.69c.17.02.38.2.5.3,3.39,2.9,6.5,2.71,10.13.43,1.39,1.91,3.53,1.73,5.46.83l.24-.11.19.11c.95,2.52-.08,2.15,2.93,3.51-1.42,2.23-2.55,4.01-.05,6.04-2.33,6.66-.19,12.09-7.2,16.34-2.37-3.09-5.94-4.06-9.66-4.53-3.02-.38-5.75.82-8.05,2.69-.89-1.09-2.58-3.25-2.52-4.64.27-7.15-1.22-14.9,3.54-20.79,1.76,1.26,2.81.96,4.51-.19h0Z" fill="#fff"/>
  <path d="M87.4,25.73c1.12.08,5.73,2.04,6.63,2.96.49.49.41.56.38,1.11-1.93-.24-6.07-1.15-7.25-2.7-.12-.75-.07-.54.25-1.36h0Z"/>
  <path d="M78.5,25.52c1.03-.07,1.53-.35,2.05.56l-.15.4c-1.09.86-4.34,1.33-5.88,1.7-.79.24-1.03.42-1.74-.03.03-1.95,4.3-2.44,5.71-2.63h0Z"/>
  <path d="M82.29,29.46l.39.32c.5,2.47-2.93,7.35-1.15,9.34.54.27.87.11,1.43,0l.31.33c-.8.51-2.2.87-2.62-.18-1.01-2.52.99-7.21,1.64-9.79h0Z"/>
  <path d="M89.12,30.89c1.81,1.23,1.3,2.94-.16,4.23-1.68-1.31-1.55-3.01.16-4.23Z"/>
  <path d="M77.15,29.98l.66.16c1.25,1.01.73,2.64-.03,3.77-2.19-.39-1.4-2.62-.64-3.94h0Z"/>
  <path d="M77.28,57.3c4.73,3.13,15.32-3.34,18.49-7.33-.05,3.18-.17,6.24.18,9.41-4.57,3.88-7.38,4.06-11.47,6.72,0-1.22.25-5.45-.35-6.22-1.64-1-6.19-.13-7.17-.72l-.03-.13c.11-.62.2-1.11.35-1.73h0Z" fill="#fff"/>
  <path d="M96.86,58.69c1.23.43,2.47.73,3.73,1.06-1.03,1.98-8.6,11.33-10.16,11.83l-.39-.35c-1.6-2.1-2.64-3.17-4.61-4.94,2.53-1.14,10.97-4.9,11.43-7.6h0Z" fill="#fff"/>
  <path d="M78.74,48.3c-5.81-4.16,2.39-6.4,7.44-4.03,3.15,1.13.46,3.8-.96,5.1-1.68-.28-3.76-.9-5.39-1l-1.09-.07h0Z" fill="#f7f6f1"/>
  <path d="M78.58,44.93v-.23s.24-.18.24-.18c3.21,1.33,4.29,1.19,7.36-.24-1.5,2.83-5.35,1.79-7.61.65h0Z"/>
  <path d="M101.52,33.16c4.7.24,2.55,5.95-.65,7.93-.69.18-1.33.37-2.01.21-.96-1.47,1.08-6.95,2.66-8.14Z" fill="#f7f6f1"/>
  <path d="M113.03,96.85c.59.66,3.03,7.57,3.89,9.11-.73.73-1.58,1.71-2.29,2.5l-2.03,2.02.43-13.63h0Z" fill="#f7f6f1"/>
  <path d="M69.61,30.71l.47.34c.22.8.19,6.32.04,7.2-.58-.04-.8-.29-1.35-.62-1.94-2.43-2.04-5.22.84-6.91h0Z" fill="#f7f6f1"/>
  <path d="M76.93,59.03c-.07-1.4-.28-2.51.28-3.77l.22.05c.22.72.1.95-.08,1.73l-.06.27c-.16.62-.24,1.1-.35,1.73Z" fill="#ecebe8"/>
  <path d="M142.36,120.61c.78.59.68,1.84.15,2.61l-.33-.26c-.26-.55.07-1.6.18-2.35h0Z" fill="#ecebe8"/>
</svg>
