<svg id="Layer_1" xmlns="http://www.w3.org/2000/svg" version="1.1" viewBox="0 0 595.28 197">
  <defs>
    <style>
      .st3 {
        fill: #42b1db;
      }
    </style>
  </defs>
  <path class="st3" d="M53.58,116.97h-8.38v56.42h-28.13V30.35h91.91v27.53h-63.7v31.25h49.29v27.85h-40.99Z"/>
  <path class="st3" d="M299.62,153.19c0-13.31.23-26.37-.12-39.42-.13-5.05-.94-10.27-2.57-15.02-1.48-4.31-4.73-7.58-9.58-9.21-3.11-1.05-6.19-1.2-9.04-.67-3.73.7-7.33,2.4-10.17,5.26-5.46,5.5-7.58,12.19-8.32,19.84-1.92,19.72-.1,39.47-1.08,59.37h-27.42v-107.82h27.52v9.94c2.81-1.79,5.66-3.22,8.04-5.21,3.7-3.1,8.22-4.33,12.51-6.1,1.45-.6,3.18-.69,4.79-.72,4.27-.09,8.56-.17,12.83.01,3.81.16,7.38,1.25,10.6,3.49,2.89,2.01,6.43,3.3,8.82,5.74,3.84,3.93,7.16,8.26,8.64,13.98,1.91,7.37,2.37,14.74,2.36,22.25-.05,20.5-.02,40.99-.02,61.49,0,.91,0,1.81,0,2.92h-27.78v-20.14Z"/>
  <path class="st3" d="M178.71,145.93c1.3-1.23,2.85-2.09,3.6-3.41,1.05-1.87,1.79-4.03,2.18-6.15,4.09-22.51,1.14-45.24,2.03-67.86.03-.83.02-1.65.04-2.48,0-.14.12-.28.24-.54h27.33c.06.77.15,1.48.15,2.19,0,17.28.13,34.56-.07,51.84-.08,6.47-.55,12.98-1.53,19.37-1.12,7.29-3.69,14.31-8.07,20.26-2.57,3.5-5.77,6.64-9.68,9.1-3.61,2.27-7.09,4.47-11.31,5.31-2.28.45-4.64.72-6.81,1.5-5.42,1.94-11.01,1.11-16.42.77-6.17-.39-12.34-1.43-18.03-4.63-4.23-2.38-8.21-4.88-11.31-8.58-3.06-3.66-5.77-7.53-7.48-12.08-1.71-4.54-2.49-9.19-3.3-13.95-.65-3.81-.33-7.54-.76-11.27-2.24-19.23-.36-38.53-1-57.78-.05-1.61.54-2.18,2.15-2.17,8.76.05,17.52.02,26.64.02,0,.96,0,1.82,0,2.69,0,20.09-.29,40.19.16,60.27.15,6.66,1.65,13.57,7.77,17.98,2.74,1.97,5.7,3.68,9.28,3.38,3.18-.26,6.4-.43,9.5-1.09,1.63-.34,3.05-1.65,4.66-2.68Z"/>
  <path class="st3" d="M366.11,169.55c-3.31-2.46-6.64-4.88-9.92-7.39-1.24-.95-2.33-2.08-3.41-3.46.53-1.79,1.34-3.23,1.34-4.68.09-17.94.06-35.87.06-53.81,0-5.62-.02-11.24,0-16.86,0-1.46-.12-2.71-2.05-2.61.67-.94,1.23-1.98,2.02-2.8,3.26-3.38,6.76-6.46,11.34-8.5.75.94,1.51,1.8,1.5,2.64-.06,11.78-.24,23.56-.32,35.34,0,.87.59,1.74.91,2.62-.02.53-.03,1.05-.23,1.85-.38,1.05-.58,1.83-.78,2.61,0,2.44-.14,4.89.03,7.33.13,1.88.63,3.73.87,5.97-.11,1.59-.26,2.81-.13,4.01.34,3.17,1.08,6.32,1.15,9.48.17,7.89-.02,15.79.1,23.68.03,2.16-.54,3.67-2.51,4.57Z"/>
</svg>
