<?xml version="1.0" encoding="UTF-8"?>
<svg id="Layer_1" xmlns="http://www.w3.org/2000/svg" version="1.1" viewBox="0 0 595.28 197">
  <!-- Generator: Adobe Illustrator 30.1.0, SVG Export Plug-In . SVG Version: 2.1.1 Build 136)  -->
  <path d="M356.67,256.87H.5V-55.65h595.28v312.52h-239.1M383.97,90.2s.01.03.43,0c2.27-.5,4.52-1.26,6.82-1.43,3.16-.24,6.36-.05,9.65.34,1.68.39,3.66.34,5,1.24,3.99,2.66,8.76,4.37,11.38,9.03.14.05.29.1.65.23,0,0,.23.03.28.33.15.23.3.46.5,1.01.06.21.11.41.27.95,3.09,4.49,4.64,9.49,4.87,15.61.98-.75,1.66-1.2,2.25-1.75.27-.25.26-.78.51-1.06,1.87-2.1,3.85-4.12,5.64-6.28,1.24-1.49,2.24-3.18,3.7-4.84,3.56-3.93,7.02-7.96,10.73-11.75,2.62-2.68,3.97-5.36,3.9-9.4-.3-18.48-.13-36.97-.13-55.45v-2.67c-6,0-11.68,0-17.82-.07h-10v52.02c-1.18-1.03-2.3-2-3.59-3.29-2.24-1.51-4.37-3.26-6.76-4.48-3.13-1.58-6.15-3.71-10.21-3.62-.11-.16-.22-.31-.29-.72-.14-.05-.29-.09-.86-.22-5.65-.15-11.29-.29-17.38-.51-4.41.09-8.62,1.07-12.6,2.97-1.84.88-3.58,1.96-5.74,2.96-4.24,2.13-7.75,5.21-11,8.59-.79.82-1.36,1.86-2.38,2.83-1.85,1.38-2.57,3.65-3.93,5.28-3.52,4.22-5.01,9.37-6.84,14.2-1.66,4.37-1.97,9.39-2.11,14.15-.19,6.58-.74,13.25,1.36,19.72,1.16,3.58,1.64,7.46,3.29,10.78,2.43,4.93,5.23,9.74,9.14,14.14,1.16,1.05,2.26,2.18,3.49,3.12,3.27,2.5,6.61,4.93,9.96,7.78.1.19.15.49.3.54,2.9,1.05,5.77,2.19,8.72,3.07,3.05.92,6.18,1.58,9.7,2.43,1.86.34,3.72.96,5.58.94,2.36-.03,4.71-.53,7.05-.94,2.28-.4,4.54-.94,7.22-1.46.41,0,.88.11,1.23-.04,3.01-1.32,6.11-2.49,8.94-4.12,2.57-1.47,4.86-3.46,7.66-5.04v8.12c5.27,0,10.12,0,15.43.07h12.44v-2.97c0-10.97-.03-21.94.05-32.9,0-.98.46-2.08,1.03-2.91,1.71-2.49,3.59-4.87,5.76-7.34,2.61-2.95,5.05-6.08,7.86-8.83,5.41-5.3,11.03-10.38,16.83-15.53.09-.14.19-.29.25-.43,0,0,.02.03.33-.11,1.05-.95,1.99-2.1,3.19-2.82,2.79-1.67,5.85-2.92,8.55-4.71,4.05-2.69,8.87-3.1,13.64-4.79,2.2-.16,4.39-.48,6.59-.45,4.42.06,8.85.31,13.33.88,1.41.66,2.86,1.26,4.24,2,2.09,1.13,4.53,1.97,6.06,3.64,1.59,1.74,3.4,3.28,4.74,5.44,2.03,3.29,3.67,6.46,3.83,10.66.31.23.62.46.97,1.12.03,1.17.06,2.34.02,3.97-.01,2.63.34,5.33-.13,7.87-.6,3.22-1.89,6.32-3.17,9.6-.23.45-.46.9-1.04,1.41-.18.33-.37.67-.7,1.32-2.69,3.22-5.36,6.37-9.22,8.44-3.91,2.08-7.78,3.79-12.29,3.65-1.23-.04-2.47.05-4.14,0-10.5-.88-18.33-5.73-22.... <truncated>
  <path d="M53.58,116.97h-8.38v56.42h-28.13V30.35h91.91v27.53h-63.7v31.25h49.29v27.85h-40.99Z" fill="#fff"/>
  <path d="M299.62,153.19c0-13.31.23-26.37-.12-39.42-.13-5.05-.94-10.27-2.57-15.02-1.48-4.31-4.73-7.58-9.58-9.21-3.11-1.05-6.19-1.2-9.04-.67-3.73.7-7.33,2.4-10.17,5.26-5.46,5.5-7.58,12.19-8.32,19.84-1.92,19.72-.1,39.47-1.08,59.37h-27.42v-107.82h27.52v9.94c2.81-1.79,5.66-3.22,8.04-5.21,3.7-3.1,8.22-4.33,12.51-6.1,1.45-.6,3.18-.69,4.79-.72,4.27-.09,8.56-.17,12.83,0,3.81.16,7.38,1.25,10.6,3.49,2.89,2.01,6.43,3.3,8.82,5.74,3.84,3.93,7.16,8.26,8.64,13.98,1.91,7.37,2.37,14.74,2.36,22.25-.05,20.5-.02,40.99-.02,61.49v2.92h-27.78v-20.14.02Z" fill="#fff"/>
  <path d="M178.71,145.93c1.3-1.23,2.85-2.09,3.6-3.41,1.05-1.87,1.79-4.03,2.18-6.15,4.09-22.51,1.14-45.24,2.03-67.86.03-.83.02-1.65.04-2.48,0-.14.12-.28.24-.54h27.33c.06.77.15,1.48.15,2.19,0,17.28.13,34.56-.07,51.84-.08,6.47-.55,12.98-1.53,19.37-1.12,7.29-3.69,14.31-8.07,20.26-2.57,3.5-5.77,6.64-9.68,9.1-3.61,2.27-7.09,4.47-11.31,5.31-2.28.45-4.64.72-6.81,1.5-5.42,1.94-11.01,1.11-16.42.77-6.17-.39-12.34-1.43-18.03-4.63-4.23-2.38-8.21-4.88-11.31-8.58-3.06-3.66-5.77-7.53-7.48-12.08-1.71-4.54-2.49-9.19-3.3-13.95-.65-3.81-.33-7.54-.76-11.27-2.24-19.23-.36-38.53-1-57.78-.05-1.61.54-2.18,2.15-2.17,8.76.05,17.52.02,26.64.02v2.69c0,20.09-.29,40.19.16,60.27.15,6.66,1.65,13.57,7.77,17.98,2.74,1.97,5.7,3.68,9.28,3.38,3.18-.26,6.4-.43,9.5-1.09,1.63-.34,3.05-1.65,4.66-2.68h.04Z" fill="#fff"/>
  <path d="M544.66,134.78c.99-3.15,2.27-6.25,2.88-9.47.48-2.54.12-5.24.35-8.11,1.75-.32,1.9-1.31,1.54-2.45-.27-.84-.01-2.42-1.81-1.72-.31-.23-.62-.46-.78-.98,2.66-1.12,2.88-3.02,2.85-5.34-.11-8.4-.04-16.8-.05-25.2,0-3.11.44-6.29-1.59-9.06-.16-.22.09-.75.16-1.13,2.31,1.39,4.64,2.78,6.94,4.19,3.83,2.35,6.64,5.76,9.33,9.24,1.85,2.4,3.66,4.93,4.92,7.66,1.79,3.87,3.24,7.93,4.51,12.02.81,2.6,1.1,5.38,1.51,8.09.41,2.68,1.04,5.39.92,8.06-.2,4.31-.22,8.85-1.61,12.85-1.94,5.57-3.34,11.49-7.2,16.28-2.88,3.57-5.31,7.57-8.54,10.77-4.33,4.28-9.3,7.88-15.11,10.24,2.05-3.07,1.83-6.47,1.8-9.85-.04-6.85.06-13.71-.06-20.56-.03-1.84-.63-3.67-.97-5.51v-.02Z" fill="#fff"/>
  <path d="M492.58,169.56c-2.29-1.38-4.58-2.76-6.88-4.13-4.01-2.38-6.99-5.94-10-9.34-2.42-2.73-4.16-6.08-6.07-9.23-1.13-1.86-2.1-3.83-2.95-5.84-.91-2.17-1.64-4.41-2.36-6.65-.43-1.34-.75-2.72-.97-4.11-.09-.57,0-1.38.36-1.78,1.75-1.97,3.61-3.84,5.43-5.76,5.03-5.29,9.93-10.71,16.11-14.77,1.88-1.23,3.16-3.36,5.02-4.64,1.42-.97,3.33-1.24,5.52-2-.81,1.91-1.39,3.34-2.03,4.75-.57,1.27-1.37,2.46-1.78,3.78-1.41,4.6-2.08,9.42-1.24,14.08.61,3.4.68,7.22,3.18,10.36-.17,1.16-.31,2.02-.19,2.84.15,1.05.76,2.06.77,3.09.07,8.88.1,17.76-.04,26.64-.01.91-1.23,1.81-1.89,2.71h.01Z" fill="#fff"/>
  <path d="M366.11,169.55c-3.31-2.46-6.64-4.88-9.92-7.39-1.24-.95-2.33-2.08-3.41-3.46.53-1.79,1.34-3.23,1.34-4.68.09-17.94.06-35.87.06-53.81,0-5.62-.02-11.24,0-16.86,0-1.46-.12-2.71-2.05-2.61.67-.94,1.23-1.98,2.02-2.8,3.26-3.38,6.76-6.46,11.34-8.5.75.94,1.51,1.8,1.5,2.64-.06,11.78-.24,23.56-.32,35.34,0,.87.59,1.74.91,2.62-.02.53-.03,1.05-.23,1.85-.38,1.05-.58,1.83-.78,2.61,0,2.44-.14,4.89.03,7.33.13,1.88.63,3.73.87,5.97-.11,1.59-.26,2.81-.13,4.01.34,3.17,1.08,6.32,1.15,9.48.17,7.89-.02,15.79.1,23.68.03,2.16-.54,3.67-2.51,4.57h.03Z" fill="#fff"/>
  <path d="M435.56,103.62c-1.11,1.6-2.11,3.29-3.35,4.79-1.79,2.16-3.77,4.18-5.64,6.28-.25.28-.25.81-.51,1.06-.58.55-1.27,1-2.25,1.75-.22-6.12-1.78-11.11-4.73-15.79.61-1.09,1.49-1.99,1.51-2.91.13-5.78.22-11.57,0-17.35-.1-2.74-.92-5.45-1.41-8.18,1.12.97,2.23,1.95,3.42,2.98V24.23c3.46,0,6.73,0,10.31.18,2.8,1.11,3.19,2.97,3.18,5.44-.09,19.65-.02,39.3-.07,58.95-.01,4.94-.3,9.88-.45,14.81h0Z" fill="#fff"/>
  <path d="M438.6,110.03c.25-.65.35-1.43.78-1.91,2.31-2.57,4.75-5.02,7.07-7.58,2.34-2.58,4.59-5.25,6.93-7.83.79-.87,1.75-1.6,2.98-2.46,2.15-.08,2.51,1.04,2.5,2.55-.02,4.11.11,8.22-.03,12.33-.26,7.47,1.23,15.1-1.94,22.32-1.81,2.42-3.68,4.8-5.4,7.29-.57.82-1.02,1.93-1.03,2.91-.07,10.97-.05,21.94-.05,32.9v2.97c-4.25,0-8.34,0-12.62-.2.61-1.43,2.09-2.67,2.09-3.91.15-18.94.12-37.89.04-56.83,0-.85-.88-1.7-1.34-2.55h.02Z" fill="#fff"/>
  <path d="M435.74,103.6c-.02-4.91.26-9.85.27-14.79.05-19.65-.02-39.3.07-58.95.01-2.47-.39-4.34-2.95-5.41,5.6-.15,11.28-.15,17.28-.15v2.67c0,18.48-.17,36.97.13,55.45.06,4.04-1.29,6.72-3.9,9.4-3.71,3.79-7.16,7.82-10.91,11.78h.01Z" fill="#fff"/>
  <path d="M438.52,110.19c.55.69,1.43,1.54,1.43,2.39.08,18.94.1,37.89-.04,56.83,0,1.24-1.48,2.47-2.32,3.87-4.9.16-9.75.16-15.02.16,0-2.75,0-5.43-.14-8.37.48-1.44,1.61-2.62,1.63-3.81.14-9.82.12-19.63.02-29.45,0-.82-.96-1.63-1.47-2.45,2.68-3.35,5.38-6.68,8.02-10.06,1.58-2.02,3-4.19,4.64-6.16.89-1.07,2.11-1.87,3.26-2.96h0Z" fill="#fff"/>
  <path d="M351.97,80.76c2.1-.11,2.23,1.13,2.22,2.6-.03,5.62,0,11.24,0,16.86,0,17.94.03,35.87-.06,53.81,0,1.45-.82,2.89-1.35,4.49-3.99-3.87-6.78-8.69-9.21-13.61-1.64-3.32-2.12-7.21-3.29-10.78-2.1-6.47-1.56-13.14-1.36-19.72.14-4.76.45-9.78,2.11-14.15,1.84-4.84,3.32-9.99,6.84-14.2,1.36-1.63,2.08-3.89,4.11-5.29h0Z" fill="#fff"/>
  <path d="M457.07,127.42c2.99-7.19,1.5-14.82,1.76-22.3.14-4.11,0-8.22.03-12.33,0-1.5-.35-2.63-2.35-2.62.77-1.16,1.61-2.47,2.75-3.42,2.52-2.11,5.14-4.11,7.82-6.03,4.97-3.56,9.76-7.42,15.87-9.18-.35,10.5,1.39,20.85-.75,31.09,0,0-.02-.03-.1.03-.21.14-.32.24-.43.35-5.53,5.17-11.15,10.26-16.56,15.56-2.81,2.75-5.25,5.87-8.04,8.86h0Z" fill="#fff"/>
  <path d="M544.51,134.84c.49,1.77,1.08,3.6,1.11,5.44.12,6.85.02,13.71.06,20.56.02,3.38.25,6.78-1.99,9.87-2.82,1.16-5.61,2.16-8.42,3.12-.85.29-1.73.5-2.6.71-4.71,1.12-9.46,1.85-14.51,1.24.12-1.82.64-3.42.68-5.02.11-5.12.17-10.24-.03-15.36-.07-1.88-.92-3.73-1.41-5.59,1.23-.03,2.47-.11,3.7-.08,4.51.14,8.39-1.57,12.29-3.65,3.87-2.06,6.53-5.21,9.44-8.65.42-.53.63-.85.84-1.16.23-.45.46-.9.84-1.42h0Z" fill="#fff"/>
  <path d="M482.36,102.56c1.99-10.17.25-20.52.78-31.04.66-.88,1.21-1.83,2.01-2.11,4.22-1.49,8.46-2.97,12.78-4.14,2.78-.75,5.71-.94,8.85-1.24,1.82,1.63,2.26,3.42,2.2,5.53-.11,4.38.14,8.77-.1,13.13-.13,2.49-.93,4.94-1.42,7.4-4.35,1.76-9.16,2.16-13.22,4.86-2.7,1.79-5.76,3.05-8.55,4.71-1.2.71-2.13,1.87-3.35,2.89h.02Z" fill="#fff"/>
  <path d="M517.18,149.77c.71,1.9,1.56,3.75,1.63,5.63.2,5.11.14,10.24.03,15.36-.04,1.61-.56,3.2-.91,4.99-8.99.5-17.31-1.82-25.29-6.01.6-1.08,1.82-1.97,1.83-2.88.14-8.88.11-17.76.04-26.64,0-1.03-.61-2.04-.77-3.09-.12-.82.02-1.68.16-2.65,4.72,9.53,12.56,14.38,23.28,15.3h0Z" fill="#fff"/>
  <path d="M548.17,71.13c-.03.57-.29,1.09-.13,1.31,2.02,2.77,1.58,5.96,1.59,9.06.01,8.4-.06,16.8.05,25.2.03,2.32-.19,4.22-2.82,5.16-.34-3.74-1.99-6.9-4.01-10.19-1.33-2.17-3.15-3.71-4.74-5.44-1.52-1.67-3.97-2.51-6.06-3.64-1.37-.74-2.82-1.34-4.08-2.22.71-1.41,1.58-2.55,1.74-3.78.27-2.12.18-4.29.07-6.44-.27-5.42-.63-10.84-.96-16.25,4.08.45,7.93,1.55,11.73,3.24,2.61,1.15,5.43,1.78,7.62,3.98h0Z" fill="#fff"/>
  <path d="M422.44,129.44c.67.73,1.62,1.54,1.63,2.37.1,9.82.13,19.64-.02,29.45-.02,1.19-1.15,2.37-1.82,3.72-2.47,1.93-4.75,3.91-7.33,5.39-2.84,1.62-5.94,2.79-8.94,4.12-.35.15-.82.03-1.4-.12.29-1.28,1.13-2.39,1.15-3.52.12-7.34.05-14.68.08-22.03,0-1.45-.58-2.17-2.05-2.11,2.02-1.53,4.16-2.93,6.03-4.63,3.46-3.15,6.79-6.45,10.13-9.73.88-.86,1.59-1.89,2.54-2.92h0Z" fill="#fff"/>
  <path d="M403.54,146.73c1.67-.07,2.25.64,2.25,2.1-.03,7.34.04,14.69-.08,22.03-.02,1.13-.86,2.24-1.36,3.54-2.31.66-4.56,1.2-6.84,1.59-2.34.41-4.7.91-7.05.94-1.85.03-3.72-.6-5.77-1.16.12-2.9.71-5.57.71-8.25,0-6.4-.28-12.81-.44-19.21,2.5.14,5.02.15,7.51.45,3.87.47,7.29-1.19,11.08-2.04h-.01Z" fill="#fff"/>
  <path d="M367.78,109.95c-.48-.77-1.08-1.65-1.08-2.52.08-11.78.26-23.56.32-35.34,0-.85-.76-1.7-1.32-2.65,1.63-1.09,3.37-2.17,5.21-3.05,3.97-1.9,8.19-2.88,12.82-2.71.23,9.03.23,17.79.24,26.56,0,0-.01-.03-.14,0-.38.31-.63.58-.88.85-1.07.83-2.03,1.96-3.25,2.44-4.9,1.95-6.85,6.71-9.9,10.35-1.24,1.47-1.28,3.94-2.03,6.06h.01Z" fill="#fff"/>
  <path d="M528.67,63.76c.47,5.57.84,10.99,1.11,16.41.11,2.14.2,4.32-.07,6.44-.15,1.23-1.03,2.37-1.77,3.58-4.61-.14-9.03-.4-13.46-.46-2.19-.03-4.39.29-6.8.42.28-2.5,1.08-4.95,1.21-7.44.23-4.37-.01-8.76.1-13.13.05-2.11-.39-3.9-1.98-5.54.12-.3.31-.55.49-.55,7.01.03,14.01.08,21.17.29v-.02Z" fill="#fff"/>
  <path d="M384.78,148.22c.33,6.49.61,12.9.61,19.3,0,2.67-.59,5.35-.92,8.21-3.11-.58-6.24-1.25-9.29-2.17-2.95-.88-5.82-2.02-8.72-3.07-.15-.05-.2-.36-.32-.74,1.95-1.1,2.52-2.61,2.49-4.77-.12-7.89.07-15.79-.1-23.68-.07-3.17-.81-6.32-1.15-9.48-.13-1.19.02-2.41.16-3.79,2.02,3.68,3.51,7.82,5.95,11.29,2.58,3.67,5.99,6.81,10.64,8.04.22.06.34.5.67.86h-.02Z" fill="#fff"/>
  <path d="M419.1,73.11c.58,2.88,1.39,5.6,1.5,8.33.22,5.78.13,11.57,0,17.35-.02.92-.9,1.82-1.56,2.75-.24-.19-.3-.4-.31-.86-.17-.52-.38-.79-.59-1.06,0,0-.23-.03-.4-.15-.25-.21-.35-.29-.45-.37-2.65-4.41-7.43-6.11-11.42-8.77-1.34-.9-3.32-.85-4.9-1.54.51-1.57,1.26-2.84,1.29-4.12.12-6.57.06-13.14.06-19.71,3.79-.21,6.81,1.92,9.94,3.51,2.4,1.21,4.52,2.96,6.85,4.63h-.01Z" fill="#fff"/>
  <path d="M402.17,64.92c.13,6.63.2,13.2.08,19.77-.02,1.28-.77,2.55-1.34,3.93-3.33.1-6.53-.1-9.69.14-2.3.18-4.55.93-7.03,1.45-.22-8.75-.23-17.51-.24-26.5,5.65-.08,11.29.07,17.21.32.36.2.45.29.55.36.11.16.22.31.46.52h0Z" fill="#fff"/>
  <path d="M547.63,113.25c1.78-.92,1.52.66,1.79,1.5.36,1.14.21,2.12-1.5,2.22-.22-1.16-.24-2.33-.29-3.72Z" fill="#fff"/>
  <path d="M366.76,114.42c.04-.69.24-1.47.59-2.33-.04.69-.23,1.46-.59,2.33Z" fill="#fff"/>
  <path d="M418.15,99.78c.19.12.4.38.54.75-.22-.13-.37-.36-.54-.75Z" fill="#fff"/>
  <path d="M383.13,91.13c.08-.3.33-.58.72-.88-.09.28-.32.6-.72.88Z" fill="#fff"/>
  <path d="M543.49,136.29c-.03.29-.24.6-.59.97.05-.28.23-.61.59-.97Z" fill="#fff"/>
  <path d="M417.26,99.25c.12-.05.21.03.35.2-.08.02-.23-.03-.35-.2Z" fill="#fff"/>
  <path d="M481.81,103.02c-.03-.13.09-.22.31-.36,0,.09-.09.23-.31.36Z" fill="#fff"/>
  <path d="M401.73,64.27c-.12.05-.21-.03-.36-.19.09-.03.23.02.36.19Z" fill="#fff"/>
</svg>
